SplineFontDB: 3.0
FontName: Sansita-Regular
FullName: Sansita-Regular
FamilyName: Sansita
Weight: Regular
Copyright: Copyright (c) 2011-2013, Omnibus-Type (www.omnibus-type.com omnibus.type@gmail.com) with Reserved Font Name 'Sansita'
Version: 001.004
ItalicAngle: 0
UnderlinePosition: -102.4
UnderlineWidth: 102.4
Ascent: 1638
Descent: 410
sfntRevision: 0x00010106
LayerCount: 2
Layer: 0 1 "Back"  1
Layer: 1 1 "Fore"  0
XUID: [1021 809 -2065993493 3615214]
FSType: 8
OS2Version: 3
OS2_WeightWidthSlopeOnly: 0
OS2_UseTypoMetrics: 1
CreationTime: 1387883357
ModificationTime: 1388172993
PfmFamily: 81
TTFWeight: 400
TTFWidth: 5
LineGap: 0
VLineGap: 0
Panose: 0 0 5 0 0 0 0 0 0 0
OS2TypoAscent: 1434
OS2TypoAOffset: 0
OS2TypoDescent: -369
OS2TypoDOffset: 0
OS2TypoLinegap: 655
OS2WinAscent: 2089
OS2WinAOffset: 0
OS2WinDescent: 369
OS2WinDOffset: 0
HheadAscent: 2089
HheadAOffset: 0
HheadDescent: -369
HheadDOffset: 0
OS2SubXSize: 1331
OS2SubYSize: 1229
OS2SubXOff: 0
OS2SubYOff: 154
OS2SupXSize: 1331
OS2SupYSize: 1229
OS2SupXOff: 0
OS2SupYOff: 717
OS2StrikeYSize: 102
OS2StrikeYPos: 627
OS2Vendor: 'UKWN'
OS2CodePages: 20000093.00000000
OS2UnicodeRanges: 00000007.00000000.00000000.00000000
Lookup: 1 0 0 "'aalt' Access All Alternates lookup 0"  {"'aalt' Access All Alternates lookup 0 subtable"  } ['aalt' ('DFLT' <'dflt' > 'grek' <'dflt' > 'latn' <'AZE ' 'CAT ' 'CRT ' 'ESP ' 'KAZ ' 'MOL ' 'NLD ' 'PLK ' 'ROM ' 'TAT ' 'TRK ' 'dflt' > ) ]
Lookup: 3 0 0 "'aalt' Access All Alternates lookup 1"  {"'aalt' Access All Alternates lookup 1 subtable"  } ['aalt' ('DFLT' <'dflt' > 'grek' <'dflt' > 'latn' <'AZE ' 'CAT ' 'CRT ' 'ESP ' 'KAZ ' 'MOL ' 'NLD ' 'PLK ' 'ROM ' 'TAT ' 'TRK ' 'dflt' > ) ]

StartChar: .notdef
Encoding: 65536 -1 0
Width: 1052
Flags: MW
HStem: 0 102<178 874 178 1038> 1331 102<176 872 176 176>
VStem: 14 100<195 195 195 1239> 934 104<195 1239 1239 1239>
LayerCount: 2
Fore
SplineSet
14 1434 m 1,0,-1
 1038 1434 l 1,1,-1
 1038 0 l 1,2,-1
 14 0 l 1,3,-1
 14 1434 l 1,0,-1
872 1331 m 1,4,-1
 176 1331 l 1,5,-1
 526 809 l 1,6,-1
 872 1331 l 1,4,-1
115 195 m 1,7,-1
 465 717 l 1,8,-1
 115 1239 l 1,9,-1
 115 195 l 1,7,-1
934 195 m 1,10,-1
 934 1239 l 1,11,-1
 588 717 l 1,12,-1
 934 195 l 1,10,-1
874 102 m 1,13,-1
 524 625 l 1,14,-1
 178 102 l 1,15,-1
 874 102 l 1,13,-1
EndSplineSet
Validated: 1
EndChar

StartChar: A
Encoding: 65 65 1
Width: 1030
Flags: MW
HStem: 344 152<342 672 342 707 305 672> 1198 154<506 506>
VStem: 0 1030<0 0>
LayerCount: 2
Fore
SplineSet
1030 0 m 1,0,-1
 788 0 l 1,1,-1
 707 344 l 1,2,-1
 305 344 l 1,3,-1
 225 0 l 1,4,-1
 0 0 l 1,5,-1
 375 1352 l 1,6,-1
 680 1352 l 1,7,-1
 1030 0 l 1,0,-1
672 496 m 1,8,-1
 506 1198 l 1,9,-1
 342 496 l 1,10,-1
 672 496 l 1,8,-1
EndSplineSet
Validated: 1
Substitution2: "Single Substitution lookup 21 subtable" ordfeminine
Substitution2: "'aalt' Access All Alternates lookup 0 subtable" ordfeminine
Position2: "'cpsp' Capital Spacing lookup 3 subtable" dx=10 dy=0 dh=20 dv=0
EndChar

StartChar: Aacute
Encoding: 193 193 2
Width: 1030
Flags: MW
HStem: 344 152<342 672 342 707 305 672> 1198 154<506 506>
VStem: 0 1030<0 0>
LayerCount: 2
Fore
SplineSet
793 1714 m 1,0,1
 852 1672 852 1672 852 1610 c 0,2,3
 852 1571 852 1571 833 1544.5 c 128,-1,4
 814 1518 814 1518 778 1504.5 c 128,-1,5
 742 1491 742 1491 708 1485 c 128,-1,6
 674 1479 674 1479 625 1475 c 2,7,-1
 381 1456 l 1,8,-1
 358 1542 l 1,9,-1
 793 1714 l 1,0,1
788 0 m 1,10,-1
 707 344 l 1,11,-1
 305 344 l 1,12,-1
 225 0 l 1,13,-1
 0 0 l 1,14,-1
 375 1352 l 1,15,-1
 680 1352 l 1,16,-1
 1030 0 l 1,17,-1
 788 0 l 1,10,-1
506 1198 m 1,18,-1
 342 496 l 1,19,-1
 672 496 l 1,20,-1
 506 1198 l 1,18,-1
EndSplineSet
Validated: 1
Position2: "'cpsp' Capital Spacing lookup 3 subtable" dx=10 dy=0 dh=20 dv=0
EndChar

StartChar: Abreve
Encoding: 258 258 3
Width: 1030
Flags: MW
HStem: 344 152<342 672 342 707 305 672> 1198 154<506 506> 1403 106<470 566 470 609>
VStem: 211 186<1637 1686 1637 1686> 639 188<1637 1686>
LayerCount: 2
Fore
SplineSet
827 1686 m 1,0,1
 827 1553 827 1553 742 1478 c 128,-1,2
 657 1403 657 1403 518 1403 c 128,-1,3
 379 1403 379 1403 295 1478 c 128,-1,4
 211 1553 211 1553 211 1686 c 1,5,-1
 397 1686 l 1,6,7
 397 1509 397 1509 518 1509 c 128,-1,8
 639 1509 639 1509 639 1686 c 1,9,-1
 827 1686 l 1,0,1
788 0 m 1,10,-1
 707 344 l 1,11,-1
 305 344 l 1,12,-1
 225 0 l 1,13,-1
 0 0 l 1,14,-1
 375 1352 l 1,15,-1
 680 1352 l 1,16,-1
 1030 0 l 1,17,-1
 788 0 l 1,10,-1
506 1198 m 1,18,-1
 342 496 l 1,19,-1
 672 496 l 1,20,-1
 506 1198 l 1,18,-1
EndSplineSet
Validated: 1
Position2: "'cpsp' Capital Spacing lookup 3 subtable" dx=10 dy=0 dh=20 dv=0
EndChar

StartChar: Acircumflex
Encoding: 194 194 4
Width: 1030
Flags: MW
HStem: 344 152<342 672 342 707 305 672> 1198 154<506 506> 1401 41G<219 219 829 829>
VStem: 0 1030<0 0>
LayerCount: 2
Fore
SplineSet
219 1442 m 1,0,-1
 516 1712 l 1,1,-1
 524 1712 l 1,2,-1
 829 1442 l 1,3,-1
 768 1370 l 1,4,-1
 522 1520 l 1,5,-1
 279 1370 l 1,6,-1
 219 1442 l 1,0,-1
788 0 m 1,7,-1
 707 344 l 1,8,-1
 305 344 l 1,9,-1
 225 0 l 1,10,-1
 0 0 l 1,11,-1
 375 1352 l 1,12,-1
 680 1352 l 1,13,-1
 1030 0 l 1,14,-1
 788 0 l 1,7,-1
506 1198 m 1,15,-1
 342 496 l 1,16,-1
 672 496 l 1,17,-1
 506 1198 l 1,15,-1
EndSplineSet
Validated: 1
Position2: "'cpsp' Capital Spacing lookup 3 subtable" dx=10 dy=0 dh=20 dv=0
EndChar

StartChar: Adieresis
Encoding: 196 196 5
Width: 1030
Flags: MW
HStem: 344 152<342 672 342 707 305 672> 1198 154<506 506> 1454 258<274 355 682 763>
VStem: 162 307<1541 1625> 569 307<1541 1625>
LayerCount: 2
Fore
SplineSet
317 1712 m 128,-1,1
 385 1712 385 1712 427 1679 c 128,-1,2
 469 1646 469 1646 469 1585 c 0,3,4
 469 1522 469 1522 424.5 1488 c 128,-1,5
 380 1454 380 1454 311 1454 c 0,6,7
 244 1454 244 1454 203 1487 c 128,-1,8
 162 1520 162 1520 162 1581 c 0,9,10
 162 1644 162 1644 205.5 1678 c 128,-1,0
 249 1712 249 1712 317 1712 c 128,-1,1
725 1712 m 128,-1,12
 793 1712 793 1712 835 1679 c 128,-1,13
 877 1646 877 1646 877 1585 c 0,14,15
 877 1522 877 1522 832.5 1488 c 128,-1,16
 788 1454 788 1454 719 1454 c 0,17,18
 652 1454 652 1454 610.5 1487 c 128,-1,19
 569 1520 569 1520 569 1581 c 0,20,21
 569 1644 569 1644 613 1678 c 128,-1,11
 657 1712 657 1712 725 1712 c 128,-1,12
788 0 m 1,22,-1
 707 344 l 1,23,-1
 305 344 l 1,24,-1
 225 0 l 1,25,-1
 0 0 l 1,26,-1
 375 1352 l 1,27,-1
 680 1352 l 1,28,-1
 1030 0 l 1,29,-1
 788 0 l 1,22,-1
506 1198 m 1,30,-1
 342 496 l 1,31,-1
 672 496 l 1,32,-1
 506 1198 l 1,30,-1
EndSplineSet
Validated: 1
Position2: "'cpsp' Capital Spacing lookup 3 subtable" dx=10 dy=0 dh=20 dv=0
EndChar

StartChar: Agrave
Encoding: 192 192 6
Width: 1030
Flags: MW
HStem: 344 152<342 672 342 707 305 672> 1198 154<506 506>
VStem: 0 1030<0 0>
LayerCount: 2
Fore
SplineSet
410 1475 m 2,0,1
 372 1478 372 1478 344 1481.5 c 128,-1,2
 316 1485 316 1485 284 1494.5 c 128,-1,3
 252 1504 252 1504 231.5 1517.5 c 128,-1,4
 211 1531 211 1531 197.5 1555 c 128,-1,5
 184 1579 184 1579 184 1610 c 0,6,7
 184 1673 184 1673 242 1714 c 1,8,-1
 678 1542 l 1,9,-1
 655 1456 l 1,10,-1
 410 1475 l 2,0,1
788 0 m 1,11,-1
 707 344 l 1,12,-1
 305 344 l 1,13,-1
 225 0 l 1,14,-1
 0 0 l 1,15,-1
 375 1352 l 1,16,-1
 680 1352 l 1,17,-1
 1030 0 l 1,18,-1
 788 0 l 1,11,-1
506 1198 m 1,19,-1
 342 496 l 1,20,-1
 672 496 l 1,21,-1
 506 1198 l 1,19,-1
EndSplineSet
Validated: 1
Position2: "'cpsp' Capital Spacing lookup 3 subtable" dx=10 dy=0 dh=20 dv=0
EndChar

StartChar: Amacron
Encoding: 256 256 7
Width: 1030
Flags: MW
HStem: 344 152<342 672 342 707 305 672> 1198 154<506 506> 1520 168<342 682 252 784>
VStem: 0 1030<0 0>
LayerCount: 2
Fore
SplineSet
784 1688 m 1,0,1
 801 1646 801 1646 801 1610 c 0,2,3
 801 1520 801 1520 682 1520 c 2,4,-1
 252 1520 l 1,5,6
 238 1552 238 1552 238 1593 c 0,7,8
 238 1637 238 1637 265.5 1662.5 c 128,-1,9
 293 1688 293 1688 342 1688 c 2,10,-1
 784 1688 l 1,0,1
788 0 m 1,11,-1
 707 344 l 1,12,-1
 305 344 l 1,13,-1
 225 0 l 1,14,-1
 0 0 l 1,15,-1
 375 1352 l 1,16,-1
 680 1352 l 1,17,-1
 1030 0 l 1,18,-1
 788 0 l 1,11,-1
506 1198 m 1,19,-1
 342 496 l 1,20,-1
 672 496 l 1,21,-1
 506 1198 l 1,19,-1
EndSplineSet
Validated: 1
Position2: "'cpsp' Capital Spacing lookup 3 subtable" dx=10 dy=0 dh=20 dv=0
EndChar

StartChar: Aogonek
Encoding: 260 260 8
Width: 1030
Flags: MW
HStem: -504 119<937 973> 0 20<1004 1030> 344 152<342 672 342 707 305 672> 1198 154<506 506>
VStem: 715 152<-305 -233> 1077 23
LayerCount: 2
Fore
SplineSet
1004 0 m 1,0,1
 940 -56 940 -56 903 -125.5 c 128,-1,2
 866 -195 866 -195 866 -266 c 0,3,4
 866 -327 866 -327 891.5 -356 c 128,-1,5
 917 -385 917 -385 981 -385 c 0,6,7
 1040 -385 1040 -385 1077 -342 c 1,8,9
 1100 -362 1100 -362 1100 -393 c 0,10,11
 1100 -450 1100 -450 1051 -477 c 128,-1,12
 1002 -504 1002 -504 932 -504 c 0,13,14
 829 -504 829 -504 772 -449 c 128,-1,15
 715 -394 715 -394 715 -293 c 0,16,17
 715 -208 715 -208 759.5 -132.5 c 128,-1,18
 804 -57 804 -57 879 0 c 1,19,-1
 788 0 l 1,20,-1
 707 344 l 1,21,-1
 305 344 l 1,22,-1
 225 0 l 1,23,-1
 0 0 l 1,24,-1
 375 1352 l 1,25,-1
 680 1352 l 1,26,-1
 1024 25 l 1,27,-1
 1030 20 l 1,28,-1
 1026 16 l 1,29,-1
 1030 0 l 1,30,-1
 1004 0 l 1,0,1
672 496 m 1,31,-1
 506 1198 l 1,32,-1
 342 496 l 1,33,-1
 672 496 l 1,31,-1
EndSplineSet
Validated: 1
Position2: "'cpsp' Capital Spacing lookup 3 subtable" dx=10 dy=0 dh=20 dv=0
EndChar

StartChar: Aring
Encoding: 197 197 9
Width: 1030
Flags: MW
HStem: 344 152<342 672 342 707 305 672> 1198 154<506 506> 1438 70<488 549 488 575> 1706 70<489 548>
VStem: 313 119<1581 1636 1581 1663> 606 119<1581 1636>
LayerCount: 2
Fore
SplineSet
518 1438 m 0,0,1
 431 1438 431 1438 372 1485 c 128,-1,2
 313 1532 313 1532 313 1610 c 0,3,4
 313 1687 313 1687 371 1731.5 c 128,-1,5
 429 1776 429 1776 518 1776 c 0,6,7
 609 1776 609 1776 667 1731.5 c 128,-1,8
 725 1687 725 1687 725 1610 c 0,9,10
 725 1532 725 1532 666 1485 c 128,-1,11
 607 1438 607 1438 518 1438 c 0,0,1
518 1507 m 0,12,13
 562 1507 562 1507 584 1535.5 c 128,-1,14
 606 1564 606 1564 606 1610 c 0,15,16
 606 1652 606 1652 583 1679 c 128,-1,17
 560 1706 560 1706 518 1706 c 0,18,19
 477 1706 477 1706 454.5 1679 c 128,-1,20
 432 1652 432 1652 432 1610 c 0,21,22
 432 1565 432 1565 454 1536 c 128,-1,23
 476 1507 476 1507 518 1507 c 0,12,13
788 0 m 1,24,-1
 707 344 l 1,25,-1
 305 344 l 1,26,-1
 225 0 l 1,27,-1
 0 0 l 1,28,-1
 375 1352 l 1,29,-1
 680 1352 l 1,30,-1
 1030 0 l 1,31,-1
 788 0 l 1,24,-1
506 1198 m 1,32,-1
 342 496 l 1,33,-1
 672 496 l 1,34,-1
 506 1198 l 1,32,-1
EndSplineSet
Validated: 1
Position2: "'cpsp' Capital Spacing lookup 3 subtable" dx=10 dy=0 dh=20 dv=0
EndChar

StartChar: Aringacute
Encoding: 506 506 10
Width: 1030
Flags: MW
HStem: 344 152<342 672 342 707 305 672> 1311 41G<497 557> 1550 70<498 556>
VStem: 322 119<1431 1481 1425 1507> 614 121<1430 1481>
LayerCount: 2
Fore
SplineSet
385 1626 m 1,0,-1
 362 1712 l 1,1,-1
 797 1884 l 1,2,3
 856 1842 856 1842 856 1780 c 0,4,5
 856 1741 856 1741 837 1714.5 c 128,-1,6
 818 1688 818 1688 782 1674.5 c 128,-1,7
 746 1661 746 1661 712 1655 c 128,-1,8
 678 1649 678 1649 629 1645 c 2,9,-1
 385 1626 l 1,0,-1
1030 0 m 1,10,-1
 788 0 l 1,11,-1
 707 344 l 1,12,-1
 305 344 l 1,13,-1
 225 0 l 1,14,-1
 0 0 l 1,15,-1
 371 1337 l 1,16,17
 322 1383 322 1383 322 1454 c 0,18,19
 322 1531 322 1531 379.5 1575.5 c 128,-1,20
 437 1620 437 1620 526 1620 c 0,21,22
 618 1620 618 1620 676.5 1575.5 c 128,-1,23
 735 1531 735 1531 735 1454 c 0,24,25
 735 1383 735 1383 684 1335 c 1,26,-1
 1030 0 l 1,10,-1
526 1550 m 0,27,28
 485 1550 485 1550 462.5 1523 c 128,-1,29
 440 1496 440 1496 440 1454 c 0,30,31
 440 1409 440 1409 462 1380.5 c 128,-1,32
 484 1352 484 1352 526 1352 c 0,33,34
 570 1352 570 1352 592 1380.5 c 128,-1,35
 614 1409 614 1409 614 1454 c 0,36,37
 614 1496 614 1496 591 1523 c 128,-1,38
 568 1550 568 1550 526 1550 c 0,27,28
672 496 m 1,39,-1
 506 1198 l 1,40,-1
 342 496 l 1,41,-1
 672 496 l 1,39,-1
EndSplineSet
Validated: 1
Position2: "'cpsp' Capital Spacing lookup 3 subtable" dx=10 dy=0 dh=20 dv=0
EndChar

StartChar: Atilde
Encoding: 195 195 11
Width: 1030
Flags: MW
HStem: 344 152<342 672 342 707 305 672> 1198 154<506 506> 1475 174<659 683 625 739> 1524 174<355 380 299 414>
VStem: 0 1030<0 0>
LayerCount: 2
Fore
SplineSet
774 1679 m 1,0,1
 829 1643 829 1643 829 1575 c 0,2,3
 829 1525 829 1525 795 1500 c 128,-1,4
 761 1475 761 1475 705 1475 c 0,5,6
 659 1475 659 1475 536 1499.5 c 128,-1,7
 413 1524 413 1524 373 1524 c 0,8,9
 297 1524 297 1524 264 1493 c 1,10,11
 209 1529 209 1529 209 1597 c 0,12,13
 209 1647 209 1647 243.5 1672.5 c 128,-1,14
 278 1698 278 1698 334 1698 c 0,15,16
 381 1698 381 1698 503.5 1673.5 c 128,-1,17
 626 1649 626 1649 666 1649 c 0,18,19
 742 1649 742 1649 774 1679 c 1,0,1
788 0 m 1,20,-1
 707 344 l 1,21,-1
 305 344 l 1,22,-1
 225 0 l 1,23,-1
 0 0 l 1,24,-1
 375 1352 l 1,25,-1
 680 1352 l 1,26,-1
 1030 0 l 1,27,-1
 788 0 l 1,20,-1
506 1198 m 1,28,-1
 342 496 l 1,29,-1
 672 496 l 1,30,-1
 506 1198 l 1,28,-1
EndSplineSet
Validated: 1
Position2: "'cpsp' Capital Spacing lookup 3 subtable" dx=10 dy=0 dh=20 dv=0
EndChar

StartChar: AE
Encoding: 198 198 12
Width: 1382
Flags: MW
HStem: 0 152<877 1307> 344 152<340 635 340 635 276 635> 618 152<877 1231 877 1231> 1200 152<635 635 877 1292 877 877>
VStem: 635 242<152 344 344 344 496 618 770 1200>
LayerCount: 2
Fore
SplineSet
1292 1200 m 1,0,-1
 877 1200 l 1,1,-1
 877 770 l 1,2,-1
 1231 770 l 1,3,-1
 1231 618 l 1,4,-1
 877 618 l 1,5,-1
 877 152 l 1,6,-1
 1321 152 l 1,7,-1
 1307 0 l 1,8,-1
 635 0 l 1,9,-1
 635 344 l 1,10,-1
 276 344 l 1,11,-1
 133 0 l 1,12,-1
 -94 0 l 1,13,-1
 522 1352 l 1,14,-1
 1292 1352 l 1,15,-1
 1292 1200 l 1,0,-1
340 496 m 1,16,-1
 635 496 l 1,17,-1
 635 1200 l 1,18,-1
 340 496 l 1,16,-1
EndSplineSet
Validated: 1
Position2: "'cpsp' Capital Spacing lookup 3 subtable" dx=10 dy=0 dh=20 dv=0
EndChar

StartChar: AEacute
Encoding: 508 508 13
Width: 1382
Flags: MW
HStem: 0 152<877 1307> 344 152<340 635 340 635 276 635> 618 152<877 1231 877 1231> 1200 152<635 635 877 877 877 1292>
VStem: 635 242<152 344 344 344 496 618 770 1200>
LayerCount: 2
Fore
SplineSet
958 1714 m 1,0,1
 1018 1671 1018 1671 1018 1610 c 0,2,3
 1018 1571 1018 1571 999 1544.5 c 128,-1,4
 980 1518 980 1518 944 1504.5 c 128,-1,5
 908 1491 908 1491 874 1485 c 128,-1,6
 840 1479 840 1479 791 1475 c 2,7,-1
 547 1456 l 1,8,-1
 524 1542 l 1,9,-1
 958 1714 l 1,0,1
877 1200 m 1,10,-1
 877 770 l 1,11,-1
 1231 770 l 1,12,-1
 1231 618 l 1,13,-1
 877 618 l 1,14,-1
 877 152 l 1,15,-1
 1321 152 l 1,16,-1
 1307 0 l 1,17,-1
 635 0 l 1,18,-1
 635 344 l 1,19,-1
 276 344 l 1,20,-1
 133 0 l 1,21,-1
 -94 0 l 1,22,-1
 522 1352 l 1,23,-1
 1292 1352 l 1,24,-1
 1292 1200 l 1,25,-1
 877 1200 l 1,10,-1
635 496 m 1,26,-1
 635 1200 l 1,27,-1
 340 496 l 1,28,-1
 635 496 l 1,26,-1
EndSplineSet
Validated: 1
Position2: "'cpsp' Capital Spacing lookup 3 subtable" dx=10 dy=0 dh=20 dv=0
EndChar

StartChar: B
Encoding: 66 66 14
Width: 1105
Flags: MW
HStem: -20 143<475 592 475 642> 651 139<452 547 452 563> 1217 143<473 562>
VStem: 123 240<135 135 135 645 797 1206> 707 246<981 1089> 797 254<296 488 253 498>
LayerCount: 2
Fore
SplineSet
123 1343 m 1,0,1
 380 1360 380 1360 508 1360 c 0,2,3
 608 1360 608 1360 684.5 1345 c 128,-1,4
 761 1330 761 1330 823.5 1295 c 128,-1,5
 886 1260 886 1260 919 1196 c 128,-1,6
 952 1132 952 1132 952 1040 c 0,7,8
 952 953 952 953 901.5 876.5 c 128,-1,9
 851 800 851 800 770 756 c 1,10,11
 906 729 906 729 978.5 633 c 128,-1,12
 1051 537 1051 537 1051 395 c 0,13,14
 1051 312 1051 312 1021 242.5 c 128,-1,15
 991 173 991 173 939 125.5 c 128,-1,16
 887 78 887 78 817 44.5 c 128,-1,17
 747 11 747 11 667 -4.5 c 128,-1,18
 587 -20 587 -20 500 -20 c 0,19,20
 328 -20 328 -20 123 10 c 1,21,-1
 123 1343 l 1,0,1
362 797 m 1,22,23
 409 791 409 791 467 791 c 0,24,25
 588 791 588 791 647.5 846 c 128,-1,26
 707 901 707 901 707 1020 c 0,27,28
 707 1217 707 1217 494 1217 c 0,29,30
 437 1217 437 1217 362 1206 c 1,31,-1
 362 797 l 1,22,23
362 135 m 1,32,33
 436 123 436 123 500 123 c 0,34,35
 643 123 643 123 720 188 c 128,-1,36
 797 253 797 253 797 389 c 0,37,38
 797 469 797 469 775 521.5 c 128,-1,39
 753 574 753 574 706.5 602 c 128,-1,40
 660 630 660 630 601 640.5 c 128,-1,41
 542 651 542 651 455 651 c 0,42,43
 400 651 400 651 362 645 c 1,44,-1
 362 135 l 1,32,33
EndSplineSet
Validated: 1
Position2: "'cpsp' Capital Spacing lookup 3 subtable" dx=10 dy=0 dh=20 dv=0
EndChar

StartChar: C
Encoding: 67 67 15
Width: 1048
Flags: MW
HStem: -45 188<478 677 478 680> 1249 143<466 642>
VStem: 70 258<554 798 554 868> 748 250<1049 1121>
LayerCount: 2
Fore
SplineSet
584 1249 m 0,0,1
 535 1249 535 1249 495.5 1229 c 128,-1,2
 456 1209 456 1209 430 1178 c 128,-1,3
 404 1147 404 1147 384.5 1099 c 128,-1,4
 365 1051 365 1051 354.5 1004 c 128,-1,5
 344 957 344 957 337.5 895.5 c 128,-1,6
 331 834 331 834 329.5 786.5 c 128,-1,7
 328 739 328 739 328 680 c 0,8,9
 328 619 328 619 330 570.5 c 128,-1,10
 332 522 332 522 339 464 c 128,-1,11
 346 406 346 406 357.5 362.5 c 128,-1,12
 369 319 369 319 390 275.5 c 128,-1,13
 411 232 411 232 439 204.5 c 128,-1,14
 467 177 467 177 509 160 c 128,-1,15
 551 143 551 143 604 143 c 0,16,17
 711 143 711 143 786.5 202.5 c 128,-1,18
 862 262 862 262 895 367 c 1,19,20
 975 343 975 343 975 246 c 0,21,22
 975 154 975 154 916.5 86 c 128,-1,23
 858 18 858 18 771 -13.5 c 128,-1,24
 684 -45 684 -45 584 -45 c 0,25,26
 70 -45 70 -45 70 670 c 0,27,28
 70 793 70 793 86.5 898 c 128,-1,29
 103 1003 103 1003 142.5 1095.5 c 128,-1,30
 182 1188 182 1188 242 1253 c 128,-1,31
 302 1318 302 1318 393.5 1355.5 c 128,-1,32
 485 1393 485 1393 602 1393 c 0,33,34
 688 1393 688 1393 757.5 1377 c 128,-1,35
 827 1361 827 1361 882 1327 c 128,-1,36
 937 1293 937 1293 967 1233.5 c 128,-1,37
 997 1174 997 1174 997 1094 c 0,38,39
 997 1021 997 1021 953.5 974.5 c 128,-1,40
 910 928 910 928 838 928 c 0,41,42
 767 928 767 928 731 961 c 1,43,44
 748 1010 748 1010 748 1063 c 0,45,46
 748 1249 748 1249 584 1249 c 0,0,1
EndSplineSet
Validated: 1
Position2: "'cpsp' Capital Spacing lookup 3 subtable" dx=10 dy=0 dh=20 dv=0
EndChar

StartChar: Cacute
Encoding: 262 262 16
Width: 1048
Flags: MW
HStem: -45 188<478 677 478 680> 1249 143<466 642>
VStem: 70 258<554 798 554 868> 748 250<1049 1121>
LayerCount: 2
Fore
SplineSet
860 1714 m 1,0,1
 920 1671 920 1671 920 1610 c 0,2,3
 920 1571 920 1571 901 1544.5 c 128,-1,4
 882 1518 882 1518 845.5 1504.5 c 128,-1,5
 809 1491 809 1491 775 1485 c 128,-1,6
 741 1479 741 1479 692 1475 c 2,7,-1
 449 1456 l 1,8,-1
 426 1542 l 1,9,-1
 860 1714 l 1,0,1
584 1249 m 0,10,11
 535 1249 535 1249 495.5 1229 c 128,-1,12
 456 1209 456 1209 430 1178 c 128,-1,13
 404 1147 404 1147 384.5 1099 c 128,-1,14
 365 1051 365 1051 354.5 1004 c 128,-1,15
 344 957 344 957 337.5 895.5 c 128,-1,16
 331 834 331 834 329.5 786.5 c 128,-1,17
 328 739 328 739 328 680 c 0,18,19
 328 619 328 619 330 570.5 c 128,-1,20
 332 522 332 522 339 464 c 128,-1,21
 346 406 346 406 357.5 362.5 c 128,-1,22
 369 319 369 319 390 275.5 c 128,-1,23
 411 232 411 232 439 204.5 c 128,-1,24
 467 177 467 177 509 160 c 128,-1,25
 551 143 551 143 604 143 c 0,26,27
 711 143 711 143 786.5 202.5 c 128,-1,28
 862 262 862 262 895 367 c 1,29,30
 975 343 975 343 975 246 c 0,31,32
 975 154 975 154 916.5 86 c 128,-1,33
 858 18 858 18 771 -13.5 c 128,-1,34
 684 -45 684 -45 584 -45 c 0,35,36
 70 -45 70 -45 70 670 c 0,37,38
 70 793 70 793 86.5 898 c 128,-1,39
 103 1003 103 1003 142.5 1095.5 c 128,-1,40
 182 1188 182 1188 242 1253 c 128,-1,41
 302 1318 302 1318 393.5 1355.5 c 128,-1,42
 485 1393 485 1393 602 1393 c 0,43,44
 688 1393 688 1393 757.5 1377 c 128,-1,45
 827 1361 827 1361 882 1327 c 128,-1,46
 937 1293 937 1293 967 1233.5 c 128,-1,47
 997 1174 997 1174 997 1094 c 0,48,49
 997 1021 997 1021 953.5 974.5 c 128,-1,50
 910 928 910 928 838 928 c 0,51,52
 767 928 767 928 731 961 c 1,53,54
 748 1010 748 1010 748 1063 c 0,55,56
 748 1249 748 1249 584 1249 c 0,10,11
EndSplineSet
Validated: 1
Substitution2: "'locl' Localized Forms in Latin lookup 13 subtable" Cacute.loclPLK
Substitution2: "'aalt' Access All Alternates lookup 0 subtable" Cacute.loclPLK
Position2: "'cpsp' Capital Spacing lookup 3 subtable" dx=10 dy=0 dh=20 dv=0
EndChar

StartChar: Ccaron
Encoding: 268 268 17
Width: 1048
Flags: MW
HStem: -45 188<478 677 478 680> 1249 143<466 642>
VStem: 70 258<554 798 554 868> 748 250<1049 1121>
LayerCount: 2
Fore
SplineSet
883 1636 m 1,0,-1
 586 1407 l 1,1,-1
 580 1407 l 1,2,-1
 274 1636 l 1,3,-1
 334 1708 l 1,4,-1
 580 1579 l 1,5,-1
 823 1708 l 1,6,-1
 883 1636 l 1,0,-1
584 1249 m 0,7,8
 535 1249 535 1249 495.5 1229 c 128,-1,9
 456 1209 456 1209 430 1178 c 128,-1,10
 404 1147 404 1147 384.5 1099 c 128,-1,11
 365 1051 365 1051 354.5 1004 c 128,-1,12
 344 957 344 957 337.5 895.5 c 128,-1,13
 331 834 331 834 329.5 786.5 c 128,-1,14
 328 739 328 739 328 680 c 0,15,16
 328 619 328 619 330 570.5 c 128,-1,17
 332 522 332 522 339 464 c 128,-1,18
 346 406 346 406 357.5 362.5 c 128,-1,19
 369 319 369 319 390 275.5 c 128,-1,20
 411 232 411 232 439 204.5 c 128,-1,21
 467 177 467 177 509 160 c 128,-1,22
 551 143 551 143 604 143 c 0,23,24
 711 143 711 143 786.5 202.5 c 128,-1,25
 862 262 862 262 895 367 c 1,26,27
 975 343 975 343 975 246 c 0,28,29
 975 154 975 154 916.5 86 c 128,-1,30
 858 18 858 18 771 -13.5 c 128,-1,31
 684 -45 684 -45 584 -45 c 0,32,33
 70 -45 70 -45 70 670 c 0,34,35
 70 793 70 793 86.5 898 c 128,-1,36
 103 1003 103 1003 142.5 1095.5 c 128,-1,37
 182 1188 182 1188 242 1253 c 128,-1,38
 302 1318 302 1318 393.5 1355.5 c 128,-1,39
 485 1393 485 1393 602 1393 c 0,40,41
 688 1393 688 1393 757.5 1377 c 128,-1,42
 827 1361 827 1361 882 1327 c 128,-1,43
 937 1293 937 1293 967 1233.5 c 128,-1,44
 997 1174 997 1174 997 1094 c 0,45,46
 997 1021 997 1021 953.5 974.5 c 128,-1,47
 910 928 910 928 838 928 c 0,48,49
 767 928 767 928 731 961 c 1,50,51
 748 1010 748 1010 748 1063 c 0,52,53
 748 1249 748 1249 584 1249 c 0,7,8
EndSplineSet
Validated: 1
Position2: "'cpsp' Capital Spacing lookup 3 subtable" dx=10 dy=0 dh=20 dv=0
EndChar

StartChar: Ccedilla
Encoding: 199 199 18
Width: 1048
Flags: MW
HStem: -518 109<526 573 512 639> -227 96<493 677> -45 188<586 677 478 682> 1249 143<466 642>
VStem: 70 258<554 798 554 868> 375 20 672 166<-354 -284> 748 250<1049 1121>
LayerCount: 2
Fore
SplineSet
494 -39 m 1,0,1
 70 20 70 20 70 670 c 0,2,3
 70 793 70 793 86.5 898 c 128,-1,4
 103 1003 103 1003 142.5 1095.5 c 128,-1,5
 182 1188 182 1188 242 1253 c 128,-1,6
 302 1318 302 1318 393.5 1355.5 c 128,-1,7
 485 1393 485 1393 602 1393 c 0,8,9
 688 1393 688 1393 757.5 1377 c 128,-1,10
 827 1361 827 1361 882 1327 c 128,-1,11
 937 1293 937 1293 967 1233.5 c 128,-1,12
 997 1174 997 1174 997 1094 c 0,13,14
 997 1021 997 1021 953.5 974.5 c 128,-1,15
 910 928 910 928 838 928 c 0,16,17
 767 928 767 928 731 961 c 1,18,19
 748 1010 748 1010 748 1063 c 0,20,21
 748 1249 748 1249 584 1249 c 0,22,23
 535 1249 535 1249 495.5 1229 c 128,-1,24
 456 1209 456 1209 430 1178 c 128,-1,25
 404 1147 404 1147 384.5 1099 c 128,-1,26
 365 1051 365 1051 354.5 1004 c 128,-1,27
 344 957 344 957 337.5 895.5 c 128,-1,28
 331 834 331 834 329.5 786.5 c 128,-1,29
 328 739 328 739 328 680 c 0,30,31
 328 619 328 619 330 570.5 c 128,-1,32
 332 522 332 522 339 464 c 128,-1,33
 346 406 346 406 357.5 362.5 c 128,-1,34
 369 319 369 319 390 275.5 c 128,-1,35
 411 232 411 232 439 204.5 c 128,-1,36
 467 177 467 177 509 160 c 128,-1,37
 551 143 551 143 604 143 c 0,38,39
 711 143 711 143 786.5 202.5 c 128,-1,40
 862 262 862 262 895 367 c 1,41,42
 975 343 975 343 975 246 c 0,43,44
 975 154 975 154 917 86 c 128,-1,45
 859 18 859 18 772.5 -13.5 c 128,-1,46
 686 -45 686 -45 586 -45 c 1,47,-1
 553 -133 l 1,48,49
 571 -131 571 -131 610 -131 c 0,50,51
 714 -131 714 -131 776 -177 c 128,-1,52
 838 -223 838 -223 838 -315 c 0,53,54
 838 -405 838 -405 758 -461.5 c 128,-1,55
 678 -518 678 -518 569 -518 c 0,56,57
 522 -518 522 -518 480 -508 c 128,-1,58
 438 -498 438 -498 406.5 -470.5 c 128,-1,59
 375 -443 375 -443 375 -403 c 0,60,61
 375 -369 375 -369 395 -352 c 1,62,63
 447 -410 447 -410 539 -410 c 0,64,65
 597 -410 597 -410 634.5 -389 c 128,-1,66
 672 -368 672 -368 672 -322 c 0,67,68
 672 -227 672 -227 506 -227 c 0,69,70
 461 -227 461 -227 420 -233 c 1,71,-1
 494 -39 l 1,0,1
EndSplineSet
Validated: 1
Position2: "'cpsp' Capital Spacing lookup 3 subtable" dx=10 dy=0 dh=20 dv=0
EndChar

StartChar: Ccircumflex
Encoding: 264 264 19
Width: 1048
Flags: MW
HStem: -45 188<478 677 478 680> 1249 143<466 642> 1401 41G<281 281 891 891>
VStem: 70 258<554 798 554 868> 748 250<1049 1121>
LayerCount: 2
Fore
SplineSet
281 1442 m 1,0,-1
 578 1712 l 1,1,-1
 586 1712 l 1,2,-1
 891 1442 l 1,3,-1
 829 1370 l 1,4,-1
 584 1520 l 1,5,-1
 340 1370 l 1,6,-1
 281 1442 l 1,0,-1
584 1249 m 0,7,8
 535 1249 535 1249 495.5 1229 c 128,-1,9
 456 1209 456 1209 430 1178 c 128,-1,10
 404 1147 404 1147 384.5 1099 c 128,-1,11
 365 1051 365 1051 354.5 1004 c 128,-1,12
 344 957 344 957 337.5 895.5 c 128,-1,13
 331 834 331 834 329.5 786.5 c 128,-1,14
 328 739 328 739 328 680 c 0,15,16
 328 619 328 619 330 570.5 c 128,-1,17
 332 522 332 522 339 464 c 128,-1,18
 346 406 346 406 357.5 362.5 c 128,-1,19
 369 319 369 319 390 275.5 c 128,-1,20
 411 232 411 232 439 204.5 c 128,-1,21
 467 177 467 177 509 160 c 128,-1,22
 551 143 551 143 604 143 c 0,23,24
 711 143 711 143 786.5 202.5 c 128,-1,25
 862 262 862 262 895 367 c 1,26,27
 975 343 975 343 975 246 c 0,28,29
 975 154 975 154 916.5 86 c 128,-1,30
 858 18 858 18 771 -13.5 c 128,-1,31
 684 -45 684 -45 584 -45 c 0,32,33
 70 -45 70 -45 70 670 c 0,34,35
 70 793 70 793 86.5 898 c 128,-1,36
 103 1003 103 1003 142.5 1095.5 c 128,-1,37
 182 1188 182 1188 242 1253 c 128,-1,38
 302 1318 302 1318 393.5 1355.5 c 128,-1,39
 485 1393 485 1393 602 1393 c 0,40,41
 688 1393 688 1393 757.5 1377 c 128,-1,42
 827 1361 827 1361 882 1327 c 128,-1,43
 937 1293 937 1293 967 1233.5 c 128,-1,44
 997 1174 997 1174 997 1094 c 0,45,46
 997 1021 997 1021 953.5 974.5 c 128,-1,47
 910 928 910 928 838 928 c 0,48,49
 767 928 767 928 731 961 c 1,50,51
 748 1010 748 1010 748 1063 c 0,52,53
 748 1249 748 1249 584 1249 c 0,7,8
EndSplineSet
Validated: 1
Position2: "'cpsp' Capital Spacing lookup 3 subtable" dx=10 dy=0 dh=20 dv=0
EndChar

StartChar: Cdotaccent
Encoding: 266 266 20
Width: 1048
Flags: MW
HStem: -45 188<478 677 478 680> 1249 143<466 642> 1483 258<547 628>
VStem: 70 258<554 798 554 868> 434 307<1570 1654> 748 250<1049 1121>
LayerCount: 2
Fore
SplineSet
590 1741 m 128,-1,1
 658 1741 658 1741 699.5 1708 c 128,-1,2
 741 1675 741 1675 741 1614 c 0,3,4
 741 1551 741 1551 697 1517 c 128,-1,5
 653 1483 653 1483 584 1483 c 0,6,7
 517 1483 517 1483 475.5 1516 c 128,-1,8
 434 1549 434 1549 434 1610 c 0,9,10
 434 1673 434 1673 478 1707 c 128,-1,0
 522 1741 522 1741 590 1741 c 128,-1,1
584 1249 m 0,11,12
 535 1249 535 1249 495.5 1229 c 128,-1,13
 456 1209 456 1209 430 1178 c 128,-1,14
 404 1147 404 1147 384.5 1099 c 128,-1,15
 365 1051 365 1051 354.5 1004 c 128,-1,16
 344 957 344 957 337.5 895.5 c 128,-1,17
 331 834 331 834 329.5 786.5 c 128,-1,18
 328 739 328 739 328 680 c 0,19,20
 328 619 328 619 330 570.5 c 128,-1,21
 332 522 332 522 339 464 c 128,-1,22
 346 406 346 406 357.5 362.5 c 128,-1,23
 369 319 369 319 390 275.5 c 128,-1,24
 411 232 411 232 439 204.5 c 128,-1,25
 467 177 467 177 509 160 c 128,-1,26
 551 143 551 143 604 143 c 0,27,28
 711 143 711 143 786.5 202.5 c 128,-1,29
 862 262 862 262 895 367 c 1,30,31
 975 343 975 343 975 246 c 0,32,33
 975 154 975 154 916.5 86 c 128,-1,34
 858 18 858 18 771 -13.5 c 128,-1,35
 684 -45 684 -45 584 -45 c 0,36,37
 70 -45 70 -45 70 670 c 0,38,39
 70 793 70 793 86.5 898 c 128,-1,40
 103 1003 103 1003 142.5 1095.5 c 128,-1,41
 182 1188 182 1188 242 1253 c 128,-1,42
 302 1318 302 1318 393.5 1355.5 c 128,-1,43
 485 1393 485 1393 602 1393 c 0,44,45
 688 1393 688 1393 757.5 1377 c 128,-1,46
 827 1361 827 1361 882 1327 c 128,-1,47
 937 1293 937 1293 967 1233.5 c 128,-1,48
 997 1174 997 1174 997 1094 c 0,49,50
 997 1021 997 1021 953.5 974.5 c 128,-1,51
 910 928 910 928 838 928 c 0,52,53
 767 928 767 928 731 961 c 1,54,55
 748 1010 748 1010 748 1063 c 0,56,57
 748 1249 748 1249 584 1249 c 0,11,12
EndSplineSet
Validated: 1
Position2: "'cpsp' Capital Spacing lookup 3 subtable" dx=10 dy=0 dh=20 dv=0
EndChar

StartChar: D
Encoding: 68 68 21
Width: 1155
Flags: MW
HStem: -20 143<475 651 475 716> 1217 143<506 663>
VStem: 123 240<135 135 135 1206> 836 250<527 809>
LayerCount: 2
Fore
SplineSet
123 1343 m 1,0,1
 380 1360 380 1360 549 1360 c 0,2,3
 1085 1360 1085 1360 1085 709 c 0,4,5
 1085 -20 1085 -20 500 -20 c 0,6,7
 328 -20 328 -20 123 10 c 1,8,-1
 123 1343 l 1,0,1
362 135 m 1,9,10
 436 123 436 123 500 123 c 128,-1,11
 564 123 564 123 614 138.5 c 128,-1,12
 664 154 664 154 699 179.5 c 128,-1,13
 734 205 734 205 759.5 246.5 c 128,-1,14
 785 288 785 288 799.5 332 c 128,-1,15
 814 376 814 376 822.5 437 c 128,-1,16
 831 498 831 498 833.5 552.5 c 128,-1,17
 836 607 836 607 836 680 c 0,18,19
 836 765 836 765 829.5 835.5 c 128,-1,20
 823 906 823 906 803.5 979.5 c 128,-1,21
 784 1053 784 1053 752 1103 c 128,-1,22
 720 1153 720 1153 664.5 1185 c 128,-1,23
 609 1217 609 1217 535 1217 c 0,24,25
 466 1217 466 1217 362 1206 c 1,26,-1
 362 135 l 1,9,10
EndSplineSet
Validated: 1
Position2: "'cpsp' Capital Spacing lookup 3 subtable" dx=10 dy=0 dh=20 dv=0
EndChar

StartChar: DZ
Encoding: 497 497 22
Width: 2015
Flags: MW
HStem: -20 143<475 651 475 716> 0 152<1419 1993> 1200 152<1214 1733 1200 1974> 1217 143<506 663>
VStem: 123 240<135 135 135 1206> 836 250<527 809>
LayerCount: 2
Fore
SplineSet
123 1343 m 1,0,1
 380 1360 380 1360 549 1360 c 0,2,3
 1085 1360 1085 1360 1085 709 c 0,4,5
 1085 -20 1085 -20 500 -20 c 0,6,7
 328 -20 328 -20 123 10 c 1,8,-1
 123 1343 l 1,0,1
1989 1202 m 1,9,-1
 1419 152 l 1,10,-1
 2007 152 l 1,11,-1
 1993 0 l 1,12,-1
 1178 0 l 1,13,-1
 1163 150 l 1,14,-1
 1733 1200 l 1,15,-1
 1200 1200 l 1,16,-1
 1214 1352 l 1,17,-1
 1974 1352 l 1,18,-1
 1989 1202 l 1,9,-1
362 135 m 1,19,20
 436 123 436 123 500 123 c 128,-1,21
 564 123 564 123 614 138.5 c 128,-1,22
 664 154 664 154 699 179.5 c 128,-1,23
 734 205 734 205 759.5 246.5 c 128,-1,24
 785 288 785 288 799.5 332 c 128,-1,25
 814 376 814 376 822.5 437 c 128,-1,26
 831 498 831 498 833.5 552.5 c 128,-1,27
 836 607 836 607 836 680 c 0,28,29
 836 765 836 765 829.5 835.5 c 128,-1,30
 823 906 823 906 803.5 979.5 c 128,-1,31
 784 1053 784 1053 752 1103 c 128,-1,32
 720 1153 720 1153 664.5 1185 c 128,-1,33
 609 1217 609 1217 535 1217 c 0,34,35
 466 1217 466 1217 362 1206 c 1,36,-1
 362 135 l 1,19,20
EndSplineSet
Validated: 1
Position2: "'cpsp' Capital Spacing lookup 3 subtable" dx=10 dy=0 dh=20 dv=0
EndChar

StartChar: DZcaron
Encoding: 452 452 23
Width: 2015
Flags: MW
HStem: -20 143<475 651 475 716> 0 152<1419 1993> 1200 152<1214 1733 1200 1974> 1217 143<506 663>
VStem: 123 240<135 135 135 1206> 836 250<527 809>
LayerCount: 2
Fore
SplineSet
1890 1638 m 1,0,-1
 1593 1409 l 1,1,-1
 1587 1409 l 1,2,-1
 1282 1638 l 1,3,-1
 1341 1710 l 1,4,-1
 1587 1581 l 1,5,-1
 1831 1710 l 1,6,-1
 1890 1638 l 1,0,-1
123 1343 m 1,7,8
 380 1360 380 1360 549 1360 c 0,9,10
 1085 1360 1085 1360 1085 709 c 0,11,12
 1085 -20 1085 -20 500 -20 c 0,13,14
 328 -20 328 -20 123 10 c 1,15,-1
 123 1343 l 1,7,8
1989 1202 m 1,16,-1
 1419 152 l 1,17,-1
 2007 152 l 1,18,-1
 1993 0 l 1,19,-1
 1178 0 l 1,20,-1
 1163 150 l 1,21,-1
 1733 1200 l 1,22,-1
 1200 1200 l 1,23,-1
 1214 1352 l 1,24,-1
 1974 1352 l 1,25,-1
 1989 1202 l 1,16,-1
362 135 m 1,26,27
 436 123 436 123 500 123 c 128,-1,28
 564 123 564 123 614 138.5 c 128,-1,29
 664 154 664 154 699 179.5 c 128,-1,30
 734 205 734 205 759.5 246.5 c 128,-1,31
 785 288 785 288 799.5 332 c 128,-1,32
 814 376 814 376 822.5 437 c 128,-1,33
 831 498 831 498 833.5 552.5 c 128,-1,34
 836 607 836 607 836 680 c 0,35,36
 836 765 836 765 829.5 835.5 c 128,-1,37
 823 906 823 906 803.5 979.5 c 128,-1,38
 784 1053 784 1053 752 1103 c 128,-1,39
 720 1153 720 1153 664.5 1185 c 128,-1,40
 609 1217 609 1217 535 1217 c 0,41,42
 466 1217 466 1217 362 1206 c 1,43,-1
 362 135 l 1,26,27
EndSplineSet
Validated: 1
Position2: "'cpsp' Capital Spacing lookup 3 subtable" dx=10 dy=0 dh=20 dv=0
EndChar

StartChar: Eth
Encoding: 208 208 24
Width: 1175
Flags: MW
HStem: -20 143<496 672 496 736> 608 164<80 143 80 143 -12 143 383 563> 1217 143<526 683>
VStem: 143 240<135 135 135 608 772 1206> 856 250<527 809>
LayerCount: 2
Fore
SplineSet
143 1343 m 1,0,1
 400 1360 400 1360 569 1360 c 0,2,3
 1106 1360 1106 1360 1106 709 c 0,4,5
 1106 -20 1106 -20 520 -20 c 0,6,7
 348 -20 348 -20 143 10 c 1,8,-1
 143 608 l 1,9,-1
 -12 608 l 1,10,11
 -29 636 -29 636 -29 684 c 0,12,13
 -29 772 -29 772 80 772 c 2,14,-1
 143 772 l 1,15,-1
 143 1343 l 1,0,1
383 135 m 1,16,17
 456 123 456 123 520 123 c 128,-1,18
 584 123 584 123 634 138.5 c 128,-1,19
 684 154 684 154 719 179.5 c 128,-1,20
 754 205 754 205 779.5 246.5 c 128,-1,21
 805 288 805 288 819.5 332 c 128,-1,22
 834 376 834 376 842.5 437 c 128,-1,23
 851 498 851 498 853.5 552.5 c 128,-1,24
 856 607 856 607 856 680 c 0,25,26
 856 765 856 765 849.5 835.5 c 128,-1,27
 843 906 843 906 823.5 979.5 c 128,-1,28
 804 1053 804 1053 772 1103 c 128,-1,29
 740 1153 740 1153 684.5 1185 c 128,-1,30
 629 1217 629 1217 555 1217 c 0,31,32
 488 1217 488 1217 383 1206 c 1,33,-1
 383 772 l 1,34,-1
 655 772 l 1,35,36
 672 744 672 744 672 696 c 0,37,38
 672 608 672 608 563 608 c 2,39,-1
 383 608 l 1,40,-1
 383 135 l 1,16,17
EndSplineSet
Validated: 1
Position2: "'cpsp' Capital Spacing lookup 3 subtable" dx=10 dy=0 dh=20 dv=0
EndChar

StartChar: Dcaron
Encoding: 270 270 25
Width: 1155
Flags: MW
HStem: -20 143<475 651 475 716> 1217 143<506 663>
VStem: 123 240<135 135 135 1206> 836 250<527 809>
LayerCount: 2
Fore
SplineSet
848 1636 m 1,0,-1
 551 1407 l 1,1,-1
 545 1407 l 1,2,-1
 240 1636 l 1,3,-1
 299 1708 l 1,4,-1
 545 1579 l 1,5,-1
 788 1708 l 1,6,-1
 848 1636 l 1,0,-1
123 1343 m 1,7,8
 380 1360 380 1360 549 1360 c 0,9,10
 1085 1360 1085 1360 1085 709 c 0,11,12
 1085 -20 1085 -20 500 -20 c 0,13,14
 328 -20 328 -20 123 10 c 1,15,-1
 123 1343 l 1,7,8
362 135 m 1,16,17
 436 123 436 123 500 123 c 128,-1,18
 564 123 564 123 614 138.5 c 128,-1,19
 664 154 664 154 699 179.5 c 128,-1,20
 734 205 734 205 759.5 246.5 c 128,-1,21
 785 288 785 288 799.5 332 c 128,-1,22
 814 376 814 376 822.5 437 c 128,-1,23
 831 498 831 498 833.5 552.5 c 128,-1,24
 836 607 836 607 836 680 c 0,25,26
 836 765 836 765 829.5 835.5 c 128,-1,27
 823 906 823 906 803.5 979.5 c 128,-1,28
 784 1053 784 1053 752 1103 c 128,-1,29
 720 1153 720 1153 664.5 1185 c 128,-1,30
 609 1217 609 1217 535 1217 c 0,31,32
 466 1217 466 1217 362 1206 c 1,33,-1
 362 135 l 1,16,17
EndSplineSet
Validated: 1
Position2: "'cpsp' Capital Spacing lookup 3 subtable" dx=10 dy=0 dh=20 dv=0
EndChar

StartChar: Dcroat
Encoding: 272 272 26
Width: 1175
Flags: MW
HStem: -20 143<496 672 496 736> 608 164<80 143 80 143 -12 143 383 563> 1217 143<526 683>
VStem: 143 240<135 135 135 608 772 1206> 856 250<527 809>
LayerCount: 2
Fore
SplineSet
143 1343 m 1,0,1
 400 1360 400 1360 569 1360 c 0,2,3
 1106 1360 1106 1360 1106 709 c 0,4,5
 1106 -20 1106 -20 520 -20 c 0,6,7
 348 -20 348 -20 143 10 c 1,8,-1
 143 608 l 1,9,-1
 -12 608 l 1,10,11
 -29 636 -29 636 -29 684 c 0,12,13
 -29 772 -29 772 80 772 c 2,14,-1
 143 772 l 1,15,-1
 143 1343 l 1,0,1
383 135 m 1,16,17
 456 123 456 123 520 123 c 128,-1,18
 584 123 584 123 634 138.5 c 128,-1,19
 684 154 684 154 719 179.5 c 128,-1,20
 754 205 754 205 779.5 246.5 c 128,-1,21
 805 288 805 288 819.5 332 c 128,-1,22
 834 376 834 376 842.5 437 c 128,-1,23
 851 498 851 498 853.5 552.5 c 128,-1,24
 856 607 856 607 856 680 c 0,25,26
 856 765 856 765 849.5 835.5 c 128,-1,27
 843 906 843 906 823.5 979.5 c 128,-1,28
 804 1053 804 1053 772 1103 c 128,-1,29
 740 1153 740 1153 684.5 1185 c 128,-1,30
 629 1217 629 1217 555 1217 c 0,31,32
 488 1217 488 1217 383 1206 c 1,33,-1
 383 772 l 1,34,-1
 655 772 l 1,35,36
 672 744 672 744 672 696 c 0,37,38
 672 608 672 608 563 608 c 2,39,-1
 383 608 l 1,40,-1
 383 135 l 1,16,17
EndSplineSet
Validated: 1
Position2: "'cpsp' Capital Spacing lookup 3 subtable" dx=10 dy=0 dh=20 dv=0
EndChar

StartChar: Ddotbelow
Encoding: 7692 7692 27
Width: 1155
Flags: MW
HStem: -369 258<504 585> -20 143<475 651 475 716> 1217 143<506 663>
VStem: 123 240<135 135 135 1206> 391 307<-282 -198> 836 250<527 809>
LayerCount: 2
Fore
SplineSet
123 1343 m 1,0,1
 380 1360 380 1360 549 1360 c 0,2,3
 1085 1360 1085 1360 1085 709 c 0,4,5
 1085 -20 1085 -20 500 -20 c 0,6,7
 328 -20 328 -20 123 10 c 1,8,-1
 123 1343 l 1,0,1
362 135 m 1,9,10
 436 123 436 123 500 123 c 128,-1,11
 564 123 564 123 614 138.5 c 128,-1,12
 664 154 664 154 699 179.5 c 128,-1,13
 734 205 734 205 759.5 246.5 c 128,-1,14
 785 288 785 288 799.5 332 c 128,-1,15
 814 376 814 376 822.5 437 c 128,-1,16
 831 498 831 498 833.5 552.5 c 128,-1,17
 836 607 836 607 836 680 c 0,18,19
 836 765 836 765 829.5 835.5 c 128,-1,20
 823 906 823 906 803.5 979.5 c 128,-1,21
 784 1053 784 1053 752 1103 c 128,-1,22
 720 1153 720 1153 664.5 1185 c 128,-1,23
 609 1217 609 1217 535 1217 c 0,24,25
 466 1217 466 1217 362 1206 c 1,26,-1
 362 135 l 1,9,10
547 -111 m 128,-1,28
 615 -111 615 -111 656.5 -144 c 128,-1,29
 698 -177 698 -177 698 -238 c 0,30,31
 698 -301 698 -301 654 -335 c 128,-1,32
 610 -369 610 -369 541 -369 c 0,33,34
 474 -369 474 -369 432.5 -336 c 128,-1,35
 391 -303 391 -303 391 -242 c 0,36,37
 391 -179 391 -179 435 -145 c 128,-1,27
 479 -111 479 -111 547 -111 c 128,-1,28
EndSplineSet
Validated: 1
Position2: "'cpsp' Capital Spacing lookup 3 subtable" dx=10 dy=0 dh=20 dv=0
EndChar

StartChar: Dz
Encoding: 498 498 28
Width: 1933
Flags: MW
HStem: -20 143<475 651 475 716> 0 145 892 153 924 121<1210 1898> 1217 143<506 663>
VStem: 123 240<135 135 135 1206> 836 250<527 809>
LayerCount: 2
Fore
SplineSet
123 1343 m 1,0,1
 380 1360 380 1360 549 1360 c 0,2,3
 1085 1360 1085 1360 1085 709 c 0,4,5
 1085 -20 1085 -20 500 -20 c 0,6,7
 328 -20 328 -20 123 10 c 1,8,-1
 123 1343 l 1,0,1
362 135 m 1,9,10
 436 123 436 123 500 123 c 128,-1,11
 564 123 564 123 614 138.5 c 128,-1,12
 664 154 664 154 699 179.5 c 128,-1,13
 734 205 734 205 759.5 246.5 c 128,-1,14
 785 288 785 288 799.5 332 c 128,-1,15
 814 376 814 376 822.5 437 c 128,-1,16
 831 498 831 498 833.5 552.5 c 128,-1,17
 836 607 836 607 836 680 c 0,18,19
 836 765 836 765 829.5 835.5 c 128,-1,20
 823 906 823 906 803.5 979.5 c 128,-1,21
 784 1053 784 1053 752 1103 c 128,-1,22
 720 1153 720 1153 664.5 1185 c 128,-1,23
 609 1217 609 1217 535 1217 c 0,24,25
 466 1217 466 1217 362 1206 c 1,26,-1
 362 135 l 1,9,10
1898 924 m 1,27,-1
 1419 137 l 1,28,-1
 1913 154 l 1,29,-1
 1898 0 l 1,30,-1
 1190 0 l 1,31,-1
 1176 125 l 1,32,-1
 1649 905 l 1,33,-1
 1194 879 l 1,34,-1
 1210 1044 l 1,35,-1
 1884 1044 l 1,36,-1
 1898 924 l 1,27,-1
EndSplineSet
Validated: 1
Position2: "'cpsp' Capital Spacing lookup 3 subtable" dx=10 dy=0 dh=20 dv=0
EndChar

StartChar: Dzcaron
Encoding: 453 453 29
Width: 1933
Flags: MW
HStem: -20 143<475 651 475 716> 0 145 892 153 924 121<1210 1898> 1217 143<506 663> 1329 41G<1233 1233 1841 1841> 1401 41G<1292 1292 1782 1782>
VStem: 123 240<135 135 135 1206> 836 250<527 809>
LayerCount: 2
Fore
SplineSet
1841 1370 m 1,0,-1
 1544 1141 l 1,1,-1
 1538 1141 l 1,2,-1
 1233 1370 l 1,3,-1
 1292 1442 l 1,4,-1
 1538 1313 l 1,5,-1
 1782 1442 l 1,6,-1
 1841 1370 l 1,0,-1
123 1343 m 1,7,8
 380 1360 380 1360 549 1360 c 0,9,10
 1085 1360 1085 1360 1085 709 c 0,11,12
 1085 -20 1085 -20 500 -20 c 0,13,14
 328 -20 328 -20 123 10 c 1,15,-1
 123 1343 l 1,7,8
362 135 m 1,16,17
 436 123 436 123 500 123 c 128,-1,18
 564 123 564 123 614 138.5 c 128,-1,19
 664 154 664 154 699 179.5 c 128,-1,20
 734 205 734 205 759.5 246.5 c 128,-1,21
 785 288 785 288 799.5 332 c 128,-1,22
 814 376 814 376 822.5 437 c 128,-1,23
 831 498 831 498 833.5 552.5 c 128,-1,24
 836 607 836 607 836 680 c 0,25,26
 836 765 836 765 829.5 835.5 c 128,-1,27
 823 906 823 906 803.5 979.5 c 128,-1,28
 784 1053 784 1053 752 1103 c 128,-1,29
 720 1153 720 1153 664.5 1185 c 128,-1,30
 609 1217 609 1217 535 1217 c 0,31,32
 466 1217 466 1217 362 1206 c 1,33,-1
 362 135 l 1,16,17
1898 924 m 1,34,-1
 1419 137 l 1,35,-1
 1913 154 l 1,36,-1
 1898 0 l 1,37,-1
 1190 0 l 1,38,-1
 1176 125 l 1,39,-1
 1649 905 l 1,40,-1
 1194 879 l 1,41,-1
 1210 1044 l 1,42,-1
 1884 1044 l 1,43,-1
 1898 924 l 1,34,-1
EndSplineSet
Validated: 1
Position2: "'cpsp' Capital Spacing lookup 3 subtable" dx=10 dy=0 dh=20 dv=0
EndChar

StartChar: E
Encoding: 69 69 30
Width: 897
Flags: MW
HStem: 0 152<362 823> 618 152<362 748 362 748> 1200 152<362 809 362 362>
VStem: 123 240<152 618 770 1200>
LayerCount: 2
Fore
SplineSet
809 1200 m 1,0,-1
 362 1200 l 1,1,-1
 362 770 l 1,2,-1
 748 770 l 1,3,-1
 748 618 l 1,4,-1
 362 618 l 1,5,-1
 362 152 l 1,6,-1
 838 152 l 1,7,-1
 823 0 l 1,8,-1
 123 0 l 1,9,-1
 123 1352 l 1,10,-1
 809 1352 l 1,11,-1
 809 1200 l 1,0,-1
EndSplineSet
Validated: 1
Position2: "'cpsp' Capital Spacing lookup 3 subtable" dx=10 dy=0 dh=20 dv=0
EndChar

StartChar: Eacute
Encoding: 201 201 31
Width: 897
Flags: MW
HStem: 0 152<362 823> 618 152<362 748 362 748> 1200 152<362 362 362 809>
VStem: 123 240<152 618 770 1200>
LayerCount: 2
Fore
SplineSet
743 1714 m 1,0,1
 803 1671 803 1671 803 1610 c 0,2,3
 803 1571 803 1571 784 1544.5 c 128,-1,4
 765 1518 765 1518 728.5 1504.5 c 128,-1,5
 692 1491 692 1491 658 1485 c 128,-1,6
 624 1479 624 1479 575 1475 c 2,7,-1
 332 1456 l 1,8,-1
 309 1542 l 1,9,-1
 743 1714 l 1,0,1
362 1200 m 1,10,-1
 362 770 l 1,11,-1
 748 770 l 1,12,-1
 748 618 l 1,13,-1
 362 618 l 1,14,-1
 362 152 l 1,15,-1
 838 152 l 1,16,-1
 823 0 l 1,17,-1
 123 0 l 1,18,-1
 123 1352 l 1,19,-1
 809 1352 l 1,20,-1
 809 1200 l 1,21,-1
 362 1200 l 1,10,-1
EndSplineSet
Validated: 1
Position2: "'cpsp' Capital Spacing lookup 3 subtable" dx=10 dy=0 dh=20 dv=0
EndChar

StartChar: Ebreve
Encoding: 276 276 32
Width: 897
Flags: MW
HStem: 0 152<362 823> 618 152<362 748 362 748> 1200 152<362 362 362 809> 1403 106<417 513 417 556>
VStem: 123 240<152 618 770 1200> 158 186<1637 1686 1637 1686> 586 188<1637 1686>
LayerCount: 2
Fore
SplineSet
774 1686 m 1,0,1
 774 1553 774 1553 689 1478 c 128,-1,2
 604 1403 604 1403 465 1403 c 128,-1,3
 326 1403 326 1403 242 1478 c 128,-1,4
 158 1553 158 1553 158 1686 c 1,5,-1
 344 1686 l 1,6,7
 344 1509 344 1509 465 1509 c 128,-1,8
 586 1509 586 1509 586 1686 c 1,9,-1
 774 1686 l 1,0,1
362 1200 m 1,10,-1
 362 770 l 1,11,-1
 748 770 l 1,12,-1
 748 618 l 1,13,-1
 362 618 l 1,14,-1
 362 152 l 1,15,-1
 838 152 l 1,16,-1
 823 0 l 1,17,-1
 123 0 l 1,18,-1
 123 1352 l 1,19,-1
 809 1352 l 1,20,-1
 809 1200 l 1,21,-1
 362 1200 l 1,10,-1
EndSplineSet
Validated: 1
Position2: "'cpsp' Capital Spacing lookup 3 subtable" dx=10 dy=0 dh=20 dv=0
EndChar

StartChar: Ecaron
Encoding: 282 282 33
Width: 897
Flags: MW
HStem: 0 152<362 823> 618 152<362 748 362 748> 1200 152<362 362 362 809>
VStem: 123 240<152 618 770 1200>
LayerCount: 2
Fore
SplineSet
766 1636 m 1,0,-1
 469 1407 l 1,1,-1
 463 1407 l 1,2,-1
 158 1636 l 1,3,-1
 217 1708 l 1,4,-1
 463 1579 l 1,5,-1
 707 1708 l 1,6,-1
 766 1636 l 1,0,-1
362 1200 m 1,7,-1
 362 770 l 1,8,-1
 748 770 l 1,9,-1
 748 618 l 1,10,-1
 362 618 l 1,11,-1
 362 152 l 1,12,-1
 838 152 l 1,13,-1
 823 0 l 1,14,-1
 123 0 l 1,15,-1
 123 1352 l 1,16,-1
 809 1352 l 1,17,-1
 809 1200 l 1,18,-1
 362 1200 l 1,7,-1
EndSplineSet
Validated: 1
Position2: "'cpsp' Capital Spacing lookup 3 subtable" dx=10 dy=0 dh=20 dv=0
EndChar

StartChar: Ecircumflex
Encoding: 202 202 34
Width: 897
Flags: MW
HStem: 0 152<362 823> 618 152<362 748 362 748> 1200 152<362 362 362 809> 1401 41G<164 164 774 774>
VStem: 123 240<152 618 770 1200> 713 96<1200 1370>
LayerCount: 2
Fore
SplineSet
164 1442 m 1,0,-1
 461 1712 l 1,1,-1
 469 1712 l 1,2,-1
 774 1442 l 1,3,-1
 713 1370 l 1,4,-1
 467 1520 l 1,5,-1
 223 1370 l 1,6,-1
 164 1442 l 1,0,-1
362 1200 m 1,7,-1
 362 770 l 1,8,-1
 748 770 l 1,9,-1
 748 618 l 1,10,-1
 362 618 l 1,11,-1
 362 152 l 1,12,-1
 838 152 l 1,13,-1
 823 0 l 1,14,-1
 123 0 l 1,15,-1
 123 1352 l 1,16,-1
 809 1352 l 1,17,-1
 809 1200 l 1,18,-1
 362 1200 l 1,7,-1
EndSplineSet
Validated: 1
Position2: "'cpsp' Capital Spacing lookup 3 subtable" dx=10 dy=0 dh=20 dv=0
EndChar

StartChar: Edieresis
Encoding: 203 203 35
Width: 897
Flags: MW
HStem: 0 152<362 823> 618 152<362 748 362 748> 1200 152<362 362 362 809> 1454 258<221 302 629 710>
VStem: 109 307<1541 1625> 123 240<152 618 770 1200> 516 307<1541 1625>
LayerCount: 2
Fore
SplineSet
264 1712 m 128,-1,1
 332 1712 332 1712 374 1679 c 128,-1,2
 416 1646 416 1646 416 1585 c 0,3,4
 416 1522 416 1522 371.5 1488 c 128,-1,5
 327 1454 327 1454 258 1454 c 0,6,7
 191 1454 191 1454 150 1487 c 128,-1,8
 109 1520 109 1520 109 1581 c 0,9,10
 109 1644 109 1644 152.5 1678 c 128,-1,0
 196 1712 196 1712 264 1712 c 128,-1,1
672 1712 m 128,-1,12
 740 1712 740 1712 781.5 1679 c 128,-1,13
 823 1646 823 1646 823 1585 c 0,14,15
 823 1522 823 1522 779 1488 c 128,-1,16
 735 1454 735 1454 666 1454 c 0,17,18
 599 1454 599 1454 557.5 1487 c 128,-1,19
 516 1520 516 1520 516 1581 c 0,20,21
 516 1644 516 1644 560 1678 c 128,-1,11
 604 1712 604 1712 672 1712 c 128,-1,12
362 1200 m 1,22,-1
 362 770 l 1,23,-1
 748 770 l 1,24,-1
 748 618 l 1,25,-1
 362 618 l 1,26,-1
 362 152 l 1,27,-1
 838 152 l 1,28,-1
 823 0 l 1,29,-1
 123 0 l 1,30,-1
 123 1352 l 1,31,-1
 809 1352 l 1,32,-1
 809 1200 l 1,33,-1
 362 1200 l 1,22,-1
EndSplineSet
Validated: 1
Position2: "'cpsp' Capital Spacing lookup 3 subtable" dx=10 dy=0 dh=20 dv=0
EndChar

StartChar: Edotaccent
Encoding: 278 278 36
Width: 897
Flags: MW
HStem: 0 152<362 823> 618 152<362 748 362 748> 1200 152<362 362 362 809> 1454 258<438 519>
VStem: 123 240<152 618 770 1200> 326 307<1541 1625>
LayerCount: 2
Fore
SplineSet
481 1712 m 128,-1,1
 549 1712 549 1712 591 1679 c 128,-1,2
 633 1646 633 1646 633 1585 c 0,3,4
 633 1522 633 1522 588.5 1488 c 128,-1,5
 544 1454 544 1454 475 1454 c 0,6,7
 408 1454 408 1454 367 1487 c 128,-1,8
 326 1520 326 1520 326 1581 c 0,9,10
 326 1644 326 1644 369.5 1678 c 128,-1,0
 413 1712 413 1712 481 1712 c 128,-1,1
362 1200 m 1,11,-1
 362 770 l 1,12,-1
 748 770 l 1,13,-1
 748 618 l 1,14,-1
 362 618 l 1,15,-1
 362 152 l 1,16,-1
 838 152 l 1,17,-1
 823 0 l 1,18,-1
 123 0 l 1,19,-1
 123 1352 l 1,20,-1
 809 1352 l 1,21,-1
 809 1200 l 1,22,-1
 362 1200 l 1,11,-1
EndSplineSet
Validated: 1
Position2: "'cpsp' Capital Spacing lookup 3 subtable" dx=10 dy=0 dh=20 dv=0
EndChar

StartChar: Edotbelow
Encoding: 7864 7864 37
Width: 897
Flags: MW
HStem: -369 258<379 460> 0 152<362 823> 618 152<362 748 362 748> 1200 152<362 362 362 809>
VStem: 123 240<152 618 770 1200> 266 307<-282 -198>
LayerCount: 2
Fore
SplineSet
362 1200 m 1,0,-1
 362 770 l 1,1,-1
 748 770 l 1,2,-1
 748 618 l 1,3,-1
 362 618 l 1,4,-1
 362 152 l 1,5,-1
 838 152 l 1,6,-1
 823 0 l 1,7,-1
 123 0 l 1,8,-1
 123 1352 l 1,9,-1
 809 1352 l 1,10,-1
 809 1200 l 1,11,-1
 362 1200 l 1,0,-1
422 -111 m 128,-1,13
 490 -111 490 -111 531.5 -144 c 128,-1,14
 573 -177 573 -177 573 -238 c 0,15,16
 573 -301 573 -301 529 -335 c 128,-1,17
 485 -369 485 -369 416 -369 c 0,18,19
 349 -369 349 -369 307.5 -336 c 128,-1,20
 266 -303 266 -303 266 -242 c 0,21,22
 266 -179 266 -179 310 -145 c 128,-1,12
 354 -111 354 -111 422 -111 c 128,-1,13
EndSplineSet
Validated: 1
Position2: "'cpsp' Capital Spacing lookup 3 subtable" dx=10 dy=0 dh=20 dv=0
EndChar

StartChar: Egrave
Encoding: 200 200 38
Width: 897
Flags: MW
HStem: 0 152<362 823> 618 152<362 748 362 748> 1200 152<362 362 362 809>
VStem: 123 240<152 618 770 1200>
LayerCount: 2
Fore
SplineSet
354 1475 m 2,0,1
 305 1479 305 1479 271.5 1485 c 128,-1,2
 238 1491 238 1491 202 1504.5 c 128,-1,3
 166 1518 166 1518 147.5 1544.5 c 128,-1,4
 129 1571 129 1571 129 1610 c 0,5,6
 129 1673 129 1673 186 1714 c 1,7,-1
 623 1542 l 1,8,-1
 600 1456 l 1,9,-1
 354 1475 l 2,0,1
362 1200 m 1,10,-1
 362 770 l 1,11,-1
 748 770 l 1,12,-1
 748 618 l 1,13,-1
 362 618 l 1,14,-1
 362 152 l 1,15,-1
 838 152 l 1,16,-1
 823 0 l 1,17,-1
 123 0 l 1,18,-1
 123 1352 l 1,19,-1
 809 1352 l 1,20,-1
 809 1200 l 1,21,-1
 362 1200 l 1,10,-1
EndSplineSet
Validated: 1
Position2: "'cpsp' Capital Spacing lookup 3 subtable" dx=10 dy=0 dh=20 dv=0
EndChar

StartChar: Emacron
Encoding: 274 274 39
Width: 897
Flags: MW
HStem: 0 152<362 823> 618 152<362 748 362 748> 1200 152<362 362 362 809> 1425 168<309 649 219 752>
VStem: 123 240<152 618 770 1200>
LayerCount: 2
Fore
SplineSet
752 1593 m 1,0,1
 768 1553 768 1553 768 1516 c 0,2,3
 768 1473 768 1473 738.5 1449 c 128,-1,4
 709 1425 709 1425 649 1425 c 2,5,-1
 219 1425 l 1,6,7
 205 1456 205 1456 205 1499 c 0,8,9
 205 1543 205 1543 232.5 1568 c 128,-1,10
 260 1593 260 1593 309 1593 c 2,11,-1
 752 1593 l 1,0,1
362 1200 m 1,12,-1
 362 770 l 1,13,-1
 748 770 l 1,14,-1
 748 618 l 1,15,-1
 362 618 l 1,16,-1
 362 152 l 1,17,-1
 838 152 l 1,18,-1
 823 0 l 1,19,-1
 123 0 l 1,20,-1
 123 1352 l 1,21,-1
 809 1352 l 1,22,-1
 809 1200 l 1,23,-1
 362 1200 l 1,12,-1
EndSplineSet
Validated: 1
Position2: "'cpsp' Capital Spacing lookup 3 subtable" dx=10 dy=0 dh=20 dv=0
EndChar

StartChar: Eogonek
Encoding: 280 280 40
Width: 897
Flags: MW
HStem: -504 119<734 770> 0 152<362 676 801 823 801 801> 618 152<362 748 362 748> 1200 152<362 809 362 362>
VStem: 123 240<152 618 770 1200> 512 152<-305 -233> 874 23
LayerCount: 2
Fore
SplineSet
801 0 m 1,0,1
 738 -56 738 -56 701 -125 c 128,-1,2
 664 -194 664 -194 664 -266 c 0,3,4
 664 -327 664 -327 689 -356 c 128,-1,5
 714 -385 714 -385 778 -385 c 0,6,7
 837 -385 837 -385 874 -342 c 1,8,9
 897 -362 897 -362 897 -393 c 0,10,11
 897 -450 897 -450 848 -477 c 128,-1,12
 799 -504 799 -504 729 -504 c 0,13,14
 626 -504 626 -504 569 -449 c 128,-1,15
 512 -394 512 -394 512 -293 c 0,16,17
 512 -208 512 -208 556.5 -132.5 c 128,-1,18
 601 -57 601 -57 676 0 c 1,19,-1
 123 0 l 1,20,-1
 123 1352 l 1,21,-1
 809 1352 l 1,22,-1
 809 1200 l 1,23,-1
 362 1200 l 1,24,-1
 362 770 l 1,25,-1
 748 770 l 1,26,-1
 748 618 l 1,27,-1
 362 618 l 1,28,-1
 362 152 l 1,29,-1
 838 152 l 1,30,-1
 825 23 l 1,31,-1
 827 20 l 1,32,-1
 825 18 l 1,33,-1
 823 0 l 1,34,-1
 801 0 l 1,0,1
EndSplineSet
Validated: 1
Position2: "'cpsp' Capital Spacing lookup 3 subtable" dx=10 dy=0 dh=20 dv=0
EndChar

StartChar: Etilde
Encoding: 7868 7868 41
Width: 897
Flags: MW
HStem: 0 152<362 823> 618 152<362 748 362 748> 1200 152<362 362 362 809> 1475 174<606 630 571 686> 1524 174<302 327 246 360>
VStem: 123 240<152 618 770 1200>
LayerCount: 2
Fore
SplineSet
721 1679 m 1,0,1
 776 1643 776 1643 776 1575 c 0,2,3
 776 1525 776 1525 741.5 1500 c 128,-1,4
 707 1475 707 1475 651 1475 c 0,5,6
 605 1475 605 1475 482 1499.5 c 128,-1,7
 359 1524 359 1524 319 1524 c 0,8,9
 244 1524 244 1524 211 1493 c 1,10,11
 156 1529 156 1529 156 1597 c 0,12,13
 156 1647 156 1647 190.5 1672.5 c 128,-1,14
 225 1698 225 1698 281 1698 c 0,15,16
 328 1698 328 1698 450 1673.5 c 128,-1,17
 572 1649 572 1649 612 1649 c 0,18,19
 689 1649 689 1649 721 1679 c 1,0,1
362 1200 m 1,20,-1
 362 770 l 1,21,-1
 748 770 l 1,22,-1
 748 618 l 1,23,-1
 362 618 l 1,24,-1
 362 152 l 1,25,-1
 838 152 l 1,26,-1
 823 0 l 1,27,-1
 123 0 l 1,28,-1
 123 1352 l 1,29,-1
 809 1352 l 1,30,-1
 809 1200 l 1,31,-1
 362 1200 l 1,20,-1
EndSplineSet
Validated: 1
Position2: "'cpsp' Capital Spacing lookup 3 subtable" dx=10 dy=0 dh=20 dv=0
EndChar

StartChar: F
Encoding: 70 70 42
Width: 854
Flags: MW
HStem: 590 152<362 748 362 748> 1200 152<362 809 362 362>
VStem: 123 240<0 590 741 1200>
LayerCount: 2
Fore
SplineSet
809 1200 m 1,0,-1
 362 1200 l 1,1,-1
 362 741 l 1,2,-1
 748 741 l 1,3,-1
 748 590 l 1,4,-1
 362 590 l 1,5,-1
 362 0 l 1,6,-1
 123 0 l 1,7,-1
 123 1352 l 1,8,-1
 809 1352 l 1,9,-1
 809 1200 l 1,0,-1
EndSplineSet
Validated: 1
Position2: "'cpsp' Capital Spacing lookup 3 subtable" dx=10 dy=0 dh=20 dv=0
EndChar

StartChar: G
Encoding: 71 71 43
Width: 1118
Flags: MW
HStem: -45 160<487 647 487 669> 1249 143<483 665>
VStem: 70 258<551 804 551 874> 782 250<1049 1121> 788 219
LayerCount: 2
Fore
SplineSet
1008 39 m 1,0,1
 934 0 934 0 819.5 -22.5 c 128,-1,2
 705 -45 705 -45 610 -45 c 0,3,4
 489 -45 489 -45 396 -10 c 128,-1,5
 303 25 303 25 242 87 c 128,-1,6
 181 149 181 149 142 240 c 128,-1,7
 103 331 103 331 86.5 436 c 128,-1,8
 70 541 70 541 70 670 c 0,9,10
 70 830 70 830 99.5 957 c 128,-1,11
 129 1084 129 1084 192.5 1184 c 128,-1,12
 256 1284 256 1284 365.5 1338.5 c 128,-1,13
 475 1393 475 1393 625 1393 c 0,14,15
 711 1393 711 1393 782 1377 c 128,-1,16
 853 1361 853 1361 910.5 1327 c 128,-1,17
 968 1293 968 1293 1000 1233.5 c 128,-1,18
 1032 1174 1032 1174 1032 1094 c 0,19,20
 1032 1021 1032 1021 988.5 974.5 c 128,-1,21
 945 928 945 928 872 928 c 0,22,23
 804 928 804 928 766 961 c 1,24,25
 782 1007 782 1007 782 1063 c 0,26,27
 782 1152 782 1152 737.5 1200.5 c 128,-1,28
 693 1249 693 1249 606 1249 c 0,29,30
 547 1249 547 1249 500.5 1225 c 128,-1,31
 454 1201 454 1201 424.5 1156 c 128,-1,32
 395 1111 395 1111 375 1058.5 c 128,-1,33
 355 1006 355 1006 345 937 c 128,-1,34
 335 868 335 868 331.5 809 c 128,-1,35
 328 750 328 750 328 680 c 0,36,37
 328 618 328 618 330.5 567 c 128,-1,38
 333 516 333 516 340.5 456 c 128,-1,39
 348 396 348 396 360 349 c 128,-1,40
 372 302 372 302 394 256.5 c 128,-1,41
 416 211 416 211 446 181.5 c 128,-1,42
 476 152 476 152 519 133.5 c 128,-1,43
 562 115 562 115 616 115 c 0,44,45
 714 115 714 115 793 141 c 1,46,-1
 784 621 l 1,47,-1
 1008 649 l 1,48,-1
 1008 39 l 1,0,1
EndSplineSet
Validated: 1
Position2: "'cpsp' Capital Spacing lookup 3 subtable" dx=10 dy=0 dh=20 dv=0
EndChar

StartChar: Gbreve
Encoding: 286 286 44
Width: 1118
Flags: MW
HStem: -45 160<487 647 487 669> 1249 143<483 665> 1403 106<558 654 558 697>
VStem: 70 258<551 804 551 874> 299 186<1637 1686 1637 1686> 727 188<1637 1686> 782 250<1049 1121> 788 219
LayerCount: 2
Fore
SplineSet
915 1686 m 1,0,1
 915 1553 915 1553 830 1478 c 128,-1,2
 745 1403 745 1403 606 1403 c 128,-1,3
 467 1403 467 1403 383 1478 c 128,-1,4
 299 1553 299 1553 299 1686 c 1,5,-1
 485 1686 l 1,6,7
 485 1509 485 1509 606 1509 c 128,-1,8
 727 1509 727 1509 727 1686 c 1,9,-1
 915 1686 l 1,0,1
1008 39 m 1,10,11
 934 0 934 0 819.5 -22.5 c 128,-1,12
 705 -45 705 -45 610 -45 c 0,13,14
 489 -45 489 -45 396 -10 c 128,-1,15
 303 25 303 25 242 87 c 128,-1,16
 181 149 181 149 142 240 c 128,-1,17
 103 331 103 331 86.5 436 c 128,-1,18
 70 541 70 541 70 670 c 0,19,20
 70 830 70 830 99.5 957 c 128,-1,21
 129 1084 129 1084 192.5 1184 c 128,-1,22
 256 1284 256 1284 365.5 1338.5 c 128,-1,23
 475 1393 475 1393 625 1393 c 0,24,25
 711 1393 711 1393 782 1377 c 128,-1,26
 853 1361 853 1361 910.5 1327 c 128,-1,27
 968 1293 968 1293 1000 1233.5 c 128,-1,28
 1032 1174 1032 1174 1032 1094 c 0,29,30
 1032 1021 1032 1021 988.5 974.5 c 128,-1,31
 945 928 945 928 872 928 c 0,32,33
 804 928 804 928 766 961 c 1,34,35
 782 1007 782 1007 782 1063 c 0,36,37
 782 1152 782 1152 737.5 1200.5 c 128,-1,38
 693 1249 693 1249 606 1249 c 0,39,40
 547 1249 547 1249 500.5 1225 c 128,-1,41
 454 1201 454 1201 424.5 1156 c 128,-1,42
 395 1111 395 1111 375 1058.5 c 128,-1,43
 355 1006 355 1006 345 937 c 128,-1,44
 335 868 335 868 331.5 809 c 128,-1,45
 328 750 328 750 328 680 c 0,46,47
 328 618 328 618 330.5 567 c 128,-1,48
 333 516 333 516 340.5 456 c 128,-1,49
 348 396 348 396 360 349 c 128,-1,50
 372 302 372 302 394 256.5 c 128,-1,51
 416 211 416 211 446 181.5 c 128,-1,52
 476 152 476 152 519 133.5 c 128,-1,53
 562 115 562 115 616 115 c 0,54,55
 714 115 714 115 793 141 c 1,56,-1
 784 621 l 1,57,-1
 1008 649 l 1,58,-1
 1008 39 l 1,10,11
EndSplineSet
Validated: 1
Position2: "'cpsp' Capital Spacing lookup 3 subtable" dx=10 dy=0 dh=20 dv=0
EndChar

StartChar: Gcircumflex
Encoding: 284 284 45
Width: 1118
Flags: MW
HStem: -45 160<487 647 487 669> 1249 143<483 665> 1401 41G<303 303 913 913>
VStem: 70 258<551 804 551 874> 782 250<1049 1121> 788 219
LayerCount: 2
Fore
SplineSet
303 1442 m 1,0,-1
 600 1712 l 1,1,-1
 608 1712 l 1,2,-1
 913 1442 l 1,3,-1
 852 1370 l 1,4,-1
 606 1520 l 1,5,-1
 362 1370 l 1,6,-1
 303 1442 l 1,0,-1
1008 39 m 1,7,8
 934 0 934 0 819.5 -22.5 c 128,-1,9
 705 -45 705 -45 610 -45 c 0,10,11
 489 -45 489 -45 396 -10 c 128,-1,12
 303 25 303 25 242 87 c 128,-1,13
 181 149 181 149 142 240 c 128,-1,14
 103 331 103 331 86.5 436 c 128,-1,15
 70 541 70 541 70 670 c 0,16,17
 70 830 70 830 99.5 957 c 128,-1,18
 129 1084 129 1084 192.5 1184 c 128,-1,19
 256 1284 256 1284 365.5 1338.5 c 128,-1,20
 475 1393 475 1393 625 1393 c 0,21,22
 711 1393 711 1393 782 1377 c 128,-1,23
 853 1361 853 1361 910.5 1327 c 128,-1,24
 968 1293 968 1293 1000 1233.5 c 128,-1,25
 1032 1174 1032 1174 1032 1094 c 0,26,27
 1032 1021 1032 1021 988.5 974.5 c 128,-1,28
 945 928 945 928 872 928 c 0,29,30
 804 928 804 928 766 961 c 1,31,32
 782 1007 782 1007 782 1063 c 0,33,34
 782 1152 782 1152 737.5 1200.5 c 128,-1,35
 693 1249 693 1249 606 1249 c 0,36,37
 547 1249 547 1249 500.5 1225 c 128,-1,38
 454 1201 454 1201 424.5 1156 c 128,-1,39
 395 1111 395 1111 375 1058.5 c 128,-1,40
 355 1006 355 1006 345 937 c 128,-1,41
 335 868 335 868 331.5 809 c 128,-1,42
 328 750 328 750 328 680 c 0,43,44
 328 618 328 618 330.5 567 c 128,-1,45
 333 516 333 516 340.5 456 c 128,-1,46
 348 396 348 396 360 349 c 128,-1,47
 372 302 372 302 394 256.5 c 128,-1,48
 416 211 416 211 446 181.5 c 128,-1,49
 476 152 476 152 519 133.5 c 128,-1,50
 562 115 562 115 616 115 c 0,51,52
 714 115 714 115 793 141 c 1,53,-1
 784 621 l 1,54,-1
 1008 649 l 1,55,-1
 1008 39 l 1,7,8
EndSplineSet
Validated: 1
Position2: "'cpsp' Capital Spacing lookup 3 subtable" dx=10 dy=0 dh=20 dv=0
EndChar

StartChar: Gcommaaccent
Encoding: 290 290 46
Width: 1118
Flags: MW
HStem: -45 160<487 647 487 669> 1249 143<483 665>
VStem: 70 258<551 804 551 874> 584 209<-298 -233> 782 250<1049 1121> 788 219
LayerCount: 2
Fore
SplineSet
1008 39 m 1,0,1
 934 0 934 0 819.5 -22.5 c 128,-1,2
 705 -45 705 -45 610 -45 c 0,3,4
 489 -45 489 -45 396 -10 c 128,-1,5
 303 25 303 25 242 87 c 128,-1,6
 181 149 181 149 142 240 c 128,-1,7
 103 331 103 331 86.5 436 c 128,-1,8
 70 541 70 541 70 670 c 0,9,10
 70 830 70 830 99.5 957 c 128,-1,11
 129 1084 129 1084 192.5 1184 c 128,-1,12
 256 1284 256 1284 365.5 1338.5 c 128,-1,13
 475 1393 475 1393 625 1393 c 0,14,15
 711 1393 711 1393 782 1377 c 128,-1,16
 853 1361 853 1361 910.5 1327 c 128,-1,17
 968 1293 968 1293 1000 1233.5 c 128,-1,18
 1032 1174 1032 1174 1032 1094 c 0,19,20
 1032 1021 1032 1021 988.5 974.5 c 128,-1,21
 945 928 945 928 872 928 c 0,22,23
 804 928 804 928 766 961 c 1,24,25
 782 1007 782 1007 782 1063 c 0,26,27
 782 1152 782 1152 737.5 1200.5 c 128,-1,28
 693 1249 693 1249 606 1249 c 0,29,30
 547 1249 547 1249 500.5 1225 c 128,-1,31
 454 1201 454 1201 424.5 1156 c 128,-1,32
 395 1111 395 1111 375 1058.5 c 128,-1,33
 355 1006 355 1006 345 937 c 128,-1,34
 335 868 335 868 331.5 809 c 128,-1,35
 328 750 328 750 328 680 c 0,36,37
 328 618 328 618 330.5 567 c 128,-1,38
 333 516 333 516 340.5 456 c 128,-1,39
 348 396 348 396 360 349 c 128,-1,40
 372 302 372 302 394 256.5 c 128,-1,41
 416 211 416 211 446 181.5 c 128,-1,42
 476 152 476 152 519 133.5 c 128,-1,43
 562 115 562 115 616 115 c 0,44,45
 714 115 714 115 793 141 c 1,46,-1
 784 621 l 1,47,-1
 1008 649 l 1,48,-1
 1008 39 l 1,0,1
649 -102 m 0,49,50
 720 -102 720 -102 756.5 -142 c 128,-1,51
 793 -182 793 -182 793 -254 c 0,52,53
 793 -340 793 -340 731.5 -412.5 c 128,-1,54
 670 -485 670 -485 586 -485 c 0,55,56
 554 -485 554 -485 516 -473 c 1,57,58
 584 -373 584 -373 584 -260 c 0,59,60
 584 -185 584 -185 545 -127 c 1,61,62
 593 -102 593 -102 649 -102 c 0,49,50
EndSplineSet
Validated: 1
Position2: "'cpsp' Capital Spacing lookup 3 subtable" dx=10 dy=0 dh=20 dv=0
EndChar

StartChar: Gdotaccent
Encoding: 288 288 47
Width: 1118
Flags: MW
HStem: -45 160<487 647 487 669> 1249 143<483 665> 1483 258<557 638>
VStem: 70 258<551 804 551 874> 444 307<1570 1654> 782 250<1049 1121> 788 219
LayerCount: 2
Fore
SplineSet
600 1741 m 128,-1,1
 668 1741 668 1741 710 1708 c 128,-1,2
 752 1675 752 1675 752 1614 c 0,3,4
 752 1551 752 1551 707.5 1517 c 128,-1,5
 663 1483 663 1483 594 1483 c 0,6,7
 527 1483 527 1483 485.5 1516 c 128,-1,8
 444 1549 444 1549 444 1610 c 0,9,10
 444 1673 444 1673 488 1707 c 128,-1,0
 532 1741 532 1741 600 1741 c 128,-1,1
1008 39 m 1,11,12
 934 0 934 0 819.5 -22.5 c 128,-1,13
 705 -45 705 -45 610 -45 c 0,14,15
 489 -45 489 -45 396 -10 c 128,-1,16
 303 25 303 25 242 87 c 128,-1,17
 181 149 181 149 142 240 c 128,-1,18
 103 331 103 331 86.5 436 c 128,-1,19
 70 541 70 541 70 670 c 0,20,21
 70 830 70 830 99.5 957 c 128,-1,22
 129 1084 129 1084 192.5 1184 c 128,-1,23
 256 1284 256 1284 365.5 1338.5 c 128,-1,24
 475 1393 475 1393 625 1393 c 0,25,26
 711 1393 711 1393 782 1377 c 128,-1,27
 853 1361 853 1361 910.5 1327 c 128,-1,28
 968 1293 968 1293 1000 1233.5 c 128,-1,29
 1032 1174 1032 1174 1032 1094 c 0,30,31
 1032 1021 1032 1021 988.5 974.5 c 128,-1,32
 945 928 945 928 872 928 c 0,33,34
 804 928 804 928 766 961 c 1,35,36
 782 1007 782 1007 782 1063 c 0,37,38
 782 1152 782 1152 737.5 1200.5 c 128,-1,39
 693 1249 693 1249 606 1249 c 0,40,41
 547 1249 547 1249 500.5 1225 c 128,-1,42
 454 1201 454 1201 424.5 1156 c 128,-1,43
 395 1111 395 1111 375 1058.5 c 128,-1,44
 355 1006 355 1006 345 937 c 128,-1,45
 335 868 335 868 331.5 809 c 128,-1,46
 328 750 328 750 328 680 c 0,47,48
 328 618 328 618 330.5 567 c 128,-1,49
 333 516 333 516 340.5 456 c 128,-1,50
 348 396 348 396 360 349 c 128,-1,51
 372 302 372 302 394 256.5 c 128,-1,52
 416 211 416 211 446 181.5 c 128,-1,53
 476 152 476 152 519 133.5 c 128,-1,54
 562 115 562 115 616 115 c 0,55,56
 714 115 714 115 793 141 c 1,57,-1
 784 621 l 1,58,-1
 1008 649 l 1,59,-1
 1008 39 l 1,11,12
EndSplineSet
Validated: 1
Position2: "'cpsp' Capital Spacing lookup 3 subtable" dx=10 dy=0 dh=20 dv=0
EndChar

StartChar: H
Encoding: 72 72 48
Width: 1183
Flags: MW
HStem: 608 152<362 821 362 821> 1311 41G<123 362 362 362 821 1061 1061 1061>
VStem: 123 240<0 608 0 760 760 1352> 821 240<0 608 608 608 760 1352>
LayerCount: 2
Fore
SplineSet
1061 0 m 1,0,-1
 821 0 l 1,1,-1
 821 608 l 1,2,-1
 362 608 l 1,3,-1
 362 0 l 1,4,-1
 123 0 l 1,5,-1
 123 1352 l 1,6,-1
 362 1352 l 1,7,-1
 362 760 l 1,8,-1
 821 760 l 1,9,-1
 821 1352 l 1,10,-1
 1061 1352 l 1,11,-1
 1061 0 l 1,0,-1
EndSplineSet
Validated: 1
Position2: "'cpsp' Capital Spacing lookup 3 subtable" dx=10 dy=0 dh=20 dv=0
EndChar

StartChar: Hbar
Encoding: 294 294 49
Width: 1204
Flags: MW
HStem: 608 152<373 831 373 831> 915 150<90 133 90 133 8 133 373 831 1071 1104> 915 436<8 373 8 373 133 373 133 831>
VStem: 133 240<0 608 0 760 760 915 1065 1352> 831 240<0 608 608 608 760 915 0 915 1065 1352>
LayerCount: 2
Fore
SplineSet
1198 1065 m 1,0,1
 1217 1022 1217 1022 1217 993 c 0,2,3
 1217 915 1217 915 1104 915 c 2,4,-1
 1071 915 l 1,5,-1
 1071 0 l 1,6,-1
 831 0 l 1,7,-1
 831 608 l 1,8,-1
 373 608 l 1,9,-1
 373 0 l 1,10,-1
 133 0 l 1,11,-1
 133 915 l 1,12,-1
 8 915 l 1,13,14
 -8 951 -8 951 -8 985 c 0,15,16
 -8 1065 -8 1065 90 1065 c 2,17,-1
 133 1065 l 1,18,-1
 133 1352 l 1,19,-1
 373 1352 l 1,20,-1
 373 1065 l 1,21,-1
 831 1065 l 1,22,-1
 831 1352 l 1,23,-1
 1071 1352 l 1,24,-1
 1071 1065 l 1,25,-1
 1198 1065 l 1,0,1
831 915 m 1,26,-1
 373 915 l 1,27,-1
 373 760 l 1,28,-1
 831 760 l 1,29,-1
 831 915 l 1,26,-1
EndSplineSet
Validated: 1
Position2: "'cpsp' Capital Spacing lookup 3 subtable" dx=10 dy=0 dh=20 dv=0
EndChar

StartChar: Hcircumflex
Encoding: 292 292 50
Width: 1183
Flags: MW
HStem: 608 152<362 821 362 821> 1311 41G<123 362 362 362 821 1061 1061 1061> 1401 41G<293 293 903 903>
VStem: 123 240<0 608 0 760 760 1352> 821 240<0 608 608 608 760 1352 0 1352>
LayerCount: 2
Fore
SplineSet
293 1442 m 1,0,-1
 590 1712 l 1,1,-1
 598 1712 l 1,2,-1
 903 1442 l 1,3,-1
 842 1370 l 1,4,-1
 596 1520 l 1,5,-1
 352 1370 l 1,6,-1
 293 1442 l 1,0,-1
821 0 m 1,7,-1
 821 608 l 1,8,-1
 362 608 l 1,9,-1
 362 0 l 1,10,-1
 123 0 l 1,11,-1
 123 1352 l 1,12,-1
 362 1352 l 1,13,-1
 362 760 l 1,14,-1
 821 760 l 1,15,-1
 821 1352 l 1,16,-1
 1061 1352 l 1,17,-1
 1061 0 l 1,18,-1
 821 0 l 1,7,-1
EndSplineSet
Validated: 1
Position2: "'cpsp' Capital Spacing lookup 3 subtable" dx=10 dy=0 dh=20 dv=0
EndChar

StartChar: Hdotbelow
Encoding: 7716 7716 51
Width: 1183
Flags: MW
HStem: -369 258<571 652> 608 152<362 821 362 821> 1311 41G<123 362 362 362 821 1061 1061 1061>
VStem: 123 240<0 608 0 760 760 1352> 459 307<-282 -198> 821 240<0 608 608 608 760 1352 0 1352>
LayerCount: 2
Fore
SplineSet
821 0 m 1,0,-1
 821 608 l 1,1,-1
 362 608 l 1,2,-1
 362 0 l 1,3,-1
 123 0 l 1,4,-1
 123 1352 l 1,5,-1
 362 1352 l 1,6,-1
 362 760 l 1,7,-1
 821 760 l 1,8,-1
 821 1352 l 1,9,-1
 1061 1352 l 1,10,-1
 1061 0 l 1,11,-1
 821 0 l 1,0,-1
614 -111 m 128,-1,13
 682 -111 682 -111 724 -144 c 128,-1,14
 766 -177 766 -177 766 -238 c 0,15,16
 766 -301 766 -301 721.5 -335 c 128,-1,17
 677 -369 677 -369 608 -369 c 0,18,19
 541 -369 541 -369 500 -336 c 128,-1,20
 459 -303 459 -303 459 -242 c 0,21,22
 459 -179 459 -179 502.5 -145 c 128,-1,12
 546 -111 546 -111 614 -111 c 128,-1,13
EndSplineSet
Validated: 1
Position2: "'cpsp' Capital Spacing lookup 3 subtable" dx=10 dy=0 dh=20 dv=0
EndChar

StartChar: I
Encoding: 73 73 52
Width: 485
Flags: MW
HStem: 1311 41G<123 362 362 362>
VStem: 123 240<0 1352>
LayerCount: 2
Fore
SplineSet
362 0 m 1,0,-1
 123 0 l 1,1,-1
 123 1352 l 1,2,-1
 362 1352 l 1,3,-1
 362 0 l 1,0,-1
EndSplineSet
Validated: 1
Position2: "'cpsp' Capital Spacing lookup 3 subtable" dx=10 dy=0 dh=20 dv=0
EndChar

StartChar: IJ
Encoding: 306 306 53
Width: 970
Flags: MW
HStem: -328 96<408 684> 1311 41G<123 362 362 362 608 848 848 848>
VStem: 123 240<0 1352 0 1352> 608 240<121 195 195 1352>
LayerCount: 2
Fore
SplineSet
123 0 m 1,0,-1
 123 1352 l 1,1,-1
 362 1352 l 1,2,-1
 362 0 l 1,3,-1
 123 0 l 1,0,-1
848 195 m 2,4,5
 848 127 848 127 844 69.5 c 128,-1,6
 840 12 840 12 829 -50.5 c 128,-1,7
 818 -113 818 -113 797 -160.5 c 128,-1,8
 776 -208 776 -208 745 -247 c 128,-1,9
 714 -286 714 -286 667 -307 c 128,-1,10
 620 -328 620 -328 559 -328 c 0,11,12
 499 -328 499 -328 453.5 -303.5 c 128,-1,13
 408 -279 408 -279 408 -231 c 1,14,15
 458 -231 458 -231 495.5 -210.5 c 128,-1,16
 533 -190 533 -190 554 -158 c 128,-1,17
 575 -126 575 -126 587.5 -77.5 c 128,-1,18
 600 -29 600 -29 604 17 c 128,-1,19
 608 63 608 63 608 121 c 2,20,-1
 608 1352 l 1,21,-1
 848 1352 l 1,22,-1
 848 195 l 2,4,5
EndSplineSet
Validated: 1
Position2: "'cpsp' Capital Spacing lookup 3 subtable" dx=10 dy=0 dh=20 dv=0
EndChar

StartChar: Iacute
Encoding: 205 205 54
Width: 485
Flags: MW
HStem: 1311 41G<123 362 362 362>
VStem: 123 240<0 1352 0 1352>
LayerCount: 2
Fore
SplineSet
520 1714 m 1,0,1
 580 1671 580 1671 580 1610 c 0,2,3
 580 1571 580 1571 561 1544.5 c 128,-1,4
 542 1518 542 1518 505.5 1504.5 c 128,-1,5
 469 1491 469 1491 435 1485 c 128,-1,6
 401 1479 401 1479 352 1475 c 2,7,-1
 109 1456 l 1,8,-1
 86 1542 l 1,9,-1
 520 1714 l 1,0,1
123 0 m 1,10,-1
 123 1352 l 1,11,-1
 362 1352 l 1,12,-1
 362 0 l 1,13,-1
 123 0 l 1,10,-1
EndSplineSet
Validated: 1
Position2: "'cpsp' Capital Spacing lookup 3 subtable" dx=10 dy=0 dh=20 dv=0
EndChar

StartChar: Ibreve
Encoding: 300 300 55
Width: 485
Flags: MW
HStem: 1311 41G<123 362 362 362> 1403 106<194 290 194 333>
VStem: -66 186<1637 1686 1637 1686> 123 240<0 1352 0 1352> 362 188<1637 1686>
LayerCount: 2
Fore
SplineSet
551 1686 m 1,0,1
 551 1553 551 1553 466 1478 c 128,-1,2
 381 1403 381 1403 242 1403 c 128,-1,3
 103 1403 103 1403 18.5 1478 c 128,-1,4
 -66 1553 -66 1553 -66 1686 c 1,5,-1
 121 1686 l 1,6,7
 121 1509 121 1509 242 1509 c 0,8,9
 362 1509 362 1509 362 1686 c 1,10,-1
 551 1686 l 1,0,1
123 0 m 1,11,-1
 123 1352 l 1,12,-1
 362 1352 l 1,13,-1
 362 0 l 1,14,-1
 123 0 l 1,11,-1
EndSplineSet
Validated: 1
Position2: "'cpsp' Capital Spacing lookup 3 subtable" dx=10 dy=0 dh=20 dv=0
EndChar

StartChar: Icircumflex
Encoding: 206 206 56
Width: 485
Flags: MW
HStem: 1311 41G<123 362 362 362> 1401 41G<-59 -59 551 551>
VStem: 123 240<0 1352 0 1352>
LayerCount: 2
Fore
SplineSet
-59 1442 m 1,0,-1
 238 1712 l 1,1,-1
 246 1712 l 1,2,-1
 551 1442 l 1,3,-1
 489 1370 l 1,4,-1
 244 1520 l 1,5,-1
 0 1370 l 1,6,-1
 -59 1442 l 1,0,-1
123 0 m 1,7,-1
 123 1352 l 1,8,-1
 362 1352 l 1,9,-1
 362 0 l 1,10,-1
 123 0 l 1,7,-1
EndSplineSet
Validated: 1
Position2: "'cpsp' Capital Spacing lookup 3 subtable" dx=10 dy=0 dh=20 dv=0
EndChar

StartChar: Idieresis
Encoding: 207 207 57
Width: 485
Flags: MW
HStem: 1311 41G<123 362 362 362> 1454 258<-2 79 406 486>
VStem: -115 307<1541 1625> 123 240<0 1352 0 1352> 293 307<1541 1625>
LayerCount: 2
Fore
SplineSet
41 1712 m 128,-1,1
 109 1712 109 1712 151 1679 c 128,-1,2
 193 1646 193 1646 193 1585 c 0,3,4
 193 1522 193 1522 148.5 1488 c 128,-1,5
 104 1454 104 1454 35 1454 c 0,6,7
 -32 1454 -32 1454 -73.5 1487 c 128,-1,8
 -115 1520 -115 1520 -115 1581 c 0,9,10
 -115 1644 -115 1644 -71 1678 c 128,-1,0
 -27 1712 -27 1712 41 1712 c 128,-1,1
449 1712 m 128,-1,12
 517 1712 517 1712 558.5 1679 c 128,-1,13
 600 1646 600 1646 600 1585 c 0,14,15
 600 1522 600 1522 555.5 1488 c 128,-1,16
 511 1454 511 1454 442 1454 c 0,17,18
 375 1454 375 1454 334 1487 c 128,-1,19
 293 1520 293 1520 293 1581 c 0,20,21
 293 1644 293 1644 337 1678 c 128,-1,11
 381 1712 381 1712 449 1712 c 128,-1,12
123 0 m 1,22,-1
 123 1352 l 1,23,-1
 362 1352 l 1,24,-1
 362 0 l 1,25,-1
 123 0 l 1,22,-1
EndSplineSet
Validated: 1
Position2: "'cpsp' Capital Spacing lookup 3 subtable" dx=10 dy=0 dh=20 dv=0
EndChar

StartChar: Idotaccent
Encoding: 304 304 58
Width: 485
Flags: MW
HStem: 1311 41G<123 362 362 362> 1483 258<199 280>
VStem: 123 240<0 1352 0 1352>
LayerCount: 2
Fore
SplineSet
242 1741 m 128,-1,1
 310 1741 310 1741 351.5 1708 c 128,-1,2
 393 1675 393 1675 393 1614 c 0,3,4
 393 1551 393 1551 349 1517 c 128,-1,5
 305 1483 305 1483 236 1483 c 0,6,7
 169 1483 169 1483 127.5 1516 c 128,-1,8
 86 1549 86 1549 86 1610 c 0,9,10
 86 1673 86 1673 130 1707 c 128,-1,0
 174 1741 174 1741 242 1741 c 128,-1,1
123 0 m 1,11,-1
 123 1352 l 1,12,-1
 362 1352 l 1,13,-1
 362 0 l 1,14,-1
 123 0 l 1,11,-1
EndSplineSet
Validated: 1
Position2: "'cpsp' Capital Spacing lookup 3 subtable" dx=10 dy=0 dh=20 dv=0
EndChar

StartChar: Idotbelow
Encoding: 7882 7882 59
Width: 485
Flags: MW
HStem: -369 258<195 275> 1311 41G<123 362 362 362>
VStem: 123 240<0 1352 0 1352>
LayerCount: 2
Fore
SplineSet
123 0 m 1,0,-1
 123 1352 l 1,1,-1
 362 1352 l 1,2,-1
 362 0 l 1,3,-1
 123 0 l 1,0,-1
238 -111 m 128,-1,5
 306 -111 306 -111 347.5 -144 c 128,-1,6
 389 -177 389 -177 389 -238 c 0,7,8
 389 -301 389 -301 344.5 -335 c 128,-1,9
 300 -369 300 -369 231 -369 c 0,10,11
 164 -369 164 -369 123 -336 c 128,-1,12
 82 -303 82 -303 82 -242 c 0,13,14
 82 -179 82 -179 126 -145 c 128,-1,4
 170 -111 170 -111 238 -111 c 128,-1,5
EndSplineSet
Validated: 1
Position2: "'cpsp' Capital Spacing lookup 3 subtable" dx=10 dy=0 dh=20 dv=0
EndChar

StartChar: Igrave
Encoding: 204 204 60
Width: 485
Flags: MW
HStem: 1311 41G<123 362 362 362>
VStem: 123 240<0 1352 0 1352>
LayerCount: 2
Fore
SplineSet
131 1475 m 2,0,1
 82 1479 82 1479 48.5 1485 c 128,-1,2
 15 1491 15 1491 -21 1504.5 c 128,-1,3
 -57 1518 -57 1518 -75.5 1544.5 c 128,-1,4
 -94 1571 -94 1571 -94 1610 c 0,5,6
 -94 1673 -94 1673 -37 1714 c 1,7,-1
 399 1542 l 1,8,-1
 377 1456 l 1,9,-1
 131 1475 l 2,0,1
123 0 m 1,10,-1
 123 1352 l 1,11,-1
 362 1352 l 1,12,-1
 362 0 l 1,13,-1
 123 0 l 1,10,-1
EndSplineSet
Validated: 1
Position2: "'cpsp' Capital Spacing lookup 3 subtable" dx=10 dy=0 dh=20 dv=0
EndChar

StartChar: Imacron
Encoding: 298 298 61
Width: 485
Flags: MW
HStem: 1311 41G<123 362 362 362> 1520 168<66 406 -25 508>
VStem: 123 240<0 1352 0 1352>
LayerCount: 2
Fore
SplineSet
508 1688 m 1,0,1
 524 1648 524 1648 524 1610 c 0,2,3
 524 1520 524 1520 406 1520 c 2,4,-1
 -25 1520 l 1,5,6
 -39 1552 -39 1552 -39 1593 c 0,7,8
 -39 1637 -39 1637 -11 1662.5 c 128,-1,9
 17 1688 17 1688 66 1688 c 2,10,-1
 508 1688 l 1,0,1
123 0 m 1,11,-1
 123 1352 l 1,12,-1
 362 1352 l 1,13,-1
 362 0 l 1,14,-1
 123 0 l 1,11,-1
EndSplineSet
Validated: 1
Position2: "'cpsp' Capital Spacing lookup 3 subtable" dx=10 dy=0 dh=20 dv=0
EndChar

StartChar: Iogonek
Encoding: 302 302 62
Width: 485
Flags: MW
HStem: -504 119<286 322> 0 20<352 379> 1311 41G<123 362 362 362>
VStem: 63 152<-305 -233> 123 240<0 8 33 1352> 426 23
LayerCount: 2
Fore
SplineSet
352 0 m 1,0,1
 289 -56 289 -56 252 -125 c 128,-1,2
 215 -194 215 -194 215 -266 c 0,3,4
 215 -327 215 -327 240.5 -356 c 128,-1,5
 266 -385 266 -385 330 -385 c 0,6,7
 389 -385 389 -385 426 -342 c 1,8,9
 449 -362 449 -362 449 -393 c 0,10,11
 449 -450 449 -450 400 -477 c 128,-1,12
 351 -504 351 -504 281 -504 c 0,13,14
 178 -504 178 -504 120.5 -449 c 128,-1,15
 63 -394 63 -394 63 -293 c 0,16,17
 63 -208 63 -208 107.5 -132.5 c 128,-1,18
 152 -57 152 -57 227 0 c 1,19,-1
 123 0 l 1,20,-1
 123 1352 l 1,21,-1
 362 1352 l 1,22,-1
 362 33 l 1,23,-1
 379 20 l 1,24,-1
 362 8 l 1,25,-1
 362 0 l 1,26,-1
 352 0 l 1,0,1
EndSplineSet
Validated: 1
Position2: "'cpsp' Capital Spacing lookup 3 subtable" dx=10 dy=0 dh=20 dv=0
EndChar

StartChar: Itilde
Encoding: 296 296 63
Width: 485
Flags: MW
HStem: 1311 41G<123 362 362 362> 1475 174<383 407 348 463> 1524 174<79 103 23 137>
VStem: 123 240<0 1352 0 1352>
LayerCount: 2
Fore
SplineSet
498 1679 m 1,0,1
 553 1643 553 1643 553 1575 c 0,2,3
 553 1525 553 1525 518.5 1500 c 128,-1,4
 484 1475 484 1475 428 1475 c 0,5,6
 382 1475 382 1475 259 1499.5 c 128,-1,7
 136 1524 136 1524 96 1524 c 0,8,9
 21 1524 21 1524 -12 1493 c 1,10,11
 -68 1530 -68 1530 -68 1597 c 0,12,13
 -68 1647 -68 1647 -33.5 1672.5 c 128,-1,14
 1 1698 1 1698 57 1698 c 0,15,16
 104 1698 104 1698 226.5 1673.5 c 128,-1,17
 349 1649 349 1649 389 1649 c 0,18,19
 466 1649 466 1649 498 1679 c 1,0,1
123 0 m 1,20,-1
 123 1352 l 1,21,-1
 362 1352 l 1,22,-1
 362 0 l 1,23,-1
 123 0 l 1,20,-1
EndSplineSet
Validated: 1
Position2: "'cpsp' Capital Spacing lookup 3 subtable" dx=10 dy=0 dh=20 dv=0
EndChar

StartChar: J
Encoding: 74 74 64
Width: 485
Flags: MW
HStem: -328 96<-78 199> 1311 41G<123 362 362 362>
VStem: 123 240<121 195 195 1352>
LayerCount: 2
Fore
SplineSet
362 195 m 2,0,1
 362 112 362 112 356.5 44.5 c 128,-1,2
 351 -23 351 -23 332.5 -95.5 c 128,-1,3
 314 -168 314 -168 283.5 -216.5 c 128,-1,4
 253 -265 253 -265 199.5 -296.5 c 128,-1,5
 146 -328 146 -328 74 -328 c 0,6,7
 14 -328 14 -328 -32 -303.5 c 128,-1,8
 -78 -279 -78 -279 -78 -231 c 1,9,10
 -16 -231 -16 -231 26 -202 c 128,-1,11
 68 -173 68 -173 88 -119 c 128,-1,12
 108 -65 108 -65 115.5 -9 c 128,-1,13
 123 47 123 47 123 121 c 2,14,-1
 123 1352 l 1,15,-1
 362 1352 l 1,16,-1
 362 195 l 2,0,1
EndSplineSet
Validated: 1
Position2: "'cpsp' Capital Spacing lookup 3 subtable" dx=10 dy=0 dh=20 dv=0
EndChar

StartChar: Jcircumflex
Encoding: 308 308 65
Width: 485
Flags: MW
HStem: -328 96<-78 199> 1311 41G<123 362 362 362> 1401 41G<-59 -59 551 551>
VStem: 123 240<121 195 195 1352>
LayerCount: 2
Fore
SplineSet
-59 1442 m 1,0,-1
 238 1712 l 1,1,-1
 246 1712 l 1,2,-1
 551 1442 l 1,3,-1
 489 1370 l 1,4,-1
 244 1520 l 1,5,-1
 0 1370 l 1,6,-1
 -59 1442 l 1,0,-1
362 195 m 2,7,8
 362 112 362 112 356.5 44.5 c 128,-1,9
 351 -23 351 -23 332.5 -95.5 c 128,-1,10
 314 -168 314 -168 283.5 -216.5 c 128,-1,11
 253 -265 253 -265 199.5 -296.5 c 128,-1,12
 146 -328 146 -328 74 -328 c 0,13,14
 14 -328 14 -328 -32 -303.5 c 128,-1,15
 -78 -279 -78 -279 -78 -231 c 1,16,17
 -16 -231 -16 -231 26 -202 c 128,-1,18
 68 -173 68 -173 88 -119 c 128,-1,19
 108 -65 108 -65 115.5 -9 c 128,-1,20
 123 47 123 47 123 121 c 2,21,-1
 123 1352 l 1,22,-1
 362 1352 l 1,23,-1
 362 195 l 2,7,8
EndSplineSet
Validated: 1
Position2: "'cpsp' Capital Spacing lookup 3 subtable" dx=10 dy=0 dh=20 dv=0
EndChar

StartChar: K
Encoding: 75 75 66
Width: 1013
Flags: MW
HStem: 1311 41G<123 362 362 362 780 1028 1028 1028>
VStem: 123 240<0 1352 0 1352>
LayerCount: 2
Fore
SplineSet
123 0 m 1,0,-1
 123 1352 l 1,1,-1
 362 1352 l 1,2,-1
 362 0 l 1,3,-1
 123 0 l 1,0,-1
1028 1352 m 1,4,-1
 635 723 l 1,5,-1
 1057 0 l 1,6,-1
 795 0 l 1,7,-1
 406 684 l 1,8,-1
 780 1352 l 1,9,-1
 1028 1352 l 1,4,-1
EndSplineSet
Validated: 1
Position2: "'cpsp' Capital Spacing lookup 3 subtable" dx=10 dy=0 dh=20 dv=0
EndChar

StartChar: Kcommaaccent
Encoding: 310 310 67
Width: 1013
Flags: MW
HStem: 1311 41G<123 362 362 362 780 1028 1028 1028>
VStem: 123 240<0 1352 0 1352> 510 209<-298 -233>
LayerCount: 2
Fore
SplineSet
123 1352 m 1,0,-1
 362 1352 l 1,1,-1
 362 0 l 1,2,-1
 123 0 l 1,3,-1
 123 1352 l 1,0,-1
635 723 m 1,4,-1
 1057 0 l 1,5,-1
 795 0 l 1,6,-1
 406 684 l 1,7,-1
 780 1352 l 1,8,-1
 1028 1352 l 1,9,-1
 635 723 l 1,4,-1
575 -102 m 0,10,11
 646 -102 646 -102 682.5 -142 c 128,-1,12
 719 -182 719 -182 719 -254 c 0,13,14
 719 -340 719 -340 657.5 -412.5 c 128,-1,15
 596 -485 596 -485 512 -485 c 0,16,17
 480 -485 480 -485 442 -473 c 1,18,19
 510 -373 510 -373 510 -260 c 0,20,21
 510 -185 510 -185 471 -127 c 1,22,23
 519 -102 519 -102 575 -102 c 0,10,11
EndSplineSet
Validated: 1
Position2: "'cpsp' Capital Spacing lookup 3 subtable" dx=10 dy=0 dh=20 dv=0
EndChar

StartChar: L
Encoding: 76 76 68
Width: 819
Flags: MW
HStem: 0 152<362 795> 1311 41G<123 362 362 362>
VStem: 123 240<152 1352 152 1352 152 1352>
LayerCount: 2
Fore
SplineSet
362 1352 m 1,0,-1
 362 152 l 1,1,-1
 809 152 l 1,2,-1
 795 0 l 1,3,-1
 123 0 l 1,4,-1
 123 1352 l 1,5,-1
 362 1352 l 1,0,-1
EndSplineSet
Validated: 1
Position2: "'cpsp' Capital Spacing lookup 3 subtable" dx=10 dy=0 dh=20 dv=0
EndChar

StartChar: LJ
Encoding: 455 455 69
Width: 1302
Flags: MW
HStem: -328 96<741 1018> 0 152<362 795> 1311 41G<123 362 362 362 942 1182 1182 1182>
VStem: 123 240<152 152 152 1352> 942 240<121 195 195 1352>
LayerCount: 2
Fore
SplineSet
362 152 m 1,0,-1
 809 152 l 1,1,-1
 795 0 l 1,2,-1
 123 0 l 1,3,-1
 123 1352 l 1,4,-1
 362 1352 l 1,5,-1
 362 152 l 1,0,-1
1182 195 m 2,6,7
 1182 127 1182 127 1178 69.5 c 128,-1,8
 1174 12 1174 12 1163 -50.5 c 128,-1,9
 1152 -113 1152 -113 1131 -160.5 c 128,-1,10
 1110 -208 1110 -208 1079 -247 c 128,-1,11
 1048 -286 1048 -286 1001 -307 c 128,-1,12
 954 -328 954 -328 893 -328 c 0,13,14
 833 -328 833 -328 787 -303.5 c 128,-1,15
 741 -279 741 -279 741 -231 c 1,16,17
 803 -231 803 -231 845 -202 c 128,-1,18
 887 -173 887 -173 907 -119 c 128,-1,19
 927 -65 927 -65 934.5 -9 c 128,-1,20
 942 47 942 47 942 121 c 2,21,-1
 942 1352 l 1,22,-1
 1182 1352 l 1,23,-1
 1182 195 l 2,6,7
EndSplineSet
Validated: 1
Position2: "'cpsp' Capital Spacing lookup 3 subtable" dx=10 dy=0 dh=20 dv=0
EndChar

StartChar: Lacute
Encoding: 313 313 70
Width: 819
Flags: MW
HStem: 0 152<362 795> 1311 41G<123 362 362 362>
VStem: 123 240<152 152 152 1352>
LayerCount: 2
Fore
SplineSet
522 1714 m 1,0,1
 582 1671 582 1671 582 1610 c 0,2,3
 582 1571 582 1571 563 1544.5 c 128,-1,4
 544 1518 544 1518 507.5 1504.5 c 128,-1,5
 471 1491 471 1491 437 1485 c 128,-1,6
 403 1479 403 1479 354 1475 c 2,7,-1
 111 1456 l 1,8,-1
 88 1542 l 1,9,-1
 522 1714 l 1,0,1
362 152 m 1,10,-1
 809 152 l 1,11,-1
 795 0 l 1,12,-1
 123 0 l 1,13,-1
 123 1352 l 1,14,-1
 362 1352 l 1,15,-1
 362 152 l 1,10,-1
EndSplineSet
Validated: 1
Position2: "'cpsp' Capital Spacing lookup 3 subtable" dx=10 dy=0 dh=20 dv=0
EndChar

StartChar: Lcaron
Encoding: 317 317 71
Width: 819
Flags: MW
HStem: 0 152<362 795> 1094 258<123 594> 1311 41G<123 362 362 362> 1434 41G<579 643>
VStem: 123 240<152 152 152 1352> 539 195<1274 1335>
LayerCount: 2
Fore
SplineSet
500 1450 m 1,0,1
 542 1475 542 1475 594 1475 c 0,2,3
 733 1475 733 1475 733 1315 c 0,4,5
 733 1233 733 1233 675.5 1163.5 c 128,-1,6
 618 1094 618 1094 541 1094 c 0,7,8
 503 1094 503 1094 473 1106 c 1,9,10
 539 1204 539 1204 539 1311 c 0,11,12
 539 1385 539 1385 500 1450 c 1,0,1
362 152 m 1,13,-1
 809 152 l 1,14,-1
 795 0 l 1,15,-1
 123 0 l 1,16,-1
 123 1352 l 1,17,-1
 362 1352 l 1,18,-1
 362 152 l 1,13,-1
EndSplineSet
Validated: 1
Position2: "'cpsp' Capital Spacing lookup 3 subtable" dx=10 dy=0 dh=20 dv=0
EndChar

StartChar: Lcommaaccent
Encoding: 315 315 72
Width: 819
Flags: MW
HStem: 0 152<362 795> 1311 41G<123 362 362 362>
VStem: 123 240<152 152 152 1352> 395 209<-298 -233>
LayerCount: 2
Fore
SplineSet
362 152 m 1,0,-1
 809 152 l 1,1,-1
 795 0 l 1,2,-1
 123 0 l 1,3,-1
 123 1352 l 1,4,-1
 362 1352 l 1,5,-1
 362 152 l 1,0,-1
461 -102 m 0,6,7
 532 -102 532 -102 568 -142 c 128,-1,8
 604 -182 604 -182 604 -254 c 0,9,10
 604 -340 604 -340 542.5 -412.5 c 128,-1,11
 481 -485 481 -485 397 -485 c 0,12,13
 366 -485 366 -485 328 -473 c 1,14,15
 395 -375 395 -375 395 -260 c 0,16,17
 395 -185 395 -185 356 -127 c 1,18,19
 404 -102 404 -102 461 -102 c 0,6,7
EndSplineSet
Validated: 1
Position2: "'cpsp' Capital Spacing lookup 3 subtable" dx=10 dy=0 dh=20 dv=0
EndChar

StartChar: Ldot
Encoding: 319 319 73
Width: 819
Flags: MW
HStem: 0 152<362 795> 594 238<597 654> 1311 41G<123 362 362 362>
VStem: 123 240<152 152 152 1352> 504 244<676 750>
LayerCount: 2
Fore
SplineSet
362 152 m 1,0,-1
 809 152 l 1,1,-1
 795 0 l 1,2,-1
 123 0 l 1,3,-1
 123 1352 l 1,4,-1
 362 1352 l 1,5,-1
 362 152 l 1,0,-1
629 831 m 0,6,7
 679 831 679 831 713.5 799.5 c 128,-1,8
 748 768 748 768 748 715 c 0,9,10
 748 659 748 659 710.5 626.5 c 128,-1,11
 673 594 673 594 623 594 c 0,12,13
 574 594 574 594 539 626 c 128,-1,14
 504 658 504 658 504 711 c 0,15,16
 504 767 504 767 541 799 c 128,-1,17
 578 831 578 831 629 831 c 0,6,7
EndSplineSet
Validated: 1
Ligature2: "Ligature Substitution lookup 20 subtable" L periodcentered
Position2: "'cpsp' Capital Spacing lookup 3 subtable" dx=10 dy=0 dh=20 dv=0
EndChar

StartChar: Lj
Encoding: 456 456 74
Width: 1323
Flags: MW
HStem: -410 90<760 1021> 0 152<362 795> 1004 41G<963 1190 1190 1190> 1217 258<1034 1115> 1311 41G<123 362 362 362>
VStem: 123 240<152 152 152 1352> 922 307<1304 1388> 963 227<14 72 72 1044>
LayerCount: 2
Fore
SplineSet
1077 1475 m 128,-1,1
 1145 1475 1145 1475 1187 1442 c 128,-1,2
 1229 1409 1229 1409 1229 1348 c 0,3,4
 1229 1285 1229 1285 1184.5 1251 c 128,-1,5
 1140 1217 1140 1217 1071 1217 c 0,6,7
 1004 1217 1004 1217 963 1249.5 c 128,-1,8
 922 1282 922 1282 922 1343 c 0,9,10
 922 1406 922 1406 965.5 1440.5 c 128,-1,0
 1009 1475 1009 1475 1077 1475 c 128,-1,1
362 152 m 1,11,-1
 809 152 l 1,12,-1
 795 0 l 1,13,-1
 123 0 l 1,14,-1
 123 1352 l 1,15,-1
 362 1352 l 1,16,-1
 362 152 l 1,11,-1
1190 72 m 2,17,18
 1190 -410 1190 -410 903 -410 c 0,19,20
 845 -410 845 -410 802.5 -387.5 c 128,-1,21
 760 -365 760 -365 760 -319 c 1,22,23
 963 -319 963 -319 963 14 c 2,24,-1
 963 1044 l 1,25,-1
 1190 1044 l 1,26,-1
 1190 72 l 2,17,18
EndSplineSet
Validated: 1
Position2: "'cpsp' Capital Spacing lookup 3 subtable" dx=10 dy=0 dh=20 dv=0
EndChar

StartChar: Lslash
Encoding: 321 321 75
Width: 901
Flags: MW
HStem: 0 152<444 877> 1311 41G<205 444 444 444>
VStem: 205 240<152 551 551 551 827 1352>
LayerCount: 2
Fore
SplineSet
23 479 m 1,0,1
 -31 529 -31 529 -31 580 c 0,2,3
 -31 639 -31 639 29 664 c 1,4,-1
 205 733 l 1,5,-1
 205 1352 l 1,6,-1
 444 1352 l 1,7,-1
 444 827 l 1,8,-1
 698 930 l 1,9,10
 752 880 752 880 752 829 c 0,11,12
 752 770 752 770 692 745 c 1,13,-1
 444 647 l 1,14,-1
 444 152 l 1,15,-1
 891 152 l 1,16,-1
 877 0 l 1,17,-1
 205 0 l 1,18,-1
 205 551 l 1,19,-1
 23 479 l 1,0,1
EndSplineSet
Validated: 1
Position2: "'cpsp' Capital Spacing lookup 3 subtable" dx=10 dy=0 dh=20 dv=0
EndChar

StartChar: M
Encoding: 77 77 76
Width: 1492
Flags: MW
HStem: 1133 219<315 315> 1311 41G<123 483 483 483 1026 1370 1370 1370>
VStem: 123 193<0 1133 0 1352> 1130 240<0 1128 1128 1128>
LayerCount: 2
Fore
SplineSet
1370 0 m 1,0,-1
 1130 0 l 1,1,-1
 1130 1128 l 1,2,-1
 803 0 l 1,3,-1
 643 0 l 1,4,-1
 315 1133 l 1,5,-1
 315 0 l 1,6,-1
 123 0 l 1,7,-1
 123 1352 l 1,8,-1
 483 1352 l 1,9,-1
 756 379 l 1,10,-1
 1026 1352 l 1,11,-1
 1370 1352 l 1,12,-1
 1370 0 l 1,0,-1
EndSplineSet
Validated: 1
Position2: "'cpsp' Capital Spacing lookup 3 subtable" dx=10 dy=0 dh=20 dv=0
EndChar

StartChar: N
Encoding: 78 78 77
Width: 1163
Flags: MW
HStem: 1311 41G<123 305 305 305 848 1040 1040 1040>
VStem: 123 193<0 926 0 1352> 848 193<426 1352 0 1352>
LayerCount: 2
Fore
SplineSet
315 926 m 1,0,-1
 315 0 l 1,1,-1
 123 0 l 1,2,-1
 123 1352 l 1,3,-1
 305 1352 l 1,4,-1
 848 426 l 1,5,-1
 848 1352 l 1,6,-1
 1040 1352 l 1,7,-1
 1040 0 l 1,8,-1
 858 0 l 1,9,-1
 315 926 l 1,0,-1
EndSplineSet
Validated: 1
Position2: "'cpsp' Capital Spacing lookup 3 subtable" dx=10 dy=0 dh=20 dv=0
EndChar

StartChar: NJ
Encoding: 458 458 78
Width: 1648
Flags: MW
HStem: -328 96<1085 1362> 1311 41G<123 305 305 305 848 1040 1040 1040 1286 1526 1526 1526>
VStem: 123 193<0 926> 848 193<426 1352 0 1352> 1286 240<121 195 195 1352>
LayerCount: 2
Fore
SplineSet
315 0 m 1,0,-1
 123 0 l 1,1,-1
 123 1352 l 1,2,-1
 305 1352 l 1,3,-1
 848 426 l 1,4,-1
 848 1352 l 1,5,-1
 1040 1352 l 1,6,-1
 1040 0 l 1,7,-1
 858 0 l 1,8,-1
 315 926 l 1,9,-1
 315 0 l 1,0,-1
1526 195 m 2,10,11
 1526 127 1526 127 1522 69.5 c 128,-1,12
 1518 12 1518 12 1507 -50.5 c 128,-1,13
 1496 -113 1496 -113 1475 -160.5 c 128,-1,14
 1454 -208 1454 -208 1423 -247 c 128,-1,15
 1392 -286 1392 -286 1345 -307 c 128,-1,16
 1298 -328 1298 -328 1237 -328 c 0,17,18
 1177 -328 1177 -328 1131 -303.5 c 128,-1,19
 1085 -279 1085 -279 1085 -231 c 1,20,21
 1147 -231 1147 -231 1189 -202 c 128,-1,22
 1231 -173 1231 -173 1251 -119 c 128,-1,23
 1271 -65 1271 -65 1278.5 -9 c 128,-1,24
 1286 47 1286 47 1286 121 c 2,25,-1
 1286 1352 l 1,26,-1
 1526 1352 l 1,27,-1
 1526 195 l 2,10,11
EndSplineSet
Validated: 1
Position2: "'cpsp' Capital Spacing lookup 3 subtable" dx=10 dy=0 dh=20 dv=0
EndChar

StartChar: Nacute
Encoding: 323 323 79
Width: 1163
Flags: MW
HStem: 1311 41G<123 305 305 305 848 1040 1040 1040>
VStem: 123 193<0 926> 848 193<426 1352 0 1352>
LayerCount: 2
Fore
SplineSet
856 1714 m 1,0,1
 915 1672 915 1672 915 1610 c 0,2,3
 915 1571 915 1571 896 1544.5 c 128,-1,4
 877 1518 877 1518 841 1504.5 c 128,-1,5
 805 1491 805 1491 771 1485 c 128,-1,6
 737 1479 737 1479 688 1475 c 2,7,-1
 444 1456 l 1,8,-1
 422 1542 l 1,9,-1
 856 1714 l 1,0,1
315 0 m 1,10,-1
 123 0 l 1,11,-1
 123 1352 l 1,12,-1
 305 1352 l 1,13,-1
 848 426 l 1,14,-1
 848 1352 l 1,15,-1
 1040 1352 l 1,16,-1
 1040 0 l 1,17,-1
 858 0 l 1,18,-1
 315 926 l 1,19,-1
 315 0 l 1,10,-1
EndSplineSet
Validated: 1
Substitution2: "'locl' Localized Forms in Latin lookup 13 subtable" Nacute.loclPLK
Substitution2: "'aalt' Access All Alternates lookup 0 subtable" Nacute.loclPLK
Position2: "'cpsp' Capital Spacing lookup 3 subtable" dx=10 dy=0 dh=20 dv=0
EndChar

StartChar: Ncaron
Encoding: 327 327 80
Width: 1163
Flags: MW
HStem: 1311 41G<123 305 305 305 848 1040 1040 1040>
VStem: 123 193<0 926> 848 193<426 1352 0 1352>
LayerCount: 2
Fore
SplineSet
879 1636 m 1,0,-1
 582 1407 l 1,1,-1
 575 1407 l 1,2,-1
 270 1636 l 1,3,-1
 330 1708 l 1,4,-1
 575 1579 l 1,5,-1
 819 1708 l 1,6,-1
 879 1636 l 1,0,-1
315 0 m 1,7,-1
 123 0 l 1,8,-1
 123 1352 l 1,9,-1
 305 1352 l 1,10,-1
 848 426 l 1,11,-1
 848 1352 l 1,12,-1
 1040 1352 l 1,13,-1
 1040 0 l 1,14,-1
 858 0 l 1,15,-1
 315 926 l 1,16,-1
 315 0 l 1,7,-1
EndSplineSet
Validated: 1
Position2: "'cpsp' Capital Spacing lookup 3 subtable" dx=10 dy=0 dh=20 dv=0
EndChar

StartChar: Ncommaaccent
Encoding: 325 325 81
Width: 1163
Flags: MW
HStem: 1311 41G<123 305 305 305 848 1040 1040 1040>
VStem: 123 193<0 926> 512 209<-298 -233> 848 193<426 1352 0 1352>
LayerCount: 2
Fore
SplineSet
315 0 m 1,0,-1
 123 0 l 1,1,-1
 123 1352 l 1,2,-1
 305 1352 l 1,3,-1
 848 426 l 1,4,-1
 848 1352 l 1,5,-1
 1040 1352 l 1,6,-1
 1040 0 l 1,7,-1
 858 0 l 1,8,-1
 315 926 l 1,9,-1
 315 0 l 1,0,-1
578 -102 m 0,10,11
 649 -102 649 -102 685 -142 c 128,-1,12
 721 -182 721 -182 721 -254 c 0,13,14
 721 -340 721 -340 659.5 -412.5 c 128,-1,15
 598 -485 598 -485 514 -485 c 0,16,17
 482 -485 482 -485 444 -473 c 1,18,19
 512 -373 512 -373 512 -260 c 0,20,21
 512 -185 512 -185 473 -127 c 1,22,23
 521 -102 521 -102 578 -102 c 0,10,11
EndSplineSet
Validated: 1
Position2: "'cpsp' Capital Spacing lookup 3 subtable" dx=10 dy=0 dh=20 dv=0
EndChar

StartChar: Ndotaccent
Encoding: 7748 7748 82
Width: 1163
Flags: MW
HStem: 1311 41G<123 305 305 305 848 1040 1040 1040> 1483 258<539 620>
VStem: 123 193<0 926> 426 307<1570 1654> 848 193<426 1352 0 1352>
LayerCount: 2
Fore
SplineSet
582 1741 m 128,-1,1
 650 1741 650 1741 691.5 1708 c 128,-1,2
 733 1675 733 1675 733 1614 c 0,3,4
 733 1551 733 1551 688.5 1517 c 128,-1,5
 644 1483 644 1483 575 1483 c 0,6,7
 508 1483 508 1483 467 1516 c 128,-1,8
 426 1549 426 1549 426 1610 c 0,9,10
 426 1673 426 1673 470 1707 c 128,-1,0
 514 1741 514 1741 582 1741 c 128,-1,1
315 0 m 1,11,-1
 123 0 l 1,12,-1
 123 1352 l 1,13,-1
 305 1352 l 1,14,-1
 848 426 l 1,15,-1
 848 1352 l 1,16,-1
 1040 1352 l 1,17,-1
 1040 0 l 1,18,-1
 858 0 l 1,19,-1
 315 926 l 1,20,-1
 315 0 l 1,11,-1
EndSplineSet
Validated: 1
Position2: "'cpsp' Capital Spacing lookup 3 subtable" dx=10 dy=0 dh=20 dv=0
EndChar

StartChar: Eng
Encoding: 330 330 83
Width: 1163
Flags: MW
HStem: -328 74 1311 41G<123 305 305 305 848 1040 1040 1040>
VStem: 123 193<0 907 0 1352> 848 193<444 1352>
LayerCount: 2
Fore
SplineSet
1040 1352 m 1,0,-1
 1040 80 l 2,1,2
 1040 13 1040 13 1035.5 -39.5 c 128,-1,3
 1031 -92 1031 -92 1016.5 -148.5 c 128,-1,4
 1002 -205 1002 -205 977.5 -242.5 c 128,-1,5
 953 -280 953 -280 910 -304 c 128,-1,6
 867 -328 867 -328 809 -328 c 0,7,8
 762 -328 762 -328 726 -309.5 c 128,-1,9
 690 -291 690 -291 690 -254 c 1,10,11
 854 -251 854 -251 862 0 c 1,12,-1
 858 0 l 1,13,-1
 315 907 l 1,14,-1
 315 0 l 1,15,-1
 123 0 l 1,16,-1
 123 1352 l 1,17,-1
 305 1352 l 1,18,-1
 848 444 l 1,19,-1
 848 1352 l 1,20,-1
 1040 1352 l 1,0,-1
EndSplineSet
Validated: 1
Position2: "'cpsp' Capital Spacing lookup 3 subtable" dx=10 dy=0 dh=20 dv=0
EndChar

StartChar: Nj
Encoding: 459 459 84
Width: 1669
Flags: MW
HStem: -410 90<1104 1365> 1004 41G<1307 1534 1534 1534> 1217 258<1378 1459> 1311 41G<123 305 305 305 848 1040 1040 1040>
VStem: 123 193<0 926> 848 193<426 1352 0 1352> 1266 307<1304 1388> 1307 227<14 72 72 1044>
LayerCount: 2
Fore
SplineSet
1421 1475 m 128,-1,1
 1489 1475 1489 1475 1531 1442 c 128,-1,2
 1573 1409 1573 1409 1573 1348 c 0,3,4
 1573 1285 1573 1285 1528.5 1251 c 128,-1,5
 1484 1217 1484 1217 1415 1217 c 0,6,7
 1348 1217 1348 1217 1307 1249.5 c 128,-1,8
 1266 1282 1266 1282 1266 1343 c 0,9,10
 1266 1406 1266 1406 1309.5 1440.5 c 128,-1,0
 1353 1475 1353 1475 1421 1475 c 128,-1,1
315 0 m 1,11,-1
 123 0 l 1,12,-1
 123 1352 l 1,13,-1
 305 1352 l 1,14,-1
 848 426 l 1,15,-1
 848 1352 l 1,16,-1
 1040 1352 l 1,17,-1
 1040 0 l 1,18,-1
 858 0 l 1,19,-1
 315 926 l 1,20,-1
 315 0 l 1,11,-1
1534 72 m 2,21,22
 1534 -410 1534 -410 1247 -410 c 0,23,24
 1189 -410 1189 -410 1146.5 -387.5 c 128,-1,25
 1104 -365 1104 -365 1104 -319 c 1,26,27
 1307 -319 1307 -319 1307 14 c 2,28,-1
 1307 1044 l 1,29,-1
 1534 1044 l 1,30,-1
 1534 72 l 2,21,22
EndSplineSet
Validated: 1
Position2: "'cpsp' Capital Spacing lookup 3 subtable" dx=10 dy=0 dh=20 dv=0
EndChar

StartChar: Ntilde
Encoding: 209 209 85
Width: 1163
Flags: MW
HStem: 1311 41G<123 305 305 305 848 1040 1040 1040> 1475 174<719 742 684 799> 1524 174<415 439 358 473>
VStem: 123 193<0 926> 848 193<426 1352 0 1352>
LayerCount: 2
Fore
SplineSet
834 1679 m 1,0,1
 889 1643 889 1643 889 1575 c 0,2,3
 889 1525 889 1525 854.5 1500 c 128,-1,4
 820 1475 820 1475 764 1475 c 0,5,6
 718 1475 718 1475 595 1499.5 c 128,-1,7
 472 1524 472 1524 432 1524 c 0,8,9
 357 1524 357 1524 324 1493 c 1,10,11
 268 1530 268 1530 268 1597 c 0,12,13
 268 1647 268 1647 302.5 1672.5 c 128,-1,14
 337 1698 337 1698 393 1698 c 0,15,16
 440 1698 440 1698 562.5 1673.5 c 128,-1,17
 685 1649 685 1649 725 1649 c 0,18,19
 802 1649 802 1649 834 1679 c 1,0,1
315 0 m 1,20,-1
 123 0 l 1,21,-1
 123 1352 l 1,22,-1
 305 1352 l 1,23,-1
 848 426 l 1,24,-1
 848 1352 l 1,25,-1
 1040 1352 l 1,26,-1
 1040 0 l 1,27,-1
 858 0 l 1,28,-1
 315 926 l 1,29,-1
 315 0 l 1,20,-1
EndSplineSet
Validated: 1
Position2: "'cpsp' Capital Spacing lookup 3 subtable" dx=10 dy=0 dh=20 dv=0
EndChar

StartChar: O
Encoding: 79 79 86
Width: 1189
Flags: MW
HStem: -45 143<471 720 471 800> 1249 143<475 716>
VStem: 70 258<555 801 555 867> 862 258<555 801>
LayerCount: 2
Fore
SplineSet
596 1393 m 0,0,1
 1120 1393 1120 1393 1120 694 c 0,2,3
 1120 -45 1120 -45 596 -45 c 0,4,5
 477 -45 477 -45 385.5 -9.5 c 128,-1,6
 294 26 294 26 235 88.5 c 128,-1,7
 176 151 176 151 138.5 242.5 c 128,-1,8
 101 334 101 334 85.5 438 c 128,-1,9
 70 542 70 542 70 670 c 0,10,11
 70 793 70 793 86.5 897.5 c 128,-1,12
 103 1002 103 1002 141.5 1095 c 128,-1,13
 180 1188 180 1188 239 1253 c 128,-1,14
 298 1318 298 1318 389 1355.5 c 128,-1,15
 480 1393 480 1393 596 1393 c 0,0,1
596 98 m 128,-1,17
 648 98 648 98 689 118 c 128,-1,18
 730 138 730 138 757.5 169 c 128,-1,19
 785 200 785 200 805 249 c 128,-1,20
 825 298 825 298 835.5 345.5 c 128,-1,21
 846 393 846 393 852.5 456 c 128,-1,22
 859 519 859 519 860.5 568 c 128,-1,23
 862 617 862 617 862 680 c 0,24,25
 862 739 862 739 860 788.5 c 128,-1,26
 858 838 858 838 851 898 c 128,-1,27
 844 958 844 958 833 1006 c 128,-1,28
 822 1054 822 1054 801.5 1101 c 128,-1,29
 781 1148 781 1148 754 1179 c 128,-1,30
 727 1210 727 1210 686.5 1229.5 c 128,-1,31
 646 1249 646 1249 596 1249 c 0,32,33
 538 1249 538 1249 492.5 1224.5 c 128,-1,34
 447 1200 447 1200 418.5 1154.5 c 128,-1,35
 390 1109 390 1109 371 1056.5 c 128,-1,36
 352 1004 352 1004 343.5 934.5 c 128,-1,37
 335 865 335 865 331.5 807.5 c 128,-1,38
 328 750 328 750 328 680 c 0,39,40
 328 617 328 617 329.5 568.5 c 128,-1,41
 331 520 331 520 337.5 456.5 c 128,-1,42
 344 393 344 393 355 345.5 c 128,-1,43
 366 298 366 298 386 249 c 128,-1,44
 406 200 406 200 433.5 169 c 128,-1,45
 461 138 461 138 502.5 118 c 128,-1,16
 544 98 544 98 596 98 c 128,-1,17
EndSplineSet
Validated: 1
Substitution2: "Single Substitution lookup 21 subtable" ordmasculine
Substitution2: "'aalt' Access All Alternates lookup 0 subtable" ordmasculine
Position2: "'cpsp' Capital Spacing lookup 3 subtable" dx=10 dy=0 dh=20 dv=0
EndChar

StartChar: Oacute
Encoding: 211 211 87
Width: 1189
Flags: MW
HStem: -45 143<471 720 471 800> 1249 143<475 716>
VStem: 70 258<555 801 555 867> 862 258<555 801>
LayerCount: 2
Fore
SplineSet
872 1714 m 1,0,1
 932 1671 932 1671 932 1610 c 0,2,3
 932 1571 932 1571 913 1544.5 c 128,-1,4
 894 1518 894 1518 858 1504.5 c 128,-1,5
 822 1491 822 1491 788 1485 c 128,-1,6
 754 1479 754 1479 705 1475 c 2,7,-1
 461 1456 l 1,8,-1
 438 1542 l 1,9,-1
 872 1714 l 1,0,1
596 1393 m 0,10,11
 1120 1393 1120 1393 1120 694 c 0,12,13
 1120 -45 1120 -45 596 -45 c 0,14,15
 477 -45 477 -45 385.5 -9.5 c 128,-1,16
 294 26 294 26 235 88.5 c 128,-1,17
 176 151 176 151 138.5 242.5 c 128,-1,18
 101 334 101 334 85.5 438 c 128,-1,19
 70 542 70 542 70 670 c 0,20,21
 70 793 70 793 86.5 897.5 c 128,-1,22
 103 1002 103 1002 141.5 1095 c 128,-1,23
 180 1188 180 1188 239 1253 c 128,-1,24
 298 1318 298 1318 389 1355.5 c 128,-1,25
 480 1393 480 1393 596 1393 c 0,10,11
596 98 m 128,-1,27
 648 98 648 98 689 118 c 128,-1,28
 730 138 730 138 757.5 169 c 128,-1,29
 785 200 785 200 805 249 c 128,-1,30
 825 298 825 298 835.5 345.5 c 128,-1,31
 846 393 846 393 852.5 456 c 128,-1,32
 859 519 859 519 860.5 568 c 128,-1,33
 862 617 862 617 862 680 c 0,34,35
 862 739 862 739 860 788.5 c 128,-1,36
 858 838 858 838 851 898 c 128,-1,37
 844 958 844 958 833 1006 c 128,-1,38
 822 1054 822 1054 801.5 1101 c 128,-1,39
 781 1148 781 1148 754 1179 c 128,-1,40
 727 1210 727 1210 686.5 1229.5 c 128,-1,41
 646 1249 646 1249 596 1249 c 0,42,43
 538 1249 538 1249 492.5 1224.5 c 128,-1,44
 447 1200 447 1200 418.5 1154.5 c 128,-1,45
 390 1109 390 1109 371 1056.5 c 128,-1,46
 352 1004 352 1004 343.5 934.5 c 128,-1,47
 335 865 335 865 331.5 807.5 c 128,-1,48
 328 750 328 750 328 680 c 0,49,50
 328 617 328 617 329.5 568.5 c 128,-1,51
 331 520 331 520 337.5 456.5 c 128,-1,52
 344 393 344 393 355 345.5 c 128,-1,53
 366 298 366 298 386 249 c 128,-1,54
 406 200 406 200 433.5 169 c 128,-1,55
 461 138 461 138 502.5 118 c 128,-1,26
 544 98 544 98 596 98 c 128,-1,27
EndSplineSet
Validated: 1
Substitution2: "'locl' Localized Forms in Latin lookup 13 subtable" Oacute.loclPLK
Substitution2: "'aalt' Access All Alternates lookup 0 subtable" Oacute.loclPLK
Position2: "'cpsp' Capital Spacing lookup 3 subtable" dx=10 dy=0 dh=20 dv=0
EndChar

StartChar: Obreve
Encoding: 334 334 88
Width: 1189
Flags: MW
HStem: -45 143<471 720 471 800> 1249 143<475 716> 1403 106<546 642 546 685>
VStem: 70 258<555 801 555 867> 287 186<1637 1686 1637 1686> 715 188<1637 1686> 862 258<555 801>
LayerCount: 2
Fore
SplineSet
903 1686 m 1,0,1
 903 1553 903 1553 818 1478 c 128,-1,2
 733 1403 733 1403 594 1403 c 128,-1,3
 455 1403 455 1403 371 1478 c 128,-1,4
 287 1553 287 1553 287 1686 c 1,5,-1
 473 1686 l 1,6,7
 473 1509 473 1509 594 1509 c 128,-1,8
 715 1509 715 1509 715 1686 c 1,9,-1
 903 1686 l 1,0,1
596 1393 m 0,10,11
 1120 1393 1120 1393 1120 694 c 0,12,13
 1120 -45 1120 -45 596 -45 c 0,14,15
 477 -45 477 -45 385.5 -9.5 c 128,-1,16
 294 26 294 26 235 88.5 c 128,-1,17
 176 151 176 151 138.5 242.5 c 128,-1,18
 101 334 101 334 85.5 438 c 128,-1,19
 70 542 70 542 70 670 c 0,20,21
 70 793 70 793 86.5 897.5 c 128,-1,22
 103 1002 103 1002 141.5 1095 c 128,-1,23
 180 1188 180 1188 239 1253 c 128,-1,24
 298 1318 298 1318 389 1355.5 c 128,-1,25
 480 1393 480 1393 596 1393 c 0,10,11
596 98 m 128,-1,27
 648 98 648 98 689 118 c 128,-1,28
 730 138 730 138 757.5 169 c 128,-1,29
 785 200 785 200 805 249 c 128,-1,30
 825 298 825 298 835.5 345.5 c 128,-1,31
 846 393 846 393 852.5 456 c 128,-1,32
 859 519 859 519 860.5 568 c 128,-1,33
 862 617 862 617 862 680 c 0,34,35
 862 739 862 739 860 788.5 c 128,-1,36
 858 838 858 838 851 898 c 128,-1,37
 844 958 844 958 833 1006 c 128,-1,38
 822 1054 822 1054 801.5 1101 c 128,-1,39
 781 1148 781 1148 754 1179 c 128,-1,40
 727 1210 727 1210 686.5 1229.5 c 128,-1,41
 646 1249 646 1249 596 1249 c 0,42,43
 538 1249 538 1249 492.5 1224.5 c 128,-1,44
 447 1200 447 1200 418.5 1154.5 c 128,-1,45
 390 1109 390 1109 371 1056.5 c 128,-1,46
 352 1004 352 1004 343.5 934.5 c 128,-1,47
 335 865 335 865 331.5 807.5 c 128,-1,48
 328 750 328 750 328 680 c 0,49,50
 328 617 328 617 329.5 568.5 c 128,-1,51
 331 520 331 520 337.5 456.5 c 128,-1,52
 344 393 344 393 355 345.5 c 128,-1,53
 366 298 366 298 386 249 c 128,-1,54
 406 200 406 200 433.5 169 c 128,-1,55
 461 138 461 138 502.5 118 c 128,-1,26
 544 98 544 98 596 98 c 128,-1,27
EndSplineSet
Validated: 1
Position2: "'cpsp' Capital Spacing lookup 3 subtable" dx=10 dy=0 dh=20 dv=0
EndChar

StartChar: Ocircumflex
Encoding: 212 212 89
Width: 1189
Flags: MW
HStem: -45 143<471 720 471 800> 1249 143<475 716> 1370 23 1401 41G<293 293 903 903>
VStem: 70 258<555 801 555 867> 862 258<555 801>
LayerCount: 2
Fore
SplineSet
293 1442 m 1,0,-1
 590 1712 l 1,1,-1
 598 1712 l 1,2,-1
 903 1442 l 1,3,-1
 842 1370 l 1,4,-1
 596 1520 l 1,5,-1
 352 1370 l 1,6,-1
 293 1442 l 1,0,-1
596 1393 m 0,7,8
 1120 1393 1120 1393 1120 694 c 0,9,10
 1120 -45 1120 -45 596 -45 c 0,11,12
 477 -45 477 -45 385.5 -9.5 c 128,-1,13
 294 26 294 26 235 88.5 c 128,-1,14
 176 151 176 151 138.5 242.5 c 128,-1,15
 101 334 101 334 85.5 438 c 128,-1,16
 70 542 70 542 70 670 c 0,17,18
 70 793 70 793 86.5 897.5 c 128,-1,19
 103 1002 103 1002 141.5 1095 c 128,-1,20
 180 1188 180 1188 239 1253 c 128,-1,21
 298 1318 298 1318 389 1355.5 c 128,-1,22
 480 1393 480 1393 596 1393 c 0,7,8
596 98 m 128,-1,24
 648 98 648 98 689 118 c 128,-1,25
 730 138 730 138 757.5 169 c 128,-1,26
 785 200 785 200 805 249 c 128,-1,27
 825 298 825 298 835.5 345.5 c 128,-1,28
 846 393 846 393 852.5 456 c 128,-1,29
 859 519 859 519 860.5 568 c 128,-1,30
 862 617 862 617 862 680 c 0,31,32
 862 739 862 739 860 788.5 c 128,-1,33
 858 838 858 838 851 898 c 128,-1,34
 844 958 844 958 833 1006 c 128,-1,35
 822 1054 822 1054 801.5 1101 c 128,-1,36
 781 1148 781 1148 754 1179 c 128,-1,37
 727 1210 727 1210 686.5 1229.5 c 128,-1,38
 646 1249 646 1249 596 1249 c 0,39,40
 538 1249 538 1249 492.5 1224.5 c 128,-1,41
 447 1200 447 1200 418.5 1154.5 c 128,-1,42
 390 1109 390 1109 371 1056.5 c 128,-1,43
 352 1004 352 1004 343.5 934.5 c 128,-1,44
 335 865 335 865 331.5 807.5 c 128,-1,45
 328 750 328 750 328 680 c 0,46,47
 328 617 328 617 329.5 568.5 c 128,-1,48
 331 520 331 520 337.5 456.5 c 128,-1,49
 344 393 344 393 355 345.5 c 128,-1,50
 366 298 366 298 386 249 c 128,-1,51
 406 200 406 200 433.5 169 c 128,-1,52
 461 138 461 138 502.5 118 c 128,-1,23
 544 98 544 98 596 98 c 128,-1,24
EndSplineSet
Validated: 1
Position2: "'cpsp' Capital Spacing lookup 3 subtable" dx=10 dy=0 dh=20 dv=0
EndChar

StartChar: Odieresis
Encoding: 214 214 90
Width: 1189
Flags: MW
HStem: -45 143<471 720 471 800> 1249 143<475 716> 1454 258<350 431 758 839>
VStem: 70 258<555 801 555 867> 238 307<1541 1625> 645 307<1541 1625> 862 258<555 801>
LayerCount: 2
Fore
SplineSet
393 1712 m 128,-1,1
 461 1712 461 1712 503 1679 c 128,-1,2
 545 1646 545 1646 545 1585 c 0,3,4
 545 1522 545 1522 500.5 1488 c 128,-1,5
 456 1454 456 1454 387 1454 c 0,6,7
 320 1454 320 1454 279 1487 c 128,-1,8
 238 1520 238 1520 238 1581 c 0,9,10
 238 1644 238 1644 281.5 1678 c 128,-1,0
 325 1712 325 1712 393 1712 c 128,-1,1
801 1712 m 128,-1,12
 869 1712 869 1712 910.5 1679 c 128,-1,13
 952 1646 952 1646 952 1585 c 0,14,15
 952 1522 952 1522 908 1488 c 128,-1,16
 864 1454 864 1454 795 1454 c 0,17,18
 728 1454 728 1454 686.5 1487 c 128,-1,19
 645 1520 645 1520 645 1581 c 0,20,21
 645 1644 645 1644 689 1678 c 128,-1,11
 733 1712 733 1712 801 1712 c 128,-1,12
596 1393 m 0,22,23
 1120 1393 1120 1393 1120 694 c 0,24,25
 1120 -45 1120 -45 596 -45 c 0,26,27
 477 -45 477 -45 385.5 -9.5 c 128,-1,28
 294 26 294 26 235 88.5 c 128,-1,29
 176 151 176 151 138.5 242.5 c 128,-1,30
 101 334 101 334 85.5 438 c 128,-1,31
 70 542 70 542 70 670 c 0,32,33
 70 793 70 793 86.5 897.5 c 128,-1,34
 103 1002 103 1002 141.5 1095 c 128,-1,35
 180 1188 180 1188 239 1253 c 128,-1,36
 298 1318 298 1318 389 1355.5 c 128,-1,37
 480 1393 480 1393 596 1393 c 0,22,23
596 98 m 128,-1,39
 648 98 648 98 689 118 c 128,-1,40
 730 138 730 138 757.5 169 c 128,-1,41
 785 200 785 200 805 249 c 128,-1,42
 825 298 825 298 835.5 345.5 c 128,-1,43
 846 393 846 393 852.5 456 c 128,-1,44
 859 519 859 519 860.5 568 c 128,-1,45
 862 617 862 617 862 680 c 0,46,47
 862 739 862 739 860 788.5 c 128,-1,48
 858 838 858 838 851 898 c 128,-1,49
 844 958 844 958 833 1006 c 128,-1,50
 822 1054 822 1054 801.5 1101 c 128,-1,51
 781 1148 781 1148 754 1179 c 128,-1,52
 727 1210 727 1210 686.5 1229.5 c 128,-1,53
 646 1249 646 1249 596 1249 c 0,54,55
 538 1249 538 1249 492.5 1224.5 c 128,-1,56
 447 1200 447 1200 418.5 1154.5 c 128,-1,57
 390 1109 390 1109 371 1056.5 c 128,-1,58
 352 1004 352 1004 343.5 934.5 c 128,-1,59
 335 865 335 865 331.5 807.5 c 128,-1,60
 328 750 328 750 328 680 c 0,61,62
 328 617 328 617 329.5 568.5 c 128,-1,63
 331 520 331 520 337.5 456.5 c 128,-1,64
 344 393 344 393 355 345.5 c 128,-1,65
 366 298 366 298 386 249 c 128,-1,66
 406 200 406 200 433.5 169 c 128,-1,67
 461 138 461 138 502.5 118 c 128,-1,38
 544 98 544 98 596 98 c 128,-1,39
EndSplineSet
Validated: 1
Position2: "'cpsp' Capital Spacing lookup 3 subtable" dx=10 dy=0 dh=20 dv=0
EndChar

StartChar: Odotbelow
Encoding: 7884 7884 91
Width: 1189
Flags: MW
HStem: -369 258<551 632> -45 143<471 720 471 800> 1249 143<475 716>
VStem: 70 258<555 801 555 867> 438 307<-282 -198> 862 258<555 801>
LayerCount: 2
Fore
SplineSet
596 1393 m 0,0,1
 1120 1393 1120 1393 1120 694 c 0,2,3
 1120 -45 1120 -45 596 -45 c 0,4,5
 477 -45 477 -45 385.5 -9.5 c 128,-1,6
 294 26 294 26 235 88.5 c 128,-1,7
 176 151 176 151 138.5 242.5 c 128,-1,8
 101 334 101 334 85.5 438 c 128,-1,9
 70 542 70 542 70 670 c 0,10,11
 70 793 70 793 86.5 897.5 c 128,-1,12
 103 1002 103 1002 141.5 1095 c 128,-1,13
 180 1188 180 1188 239 1253 c 128,-1,14
 298 1318 298 1318 389 1355.5 c 128,-1,15
 480 1393 480 1393 596 1393 c 0,0,1
596 98 m 128,-1,17
 648 98 648 98 689 118 c 128,-1,18
 730 138 730 138 757.5 169 c 128,-1,19
 785 200 785 200 805 249 c 128,-1,20
 825 298 825 298 835.5 345.5 c 128,-1,21
 846 393 846 393 852.5 456 c 128,-1,22
 859 519 859 519 860.5 568 c 128,-1,23
 862 617 862 617 862 680 c 0,24,25
 862 739 862 739 860 788.5 c 128,-1,26
 858 838 858 838 851 898 c 128,-1,27
 844 958 844 958 833 1006 c 128,-1,28
 822 1054 822 1054 801.5 1101 c 128,-1,29
 781 1148 781 1148 754 1179 c 128,-1,30
 727 1210 727 1210 686.5 1229.5 c 128,-1,31
 646 1249 646 1249 596 1249 c 0,32,33
 538 1249 538 1249 492.5 1224.5 c 128,-1,34
 447 1200 447 1200 418.5 1154.5 c 128,-1,35
 390 1109 390 1109 371 1056.5 c 128,-1,36
 352 1004 352 1004 343.5 934.5 c 128,-1,37
 335 865 335 865 331.5 807.5 c 128,-1,38
 328 750 328 750 328 680 c 0,39,40
 328 617 328 617 329.5 568.5 c 128,-1,41
 331 520 331 520 337.5 456.5 c 128,-1,42
 344 393 344 393 355 345.5 c 128,-1,43
 366 298 366 298 386 249 c 128,-1,44
 406 200 406 200 433.5 169 c 128,-1,45
 461 138 461 138 502.5 118 c 128,-1,16
 544 98 544 98 596 98 c 128,-1,17
594 -111 m 128,-1,47
 662 -111 662 -111 703.5 -144 c 128,-1,48
 745 -177 745 -177 745 -238 c 0,49,50
 745 -301 745 -301 701 -335 c 128,-1,51
 657 -369 657 -369 588 -369 c 0,52,53
 521 -369 521 -369 479.5 -336 c 128,-1,54
 438 -303 438 -303 438 -242 c 0,55,56
 438 -179 438 -179 482 -145 c 128,-1,46
 526 -111 526 -111 594 -111 c 128,-1,47
EndSplineSet
Validated: 1
Position2: "'cpsp' Capital Spacing lookup 3 subtable" dx=10 dy=0 dh=20 dv=0
EndChar

StartChar: Ograve
Encoding: 210 210 92
Width: 1189
Flags: MW
HStem: -45 143<471 720 471 800> 1249 143<475 716>
VStem: 70 258<555 801 555 867> 862 258<555 801>
LayerCount: 2
Fore
SplineSet
483 1475 m 2,0,1
 434 1479 434 1479 400.5 1485 c 128,-1,2
 367 1491 367 1491 331 1504.5 c 128,-1,3
 295 1518 295 1518 276.5 1544.5 c 128,-1,4
 258 1571 258 1571 258 1610 c 0,5,6
 258 1673 258 1673 315 1714 c 1,7,-1
 752 1542 l 1,8,-1
 729 1456 l 1,9,-1
 483 1475 l 2,0,1
596 1393 m 0,10,11
 1120 1393 1120 1393 1120 694 c 0,12,13
 1120 -45 1120 -45 596 -45 c 0,14,15
 477 -45 477 -45 385.5 -9.5 c 128,-1,16
 294 26 294 26 235 88.5 c 128,-1,17
 176 151 176 151 138.5 242.5 c 128,-1,18
 101 334 101 334 85.5 438 c 128,-1,19
 70 542 70 542 70 670 c 0,20,21
 70 793 70 793 86.5 897.5 c 128,-1,22
 103 1002 103 1002 141.5 1095 c 128,-1,23
 180 1188 180 1188 239 1253 c 128,-1,24
 298 1318 298 1318 389 1355.5 c 128,-1,25
 480 1393 480 1393 596 1393 c 0,10,11
596 98 m 128,-1,27
 648 98 648 98 689 118 c 128,-1,28
 730 138 730 138 757.5 169 c 128,-1,29
 785 200 785 200 805 249 c 128,-1,30
 825 298 825 298 835.5 345.5 c 128,-1,31
 846 393 846 393 852.5 456 c 128,-1,32
 859 519 859 519 860.5 568 c 128,-1,33
 862 617 862 617 862 680 c 0,34,35
 862 739 862 739 860 788.5 c 128,-1,36
 858 838 858 838 851 898 c 128,-1,37
 844 958 844 958 833 1006 c 128,-1,38
 822 1054 822 1054 801.5 1101 c 128,-1,39
 781 1148 781 1148 754 1179 c 128,-1,40
 727 1210 727 1210 686.5 1229.5 c 128,-1,41
 646 1249 646 1249 596 1249 c 0,42,43
 538 1249 538 1249 492.5 1224.5 c 128,-1,44
 447 1200 447 1200 418.5 1154.5 c 128,-1,45
 390 1109 390 1109 371 1056.5 c 128,-1,46
 352 1004 352 1004 343.5 934.5 c 128,-1,47
 335 865 335 865 331.5 807.5 c 128,-1,48
 328 750 328 750 328 680 c 0,49,50
 328 617 328 617 329.5 568.5 c 128,-1,51
 331 520 331 520 337.5 456.5 c 128,-1,52
 344 393 344 393 355 345.5 c 128,-1,53
 366 298 366 298 386 249 c 128,-1,54
 406 200 406 200 433.5 169 c 128,-1,55
 461 138 461 138 502.5 118 c 128,-1,26
 544 98 544 98 596 98 c 128,-1,27
EndSplineSet
Validated: 1
Position2: "'cpsp' Capital Spacing lookup 3 subtable" dx=10 dy=0 dh=20 dv=0
EndChar

StartChar: Ohungarumlaut
Encoding: 336 336 93
Width: 1189
Flags: MW
HStem: -45 143<471 720 471 800> 1249 143<475 716>
VStem: 70 258<555 801 555 867> 862 258<555 801>
LayerCount: 2
UndoRedoHistory
Layer: 1
Undoes
EndUndoes
Redoes
EndRedoes
EndUndoRedoHistory
Fore
SplineSet
641 1739 m 1,0,1
 675 1725 675 1725 696 1700 c 128,-1,2
 717 1675 717 1675 717 1645 c 0,3,4
 717 1628 717 1628 710 1613 c 128,-1,5
 703 1598 703 1598 685 1583.5 c 128,-1,6
 667 1569 667 1569 655.5 1560 c 128,-1,7
 644 1551 644 1551 613.5 1537 c 128,-1,8
 583 1523 583 1523 573 1518.5 c 128,-1,9
 563 1514 563 1514 528 1500 c 0,10,11
 520 1497 520 1497 516 1495 c 2,12,-1
 362 1440 l 1,13,-1
 324 1520 l 1,14,-1
 641 1739 l 1,0,1
1024 1739 m 1,15,16
 1058 1725 1058 1725 1079 1700 c 128,-1,17
 1100 1675 1100 1675 1100 1645 c 0,18,19
 1100 1628 1100 1628 1092.5 1612 c 128,-1,20
 1085 1596 1085 1596 1066 1581 c 128,-1,21
 1047 1566 1047 1566 1034.5 1556.5 c 128,-1,22
 1022 1547 1022 1547 989.5 1532.5 c 128,-1,23
 957 1518 957 1518 947 1514 c 128,-1,24
 937 1510 937 1510 901 1495 c 1,25,-1
 745 1440 l 1,26,-1
 707 1520 l 1,27,-1
 1024 1739 l 1,15,16
596 1393 m 0,28,29
 1120 1393 1120 1393 1120 694 c 0,30,31
 1120 -45 1120 -45 596 -45 c 0,32,33
 477 -45 477 -45 385.5 -9.5 c 128,-1,34
 294 26 294 26 235 88.5 c 128,-1,35
 176 151 176 151 138.5 242.5 c 128,-1,36
 101 334 101 334 85.5 438 c 128,-1,37
 70 542 70 542 70 670 c 0,38,39
 70 793 70 793 86.5 897.5 c 128,-1,40
 103 1002 103 1002 141.5 1095 c 128,-1,41
 180 1188 180 1188 239 1253 c 128,-1,42
 298 1318 298 1318 389 1355.5 c 128,-1,43
 480 1393 480 1393 596 1393 c 0,28,29
596 98 m 128,-1,45
 648 98 648 98 689 118 c 128,-1,46
 730 138 730 138 757.5 169 c 128,-1,47
 785 200 785 200 805 249 c 128,-1,48
 825 298 825 298 835.5 345.5 c 128,-1,49
 846 393 846 393 852.5 456 c 128,-1,50
 859 519 859 519 860.5 568 c 128,-1,51
 862 617 862 617 862 680 c 0,52,53
 862 739 862 739 860 788.5 c 128,-1,54
 858 838 858 838 851 898 c 128,-1,55
 844 958 844 958 833 1006 c 128,-1,56
 822 1054 822 1054 801.5 1101 c 128,-1,57
 781 1148 781 1148 754 1179 c 128,-1,58
 727 1210 727 1210 686.5 1229.5 c 128,-1,59
 646 1249 646 1249 596 1249 c 0,60,61
 538 1249 538 1249 492.5 1224.5 c 128,-1,62
 447 1200 447 1200 418.5 1154.5 c 128,-1,63
 390 1109 390 1109 371 1056.5 c 128,-1,64
 352 1004 352 1004 343.5 934.5 c 128,-1,65
 335 865 335 865 331.5 807.5 c 128,-1,66
 328 750 328 750 328 680 c 0,67,68
 328 617 328 617 329.5 568.5 c 128,-1,69
 331 520 331 520 337.5 456.5 c 128,-1,70
 344 393 344 393 355 345.5 c 128,-1,71
 366 298 366 298 386 249 c 128,-1,72
 406 200 406 200 433.5 169 c 128,-1,73
 461 138 461 138 502.5 118 c 128,-1,44
 544 98 544 98 596 98 c 128,-1,45
EndSplineSet
Validated: 1
Position2: "'cpsp' Capital Spacing lookup 3 subtable" dx=10 dy=0 dh=20 dv=0
EndChar

StartChar: Omacron
Encoding: 332 332 94
Width: 1189
Flags: MW
HStem: -45 143<471 720 471 800> 1249 143<475 716> 1520 168<418 758 328 860>
VStem: 70 258<555 801 555 867> 862 258<555 801>
LayerCount: 2
Fore
SplineSet
860 1688 m 1,0,1
 877 1646 877 1646 877 1610 c 0,2,3
 877 1520 877 1520 758 1520 c 2,4,-1
 328 1520 l 1,5,6
 313 1554 313 1554 313 1593 c 0,7,8
 313 1637 313 1637 341 1662.5 c 128,-1,9
 369 1688 369 1688 418 1688 c 2,10,-1
 860 1688 l 1,0,1
596 1393 m 0,11,12
 1120 1393 1120 1393 1120 694 c 0,13,14
 1120 -45 1120 -45 596 -45 c 0,15,16
 477 -45 477 -45 385.5 -9.5 c 128,-1,17
 294 26 294 26 235 88.5 c 128,-1,18
 176 151 176 151 138.5 242.5 c 128,-1,19
 101 334 101 334 85.5 438 c 128,-1,20
 70 542 70 542 70 670 c 0,21,22
 70 793 70 793 86.5 897.5 c 128,-1,23
 103 1002 103 1002 141.5 1095 c 128,-1,24
 180 1188 180 1188 239 1253 c 128,-1,25
 298 1318 298 1318 389 1355.5 c 128,-1,26
 480 1393 480 1393 596 1393 c 0,11,12
596 98 m 128,-1,28
 648 98 648 98 689 118 c 128,-1,29
 730 138 730 138 757.5 169 c 128,-1,30
 785 200 785 200 805 249 c 128,-1,31
 825 298 825 298 835.5 345.5 c 128,-1,32
 846 393 846 393 852.5 456 c 128,-1,33
 859 519 859 519 860.5 568 c 128,-1,34
 862 617 862 617 862 680 c 0,35,36
 862 739 862 739 860 788.5 c 128,-1,37
 858 838 858 838 851 898 c 128,-1,38
 844 958 844 958 833 1006 c 128,-1,39
 822 1054 822 1054 801.5 1101 c 128,-1,40
 781 1148 781 1148 754 1179 c 128,-1,41
 727 1210 727 1210 686.5 1229.5 c 128,-1,42
 646 1249 646 1249 596 1249 c 0,43,44
 538 1249 538 1249 492.5 1224.5 c 128,-1,45
 447 1200 447 1200 418.5 1154.5 c 128,-1,46
 390 1109 390 1109 371 1056.5 c 128,-1,47
 352 1004 352 1004 343.5 934.5 c 128,-1,48
 335 865 335 865 331.5 807.5 c 128,-1,49
 328 750 328 750 328 680 c 0,50,51
 328 617 328 617 329.5 568.5 c 128,-1,52
 331 520 331 520 337.5 456.5 c 128,-1,53
 344 393 344 393 355 345.5 c 128,-1,54
 366 298 366 298 386 249 c 128,-1,55
 406 200 406 200 433.5 169 c 128,-1,56
 461 138 461 138 502.5 118 c 128,-1,27
 544 98 544 98 596 98 c 128,-1,28
EndSplineSet
Validated: 1
Position2: "'cpsp' Capital Spacing lookup 3 subtable" dx=10 dy=0 dh=20 dv=0
EndChar

StartChar: Oogonek
Encoding: 490 490 95
Width: 1189
Flags: MW
HStem: -524 119<732 768> -45 143<471 604> 1249 143<475 716>
VStem: 70 258<555 801 555 867> 510 152<-326 -260> 862 258<555 801> 872 23
LayerCount: 2
Fore
SplineSet
825 0 m 1,0,1
 751 -56 751 -56 706.5 -131.5 c 128,-1,2
 662 -207 662 -207 662 -287 c 0,3,4
 662 -348 662 -348 687 -377 c 128,-1,5
 712 -406 712 -406 776 -406 c 0,6,7
 834 -406 834 -406 872 -362 c 1,8,9
 895 -382 895 -382 895 -414 c 0,10,11
 895 -471 895 -471 846 -497.5 c 128,-1,12
 797 -524 797 -524 727 -524 c 0,13,14
 624 -524 624 -524 567 -469 c 128,-1,15
 510 -414 510 -414 510 -313 c 0,16,17
 510 -160 510 -160 647 -43 c 1,18,19
 631 -45 631 -45 596 -45 c 0,20,21
 477 -45 477 -45 385.5 -9.5 c 128,-1,22
 294 26 294 26 235 88.5 c 128,-1,23
 176 151 176 151 138.5 242.5 c 128,-1,24
 101 334 101 334 85.5 438 c 128,-1,25
 70 542 70 542 70 670 c 0,26,27
 70 793 70 793 86.5 897.5 c 128,-1,28
 103 1002 103 1002 141.5 1095 c 128,-1,29
 180 1188 180 1188 239 1253 c 128,-1,30
 298 1318 298 1318 389 1355.5 c 128,-1,31
 480 1393 480 1393 596 1393 c 0,32,33
 1120 1393 1120 1393 1120 694 c 0,34,35
 1120 138 1120 138 825 0 c 1,0,1
596 98 m 128,-1,37
 648 98 648 98 689 118 c 128,-1,38
 730 138 730 138 757.5 169 c 128,-1,39
 785 200 785 200 805 249 c 128,-1,40
 825 298 825 298 835.5 345.5 c 128,-1,41
 846 393 846 393 852.5 456 c 128,-1,42
 859 519 859 519 860.5 568 c 128,-1,43
 862 617 862 617 862 680 c 0,44,45
 862 739 862 739 860 788.5 c 128,-1,46
 858 838 858 838 851 898 c 128,-1,47
 844 958 844 958 833 1006 c 128,-1,48
 822 1054 822 1054 801.5 1101 c 128,-1,49
 781 1148 781 1148 754 1179 c 128,-1,50
 727 1210 727 1210 686.5 1229.5 c 128,-1,51
 646 1249 646 1249 596 1249 c 0,52,53
 538 1249 538 1249 492.5 1224.5 c 128,-1,54
 447 1200 447 1200 418.5 1154.5 c 128,-1,55
 390 1109 390 1109 371 1056.5 c 128,-1,56
 352 1004 352 1004 343.5 934.5 c 128,-1,57
 335 865 335 865 331.5 807.5 c 128,-1,58
 328 750 328 750 328 680 c 0,59,60
 328 617 328 617 329.5 568.5 c 128,-1,61
 331 520 331 520 337.5 456.5 c 128,-1,62
 344 393 344 393 355 345.5 c 128,-1,63
 366 298 366 298 386 249 c 128,-1,64
 406 200 406 200 433.5 169 c 128,-1,65
 461 138 461 138 502.5 118 c 128,-1,36
 544 98 544 98 596 98 c 128,-1,37
EndSplineSet
Validated: 1
Position2: "'cpsp' Capital Spacing lookup 3 subtable" dx=10 dy=0 dh=20 dv=0
EndChar

StartChar: Oslash
Encoding: 216 216 96
Width: 1189
Flags: MW
HStem: -45 143<544 720 544 800> 1249 143<475 649> 1419 41G<1067 1067>
VStem: 70 258<642 801 642 867> 862 258<555 713>
LayerCount: 2
Fore
SplineSet
1067 1460 m 1,0,1
 1098 1455 1098 1455 1138 1431.5 c 128,-1,2
 1178 1408 1178 1408 1178 1374 c 0,3,4
 1178 1347 1178 1347 1147 1303 c 2,5,-1
 1034 1145 l 1,6,7
 1120 974 1120 974 1120 694 c 0,8,9
 1120 -45 1120 -45 596 -45 c 0,10,11
 385 -45 385 -45 262 63 c 1,12,-1
 139 -109 l 1,13,14
 108 -104 108 -104 68.5 -80.5 c 128,-1,15
 29 -57 29 -57 29 -23 c 0,16,17
 29 6 29 6 59 49 c 2,18,-1
 162 193 l 1,19,20
 70 362 70 362 70 670 c 0,21,22
 70 793 70 793 86.5 897.5 c 128,-1,23
 103 1002 103 1002 141.5 1095 c 128,-1,24
 180 1188 180 1188 239 1253 c 128,-1,25
 298 1318 298 1318 389 1355.5 c 128,-1,26
 480 1393 480 1393 596 1393 c 0,27,28
 810 1393 810 1393 936 1276 c 1,29,-1
 1067 1460 l 1,0,1
805 1094 m 1,30,31
 739 1249 739 1249 596 1249 c 0,32,33
 538 1249 538 1249 492.5 1224.5 c 128,-1,34
 447 1200 447 1200 418.5 1154.5 c 128,-1,35
 390 1109 390 1109 371 1056.5 c 128,-1,36
 352 1004 352 1004 343.5 934.5 c 128,-1,37
 335 865 335 865 331.5 807.5 c 128,-1,38
 328 750 328 750 328 680 c 0,39,40
 328 540 328 540 338 440 c 1,41,-1
 805 1094 l 1,30,31
389 242 m 1,42,43
 454 98 454 98 596 98 c 0,44,45
 648 98 648 98 689 118 c 128,-1,46
 730 138 730 138 757.5 169 c 128,-1,47
 785 200 785 200 805 249 c 128,-1,48
 825 298 825 298 835.5 345.5 c 128,-1,49
 846 393 846 393 852.5 456 c 128,-1,50
 859 519 859 519 860.5 568 c 128,-1,51
 862 617 862 617 862 680 c 0,52,53
 862 801 862 801 852 891 c 1,54,-1
 389 242 l 1,42,43
EndSplineSet
Validated: 1
Position2: "'cpsp' Capital Spacing lookup 3 subtable" dx=10 dy=0 dh=20 dv=0
EndChar

StartChar: Oslashacute
Encoding: 510 510 97
Width: 1189
Flags: MW
HStem: -45 143<544 720 544 800> 1249 143<475 649> 1419 41G<1067 1067>
VStem: 70 258<642 801 642 867> 862 258<555 713>
LayerCount: 2
Fore
SplineSet
895 1714 m 1,0,1
 954 1672 954 1672 954 1610 c 0,2,3
 954 1571 954 1571 935 1544.5 c 128,-1,4
 916 1518 916 1518 880 1504.5 c 128,-1,5
 844 1491 844 1491 810 1485 c 128,-1,6
 776 1479 776 1479 727 1475 c 2,7,-1
 483 1456 l 1,8,-1
 461 1542 l 1,9,-1
 895 1714 l 1,0,1
1067 1460 m 1,10,11
 1098 1455 1098 1455 1138 1431.5 c 128,-1,12
 1178 1408 1178 1408 1178 1374 c 0,13,14
 1178 1347 1178 1347 1147 1303 c 2,15,-1
 1034 1145 l 1,16,17
 1120 974 1120 974 1120 694 c 0,18,19
 1120 -45 1120 -45 596 -45 c 0,20,21
 385 -45 385 -45 262 63 c 1,22,-1
 139 -109 l 1,23,24
 108 -104 108 -104 68.5 -80.5 c 128,-1,25
 29 -57 29 -57 29 -23 c 0,26,27
 29 6 29 6 59 49 c 2,28,-1
 162 193 l 1,29,30
 70 362 70 362 70 670 c 0,31,32
 70 793 70 793 86.5 897.5 c 128,-1,33
 103 1002 103 1002 141.5 1095 c 128,-1,34
 180 1188 180 1188 239 1253 c 128,-1,35
 298 1318 298 1318 389 1355.5 c 128,-1,36
 480 1393 480 1393 596 1393 c 0,37,38
 810 1393 810 1393 936 1276 c 1,39,-1
 1067 1460 l 1,10,11
805 1094 m 1,40,41
 739 1249 739 1249 596 1249 c 0,42,43
 538 1249 538 1249 492.5 1224.5 c 128,-1,44
 447 1200 447 1200 418.5 1154.5 c 128,-1,45
 390 1109 390 1109 371 1056.5 c 128,-1,46
 352 1004 352 1004 343.5 934.5 c 128,-1,47
 335 865 335 865 331.5 807.5 c 128,-1,48
 328 750 328 750 328 680 c 0,49,50
 328 540 328 540 338 440 c 1,51,-1
 805 1094 l 1,40,41
389 242 m 1,52,53
 454 98 454 98 596 98 c 0,54,55
 648 98 648 98 689 118 c 128,-1,56
 730 138 730 138 757.5 169 c 128,-1,57
 785 200 785 200 805 249 c 128,-1,58
 825 298 825 298 835.5 345.5 c 128,-1,59
 846 393 846 393 852.5 456 c 128,-1,60
 859 519 859 519 860.5 568 c 128,-1,61
 862 617 862 617 862 680 c 0,62,63
 862 801 862 801 852 891 c 1,64,-1
 389 242 l 1,52,53
EndSplineSet
Validated: 1
Position2: "'cpsp' Capital Spacing lookup 3 subtable" dx=10 dy=0 dh=20 dv=0
EndChar

StartChar: Otilde
Encoding: 213 213 98
Width: 1189
Flags: MW
HStem: -45 143<471 720 471 800> 1249 143<475 716> 1475 174<735 759 700 815> 1524 174<431 456 375 489>
VStem: 70 258<555 801 555 867> 862 258<555 801>
LayerCount: 2
Fore
SplineSet
850 1679 m 1,0,1
 905 1643 905 1643 905 1575 c 0,2,3
 905 1525 905 1525 870.5 1500 c 128,-1,4
 836 1475 836 1475 780 1475 c 0,5,6
 734 1475 734 1475 611.5 1499.5 c 128,-1,7
 489 1524 489 1524 449 1524 c 0,8,9
 373 1524 373 1524 340 1493 c 1,10,11
 285 1529 285 1529 285 1597 c 0,12,13
 285 1647 285 1647 319.5 1672.5 c 128,-1,14
 354 1698 354 1698 410 1698 c 0,15,16
 457 1698 457 1698 579 1673.5 c 128,-1,17
 701 1649 701 1649 741 1649 c 0,18,19
 818 1649 818 1649 850 1679 c 1,0,1
596 1393 m 0,20,21
 1120 1393 1120 1393 1120 694 c 0,22,23
 1120 -45 1120 -45 596 -45 c 0,24,25
 477 -45 477 -45 385.5 -9.5 c 128,-1,26
 294 26 294 26 235 88.5 c 128,-1,27
 176 151 176 151 138.5 242.5 c 128,-1,28
 101 334 101 334 85.5 438 c 128,-1,29
 70 542 70 542 70 670 c 0,30,31
 70 793 70 793 86.5 897.5 c 128,-1,32
 103 1002 103 1002 141.5 1095 c 128,-1,33
 180 1188 180 1188 239 1253 c 128,-1,34
 298 1318 298 1318 389 1355.5 c 128,-1,35
 480 1393 480 1393 596 1393 c 0,20,21
596 98 m 128,-1,37
 648 98 648 98 689 118 c 128,-1,38
 730 138 730 138 757.5 169 c 128,-1,39
 785 200 785 200 805 249 c 128,-1,40
 825 298 825 298 835.5 345.5 c 128,-1,41
 846 393 846 393 852.5 456 c 128,-1,42
 859 519 859 519 860.5 568 c 128,-1,43
 862 617 862 617 862 680 c 0,44,45
 862 739 862 739 860 788.5 c 128,-1,46
 858 838 858 838 851 898 c 128,-1,47
 844 958 844 958 833 1006 c 128,-1,48
 822 1054 822 1054 801.5 1101 c 128,-1,49
 781 1148 781 1148 754 1179 c 128,-1,50
 727 1210 727 1210 686.5 1229.5 c 128,-1,51
 646 1249 646 1249 596 1249 c 0,52,53
 538 1249 538 1249 492.5 1224.5 c 128,-1,54
 447 1200 447 1200 418.5 1154.5 c 128,-1,55
 390 1109 390 1109 371 1056.5 c 128,-1,56
 352 1004 352 1004 343.5 934.5 c 128,-1,57
 335 865 335 865 331.5 807.5 c 128,-1,58
 328 750 328 750 328 680 c 0,59,60
 328 617 328 617 329.5 568.5 c 128,-1,61
 331 520 331 520 337.5 456.5 c 128,-1,62
 344 393 344 393 355 345.5 c 128,-1,63
 366 298 366 298 386 249 c 128,-1,64
 406 200 406 200 433.5 169 c 128,-1,65
 461 138 461 138 502.5 118 c 128,-1,36
 544 98 544 98 596 98 c 128,-1,37
EndSplineSet
Validated: 1
Position2: "'cpsp' Capital Spacing lookup 3 subtable" dx=10 dy=0 dh=20 dv=0
EndChar

StartChar: OE
Encoding: 338 338 99
Width: 1552
Flags: MW
HStem: -45 143<471 639 471 641> 0 152<1057 1477> 618 152<1057 1401 1057 1401> 1200 152<1057 1462 1057 1057> 1249 143<475 638>
VStem: 70 258<555 801 555 867> 817 240<199 618 770 1147 1147 1147>
LayerCount: 2
Fore
SplineSet
1477 0 m 1,0,-1
 823 0 l 1,1,2
 725 -45 725 -45 596 -45 c 0,3,4
 477 -45 477 -45 385.5 -9.5 c 128,-1,5
 294 26 294 26 235 88.5 c 128,-1,6
 176 151 176 151 138.5 242.5 c 128,-1,7
 101 334 101 334 85.5 438 c 128,-1,8
 70 542 70 542 70 670 c 0,9,10
 70 793 70 793 86.5 897.5 c 128,-1,11
 103 1002 103 1002 141.5 1095 c 128,-1,12
 180 1188 180 1188 239 1253 c 128,-1,13
 298 1318 298 1318 389 1355.5 c 128,-1,14
 480 1393 480 1393 596 1393 c 0,15,16
 724 1393 724 1393 817 1352 c 1,17,-1
 1462 1352 l 1,18,-1
 1462 1200 l 1,19,-1
 1057 1200 l 1,20,-1
 1057 770 l 1,21,-1
 1401 770 l 1,22,-1
 1401 618 l 1,23,-1
 1057 618 l 1,24,-1
 1057 152 l 1,25,-1
 1491 152 l 1,26,-1
 1477 0 l 1,0,-1
817 1147 m 1,27,28
 715 1249 715 1249 596 1249 c 0,29,30
 538 1249 538 1249 492.5 1224.5 c 128,-1,31
 447 1200 447 1200 418.5 1154.5 c 128,-1,32
 390 1109 390 1109 371 1056.5 c 128,-1,33
 352 1004 352 1004 343.5 934.5 c 128,-1,34
 335 865 335 865 331.5 807.5 c 128,-1,35
 328 750 328 750 328 680 c 0,36,37
 328 617 328 617 329.5 568.5 c 128,-1,38
 331 520 331 520 337.5 456.5 c 128,-1,39
 344 393 344 393 355 345.5 c 128,-1,40
 366 298 366 298 386 249 c 128,-1,41
 406 200 406 200 433.5 169 c 128,-1,42
 461 138 461 138 502.5 118 c 128,-1,43
 544 98 544 98 596 98 c 0,44,45
 716 98 716 98 817 199 c 1,46,-1
 817 1147 l 1,27,28
EndSplineSet
Validated: 1
Position2: "'cpsp' Capital Spacing lookup 3 subtable" dx=10 dy=0 dh=20 dv=0
EndChar

StartChar: P
Encoding: 80 80 100
Width: 1013
Flags: MW
HStem: 573 94<444 726> 1217 143<473 580>
VStem: 123 240<0 1206 0 1343 0 1343> 748 246<860 1049>
LayerCount: 2
Fore
SplineSet
123 1343 m 1,0,1
 380 1360 380 1360 508 1360 c 0,2,3
 621 1360 621 1360 707 1339.5 c 128,-1,4
 793 1319 793 1319 859 1275 c 128,-1,5
 925 1231 925 1231 959 1154.5 c 128,-1,6
 993 1078 993 1078 993 971 c 0,7,8
 993 793 993 793 888.5 683 c 128,-1,9
 784 573 784 573 608 573 c 0,10,11
 541 573 541 573 492.5 595.5 c 128,-1,12
 444 618 444 618 444 668 c 1,13,14
 599 668 599 668 673.5 739 c 128,-1,15
 748 810 748 810 748 963 c 0,16,17
 748 1092 748 1092 685.5 1154.5 c 128,-1,18
 623 1217 623 1217 494 1217 c 0,19,20
 437 1217 437 1217 362 1206 c 1,21,-1
 362 0 l 1,22,-1
 123 0 l 1,23,-1
 123 1343 l 1,0,1
EndSplineSet
Validated: 1
Position2: "'cpsp' Capital Spacing lookup 3 subtable" dx=10 dy=0 dh=20 dv=0
EndChar

StartChar: Thorn
Encoding: 222 222 101
Width: 1013
Flags: MW
HStem: 315 94<444 726> 958 143<484 580> 1311 41G<123 362 362 362>
VStem: 123 240<0 948 1098 1352> 748 246<602 791>
LayerCount: 2
Fore
SplineSet
362 1098 m 1,0,1
 460 1102 460 1102 508 1102 c 0,2,3
 621 1102 621 1102 707 1081.5 c 128,-1,4
 793 1061 793 1061 859 1017 c 128,-1,5
 925 973 925 973 959 896.5 c 128,-1,6
 993 820 993 820 993 713 c 0,7,8
 993 535 993 535 888.5 425 c 128,-1,9
 784 315 784 315 608 315 c 0,10,11
 541 315 541 315 492.5 337.5 c 128,-1,12
 444 360 444 360 444 410 c 1,13,14
 599 410 599 410 673.5 481 c 128,-1,15
 748 552 748 552 748 705 c 0,16,17
 748 834 748 834 685.5 896 c 128,-1,18
 623 958 623 958 494 958 c 0,19,20
 430 958 430 958 362 948 c 1,21,-1
 362 0 l 1,22,-1
 123 0 l 1,23,-1
 123 1352 l 1,24,-1
 362 1352 l 1,25,-1
 362 1098 l 1,0,1
EndSplineSet
Validated: 1
Position2: "'cpsp' Capital Spacing lookup 3 subtable" dx=10 dy=0 dh=20 dv=0
EndChar

StartChar: Q
Encoding: 81 81 102
Width: 1189
Flags: MW
HStem: -293 201<893 972 891 1035> -172 145<431 438 401 528> -45 143<596 720 471 799> 1249 143<475 716>
VStem: 70 258<555 801 555 867> 862 258<555 801>
LayerCount: 2
Fore
SplineSet
596 1393 m 0,0,1
 1120 1393 1120 1393 1120 694 c 0,2,3
 1120 -45 1120 -45 596 -45 c 1,4,5
 800 -92 800 -92 942 -92 c 0,6,7
 1050 -92 1050 -92 1104 -47 c 1,8,9
 1151 -111 1151 -111 1151 -166 c 0,10,11
 1151 -232 1151 -232 1107 -262.5 c 128,-1,12
 1063 -293 1063 -293 989 -293 c 0,13,14
 924 -293 924 -293 845.5 -274 c 128,-1,15
 767 -255 767 -255 706.5 -232.5 c 128,-1,16
 646 -210 646 -210 574 -191 c 128,-1,17
 502 -172 502 -172 449 -172 c 0,18,19
 374 -172 374 -172 336 -188 c 1,20,21
 305 -157 305 -157 305 -117 c 0,22,23
 305 -27 305 -27 438 -27 c 1,24,25
 335 -1 335 -1 262 61.5 c 128,-1,26
 189 124 189 124 148 218 c 128,-1,27
 107 312 107 312 88.5 422.5 c 128,-1,28
 70 533 70 533 70 670 c 0,29,30
 70 793 70 793 86.5 897.5 c 128,-1,31
 103 1002 103 1002 141.5 1095 c 128,-1,32
 180 1188 180 1188 239 1253 c 128,-1,33
 298 1318 298 1318 389 1355.5 c 128,-1,34
 480 1393 480 1393 596 1393 c 0,0,1
596 1249 m 0,35,36
 538 1249 538 1249 492.5 1224.5 c 128,-1,37
 447 1200 447 1200 418.5 1154.5 c 128,-1,38
 390 1109 390 1109 371 1056.5 c 128,-1,39
 352 1004 352 1004 343.5 934.5 c 128,-1,40
 335 865 335 865 331.5 807.5 c 128,-1,41
 328 750 328 750 328 680 c 0,42,43
 328 617 328 617 329.5 568.5 c 128,-1,44
 331 520 331 520 337.5 456.5 c 128,-1,45
 344 393 344 393 355 345.5 c 128,-1,46
 366 298 366 298 386 249 c 128,-1,47
 406 200 406 200 433.5 169 c 128,-1,48
 461 138 461 138 502.5 118 c 128,-1,49
 544 98 544 98 596 98 c 128,-1,50
 648 98 648 98 689 118 c 128,-1,51
 730 138 730 138 757.5 169 c 128,-1,52
 785 200 785 200 805 249 c 128,-1,53
 825 298 825 298 835.5 345.5 c 128,-1,54
 846 393 846 393 852.5 456 c 128,-1,55
 859 519 859 519 860.5 568 c 128,-1,56
 862 617 862 617 862 680 c 0,57,58
 862 739 862 739 860 788.5 c 128,-1,59
 858 838 858 838 851 898 c 128,-1,60
 844 958 844 958 833 1006 c 128,-1,61
 822 1054 822 1054 801.5 1101 c 128,-1,62
 781 1148 781 1148 754 1179 c 128,-1,63
 727 1210 727 1210 686.5 1229.5 c 128,-1,64
 646 1249 646 1249 596 1249 c 0,35,36
EndSplineSet
Validated: 1
Position2: "'cpsp' Capital Spacing lookup 3 subtable" dx=10 dy=0 dh=20 dv=0
EndChar

StartChar: R
Encoding: 82 82 103
Width: 1087
Flags: MW
HStem: 1217 143<473 580>
VStem: 123 240<0 1206 0 1343 0 1343> 748 246<888 1055>
LayerCount: 2
Fore
SplineSet
123 1343 m 1,0,1
 380 1360 380 1360 508 1360 c 0,2,3
 993 1360 993 1360 993 981 c 0,4,5
 993 842 993 842 922.5 743 c 128,-1,6
 852 644 852 644 729 610 c 1,7,-1
 1085 0 l 1,8,-1
 823 0 l 1,9,-1
 459 647 l 2,10,11
 446 670 446 670 446 688 c 1,12,13
 601 688 601 688 674.5 756.5 c 128,-1,14
 748 825 748 825 748 973 c 0,15,16
 748 1096 748 1096 685.5 1156.5 c 128,-1,17
 623 1217 623 1217 494 1217 c 0,18,19
 437 1217 437 1217 362 1206 c 1,20,-1
 362 0 l 1,21,-1
 123 0 l 1,22,-1
 123 1343 l 1,0,1
EndSplineSet
Validated: 1
Position2: "'cpsp' Capital Spacing lookup 3 subtable" dx=10 dy=0 dh=20 dv=0
EndChar

StartChar: Racute
Encoding: 340 340 104
Width: 1087
Flags: MW
HStem: 1217 143<473 580>
VStem: 123 240<0 1206 0 1343 0 1343> 748 246<888 1055>
LayerCount: 2
Fore
SplineSet
784 1714 m 1,0,1
 844 1671 844 1671 844 1610 c 0,2,3
 844 1571 844 1571 825 1544.5 c 128,-1,4
 806 1518 806 1518 769.5 1504.5 c 128,-1,5
 733 1491 733 1491 699 1485 c 128,-1,6
 665 1479 665 1479 616 1475 c 2,7,-1
 373 1456 l 1,8,-1
 350 1542 l 1,9,-1
 784 1714 l 1,0,1
123 1343 m 1,10,11
 380 1360 380 1360 508 1360 c 0,12,13
 993 1360 993 1360 993 981 c 0,14,15
 993 842 993 842 922.5 743 c 128,-1,16
 852 644 852 644 729 610 c 1,17,-1
 1085 0 l 1,18,-1
 823 0 l 1,19,-1
 459 647 l 2,20,21
 446 670 446 670 446 688 c 1,22,23
 601 688 601 688 674.5 756.5 c 128,-1,24
 748 825 748 825 748 973 c 0,25,26
 748 1096 748 1096 685.5 1156.5 c 128,-1,27
 623 1217 623 1217 494 1217 c 0,28,29
 437 1217 437 1217 362 1206 c 1,30,-1
 362 0 l 1,31,-1
 123 0 l 1,32,-1
 123 1343 l 1,10,11
EndSplineSet
Validated: 1
Position2: "'cpsp' Capital Spacing lookup 3 subtable" dx=10 dy=0 dh=20 dv=0
EndChar

StartChar: Rcaron
Encoding: 344 344 105
Width: 1087
Flags: MW
HStem: 1217 143<473 580>
VStem: 123 240<0 1206 0 1343 0 1343> 748 246<888 1055>
LayerCount: 2
Fore
SplineSet
809 1636 m 1,0,-1
 512 1407 l 1,1,-1
 506 1407 l 1,2,-1
 201 1636 l 1,3,-1
 260 1708 l 1,4,-1
 506 1579 l 1,5,-1
 750 1708 l 1,6,-1
 809 1636 l 1,0,-1
123 1343 m 1,7,8
 380 1360 380 1360 508 1360 c 0,9,10
 993 1360 993 1360 993 981 c 0,11,12
 993 842 993 842 922.5 743 c 128,-1,13
 852 644 852 644 729 610 c 1,14,-1
 1085 0 l 1,15,-1
 823 0 l 1,16,-1
 459 647 l 2,17,18
 446 670 446 670 446 688 c 1,19,20
 601 688 601 688 674.5 756.5 c 128,-1,21
 748 825 748 825 748 973 c 0,22,23
 748 1096 748 1096 685.5 1156.5 c 128,-1,24
 623 1217 623 1217 494 1217 c 0,25,26
 437 1217 437 1217 362 1206 c 1,27,-1
 362 0 l 1,28,-1
 123 0 l 1,29,-1
 123 1343 l 1,7,8
EndSplineSet
Validated: 1
Position2: "'cpsp' Capital Spacing lookup 3 subtable" dx=10 dy=0 dh=20 dv=0
EndChar

StartChar: Rcommaaccent
Encoding: 342 342 106
Width: 1087
Flags: MW
HStem: 1217 143<473 580>
VStem: 123 240<0 1206 0 1343 0 1343> 526 209<-298 -233> 748 246<888 1055>
LayerCount: 2
Fore
SplineSet
123 1343 m 1,0,1
 380 1360 380 1360 508 1360 c 0,2,3
 993 1360 993 1360 993 981 c 0,4,5
 993 842 993 842 922.5 743 c 128,-1,6
 852 644 852 644 729 610 c 1,7,-1
 1085 0 l 1,8,-1
 823 0 l 1,9,-1
 459 647 l 2,10,11
 446 670 446 670 446 688 c 1,12,13
 601 688 601 688 674.5 756.5 c 128,-1,14
 748 825 748 825 748 973 c 0,15,16
 748 1096 748 1096 685.5 1156.5 c 128,-1,17
 623 1217 623 1217 494 1217 c 0,18,19
 437 1217 437 1217 362 1206 c 1,20,-1
 362 0 l 1,21,-1
 123 0 l 1,22,-1
 123 1343 l 1,0,1
592 -102 m 0,23,24
 663 -102 663 -102 699 -142 c 128,-1,25
 735 -182 735 -182 735 -254 c 0,26,27
 735 -340 735 -340 673.5 -412.5 c 128,-1,28
 612 -485 612 -485 528 -485 c 0,29,30
 496 -485 496 -485 459 -473 c 1,31,32
 526 -375 526 -375 526 -260 c 0,33,34
 526 -185 526 -185 487 -127 c 1,35,36
 535 -102 535 -102 592 -102 c 0,23,24
EndSplineSet
Validated: 1
Position2: "'cpsp' Capital Spacing lookup 3 subtable" dx=10 dy=0 dh=20 dv=0
EndChar

StartChar: Rdotbelow
Encoding: 7770 7770 107
Width: 1087
Flags: MW
HStem: -369 258<549 630> 1217 143<473 580>
VStem: 123 240<0 1206 0 1343 0 1343> 436 307<-282 -198> 748 246<888 1055>
LayerCount: 2
Fore
SplineSet
123 1343 m 1,0,1
 380 1360 380 1360 508 1360 c 0,2,3
 993 1360 993 1360 993 981 c 0,4,5
 993 842 993 842 922.5 743 c 128,-1,6
 852 644 852 644 729 610 c 1,7,-1
 1085 0 l 1,8,-1
 823 0 l 1,9,-1
 459 647 l 2,10,11
 446 670 446 670 446 688 c 1,12,13
 601 688 601 688 674.5 756.5 c 128,-1,14
 748 825 748 825 748 973 c 0,15,16
 748 1096 748 1096 685.5 1156.5 c 128,-1,17
 623 1217 623 1217 494 1217 c 0,18,19
 437 1217 437 1217 362 1206 c 1,20,-1
 362 0 l 1,21,-1
 123 0 l 1,22,-1
 123 1343 l 1,0,1
592 -111 m 128,-1,24
 660 -111 660 -111 701.5 -144 c 128,-1,25
 743 -177 743 -177 743 -238 c 0,26,27
 743 -301 743 -301 699 -335 c 128,-1,28
 655 -369 655 -369 586 -369 c 0,29,30
 519 -369 519 -369 477.5 -336 c 128,-1,31
 436 -303 436 -303 436 -242 c 0,32,33
 436 -179 436 -179 480 -145 c 128,-1,23
 524 -111 524 -111 592 -111 c 128,-1,24
EndSplineSet
Validated: 1
Position2: "'cpsp' Capital Spacing lookup 3 subtable" dx=10 dy=0 dh=20 dv=0
EndChar

StartChar: S
Encoding: 83 83 108
Width: 966
Flags: MW
HStem: -45 135<412 534 412 584> 1257 135<431 537>
VStem: 41 250<221 299 221 302> 90 225<953 1158 953 1159> 641 250<1063 1134> 680 225<218 431>
LayerCount: 2
Fore
SplineSet
500 1393 m 0,0,1
 566 1393 566 1393 622.5 1384 c 128,-1,2
 679 1375 679 1375 729.5 1354 c 128,-1,3
 780 1333 780 1333 815 1300.5 c 128,-1,4
 850 1268 850 1268 870.5 1219 c 128,-1,5
 891 1170 891 1170 891 1108 c 0,6,7
 891 1035 891 1035 847.5 988.5 c 128,-1,8
 804 942 804 942 731 942 c 0,9,10
 661 942 661 942 625 975 c 1,11,12
 641 1021 641 1021 641 1077 c 0,13,14
 641 1257 641 1257 481 1257 c 0,15,16
 404 1257 404 1257 359.5 1219 c 128,-1,17
 315 1181 315 1181 315 1108 c 0,18,19
 315 1046 315 1046 347.5 990.5 c 128,-1,20
 380 935 380 935 432 891.5 c 128,-1,21
 484 848 484 848 547 805 c 128,-1,22
 610 762 610 762 673 715 c 128,-1,23
 736 668 736 668 788 616.5 c 128,-1,24
 840 565 840 565 872.5 493 c 128,-1,25
 905 421 905 421 905 338 c 0,26,27
 905 155 905 155 780 55 c 128,-1,28
 655 -45 655 -45 457 -45 c 0,29,30
 371 -45 371 -45 299 -28.5 c 128,-1,31
 227 -12 227 -12 167.5 22 c 128,-1,32
 108 56 108 56 74.5 115.5 c 128,-1,33
 41 175 41 175 41 254 c 0,34,35
 41 327 41 327 84.5 373.5 c 128,-1,36
 128 420 128 420 199 420 c 0,37,38
 269 420 269 420 305 387 c 1,39,40
 291 346 291 346 291 285 c 0,41,42
 291 90 291 90 475 90 c 0,43,44
 565 90 565 90 622.5 140 c 128,-1,45
 680 190 680 190 680 276 c 0,46,47
 680 338 680 338 647.5 393.5 c 128,-1,48
 615 449 615 449 563 492.5 c 128,-1,49
 511 536 511 536 448 579 c 128,-1,50
 385 622 385 622 322 669 c 128,-1,51
 259 716 259 716 207 768 c 128,-1,52
 155 820 155 820 122.5 892 c 128,-1,53
 90 964 90 964 90 1047 c 0,54,55
 90 1210 90 1210 206 1301.5 c 128,-1,56
 322 1393 322 1393 500 1393 c 0,0,1
EndSplineSet
Validated: 1
Position2: "'cpsp' Capital Spacing lookup 3 subtable" dx=10 dy=0 dh=20 dv=0
EndChar

StartChar: Sacute
Encoding: 346 346 109
Width: 966
Flags: MW
HStem: -45 135<412 534 412 584> 1257 135<431 537>
VStem: 41 250<221 299 221 302> 90 225<953 1158 953 1159> 641 250<1063 1134> 680 225<218 431>
LayerCount: 2
Fore
SplineSet
758 1712 m 1,0,1
 817 1670 817 1670 817 1608 c 0,2,3
 817 1569 817 1569 798 1542.5 c 128,-1,4
 779 1516 779 1516 743 1502.5 c 128,-1,5
 707 1489 707 1489 673 1483 c 128,-1,6
 639 1477 639 1477 590 1473 c 2,7,-1
 346 1454 l 1,8,-1
 324 1540 l 1,9,-1
 758 1712 l 1,0,1
500 1393 m 0,10,11
 566 1393 566 1393 622.5 1384 c 128,-1,12
 679 1375 679 1375 729.5 1354 c 128,-1,13
 780 1333 780 1333 815 1300.5 c 128,-1,14
 850 1268 850 1268 870.5 1219 c 128,-1,15
 891 1170 891 1170 891 1108 c 0,16,17
 891 1035 891 1035 847.5 988.5 c 128,-1,18
 804 942 804 942 731 942 c 0,19,20
 661 942 661 942 625 975 c 1,21,22
 641 1021 641 1021 641 1077 c 0,23,24
 641 1257 641 1257 481 1257 c 0,25,26
 404 1257 404 1257 359.5 1219 c 128,-1,27
 315 1181 315 1181 315 1108 c 0,28,29
 315 1046 315 1046 347.5 990.5 c 128,-1,30
 380 935 380 935 432 891.5 c 128,-1,31
 484 848 484 848 547 805 c 128,-1,32
 610 762 610 762 673 715 c 128,-1,33
 736 668 736 668 788 616.5 c 128,-1,34
 840 565 840 565 872.5 493 c 128,-1,35
 905 421 905 421 905 338 c 0,36,37
 905 155 905 155 780 55 c 128,-1,38
 655 -45 655 -45 457 -45 c 0,39,40
 371 -45 371 -45 299 -28.5 c 128,-1,41
 227 -12 227 -12 167.5 22 c 128,-1,42
 108 56 108 56 74.5 115.5 c 128,-1,43
 41 175 41 175 41 254 c 0,44,45
 41 327 41 327 84.5 373.5 c 128,-1,46
 128 420 128 420 199 420 c 0,47,48
 269 420 269 420 305 387 c 1,49,50
 291 346 291 346 291 285 c 0,51,52
 291 90 291 90 475 90 c 0,53,54
 565 90 565 90 622.5 140 c 128,-1,55
 680 190 680 190 680 276 c 0,56,57
 680 338 680 338 647.5 393.5 c 128,-1,58
 615 449 615 449 563 492.5 c 128,-1,59
 511 536 511 536 448 579 c 128,-1,60
 385 622 385 622 322 669 c 128,-1,61
 259 716 259 716 207 768 c 128,-1,62
 155 820 155 820 122.5 892 c 128,-1,63
 90 964 90 964 90 1047 c 0,64,65
 90 1210 90 1210 206 1301.5 c 128,-1,66
 322 1393 322 1393 500 1393 c 0,10,11
EndSplineSet
Validated: 1
Substitution2: "'locl' Localized Forms in Latin lookup 13 subtable" Sacute.loclPLK
Substitution2: "'aalt' Access All Alternates lookup 0 subtable" Sacute.loclPLK
Position2: "'cpsp' Capital Spacing lookup 3 subtable" dx=10 dy=0 dh=20 dv=0
EndChar

StartChar: Scaron
Encoding: 352 352 110
Width: 966
Flags: MW
HStem: -45 135<412 534 412 584> 1257 135<431 537>
VStem: 41 250<221 299 221 302> 90 225<953 1158 953 1159> 641 250<1063 1134> 680 225<218 431>
LayerCount: 2
Fore
SplineSet
780 1634 m 1,0,-1
 483 1405 l 1,1,-1
 477 1405 l 1,2,-1
 172 1634 l 1,3,-1
 231 1706 l 1,4,-1
 477 1577 l 1,5,-1
 721 1706 l 1,6,-1
 780 1634 l 1,0,-1
500 1393 m 0,7,8
 566 1393 566 1393 622.5 1384 c 128,-1,9
 679 1375 679 1375 729.5 1354 c 128,-1,10
 780 1333 780 1333 815 1300.5 c 128,-1,11
 850 1268 850 1268 870.5 1219 c 128,-1,12
 891 1170 891 1170 891 1108 c 0,13,14
 891 1035 891 1035 847.5 988.5 c 128,-1,15
 804 942 804 942 731 942 c 0,16,17
 661 942 661 942 625 975 c 1,18,19
 641 1021 641 1021 641 1077 c 0,20,21
 641 1257 641 1257 481 1257 c 0,22,23
 404 1257 404 1257 359.5 1219 c 128,-1,24
 315 1181 315 1181 315 1108 c 0,25,26
 315 1046 315 1046 347.5 990.5 c 128,-1,27
 380 935 380 935 432 891.5 c 128,-1,28
 484 848 484 848 547 805 c 128,-1,29
 610 762 610 762 673 715 c 128,-1,30
 736 668 736 668 788 616.5 c 128,-1,31
 840 565 840 565 872.5 493 c 128,-1,32
 905 421 905 421 905 338 c 0,33,34
 905 155 905 155 780 55 c 128,-1,35
 655 -45 655 -45 457 -45 c 0,36,37
 371 -45 371 -45 299 -28.5 c 128,-1,38
 227 -12 227 -12 167.5 22 c 128,-1,39
 108 56 108 56 74.5 115.5 c 128,-1,40
 41 175 41 175 41 254 c 0,41,42
 41 327 41 327 84.5 373.5 c 128,-1,43
 128 420 128 420 199 420 c 0,44,45
 269 420 269 420 305 387 c 1,46,47
 291 346 291 346 291 285 c 0,48,49
 291 90 291 90 475 90 c 0,50,51
 565 90 565 90 622.5 140 c 128,-1,52
 680 190 680 190 680 276 c 0,53,54
 680 338 680 338 647.5 393.5 c 128,-1,55
 615 449 615 449 563 492.5 c 128,-1,56
 511 536 511 536 448 579 c 128,-1,57
 385 622 385 622 322 669 c 128,-1,58
 259 716 259 716 207 768 c 128,-1,59
 155 820 155 820 122.5 892 c 128,-1,60
 90 964 90 964 90 1047 c 0,61,62
 90 1210 90 1210 206 1301.5 c 128,-1,63
 322 1393 322 1393 500 1393 c 0,7,8
EndSplineSet
Validated: 1
Position2: "'cpsp' Capital Spacing lookup 3 subtable" dx=10 dy=0 dh=20 dv=0
EndChar

StartChar: Scedilla
Encoding: 350 350 111
Width: 966
Flags: MW
HStem: -518 109<401 449 387 514> -227 96<368 552> -41 131<367 534> 1257 135<431 537>
VStem: 41 250<221 299 221 302> 90 225<953 1158 953 1159> 250 20 547 166<-354 -284> 641 250<1063 1134> 680 225<218 431>
LayerCount: 2
Fore
SplineSet
367 -41 m 1,0,1
 221 -25 221 -25 131 48 c 128,-1,2
 41 121 41 121 41 254 c 0,3,4
 41 327 41 327 84.5 373.5 c 128,-1,5
 128 420 128 420 199 420 c 0,6,7
 269 420 269 420 305 387 c 1,8,9
 291 346 291 346 291 285 c 0,10,11
 291 90 291 90 475 90 c 0,12,13
 565 90 565 90 622.5 140 c 128,-1,14
 680 190 680 190 680 276 c 0,15,16
 680 338 680 338 647.5 393.5 c 128,-1,17
 615 449 615 449 563 492.5 c 128,-1,18
 511 536 511 536 448 579 c 128,-1,19
 385 622 385 622 322 669 c 128,-1,20
 259 716 259 716 207 768 c 128,-1,21
 155 820 155 820 122.5 892 c 128,-1,22
 90 964 90 964 90 1047 c 0,23,24
 90 1210 90 1210 206 1301.5 c 128,-1,25
 322 1393 322 1393 500 1393 c 0,26,27
 566 1393 566 1393 622.5 1384 c 128,-1,28
 679 1375 679 1375 729.5 1354 c 128,-1,29
 780 1333 780 1333 815 1300.5 c 128,-1,30
 850 1268 850 1268 870.5 1219 c 128,-1,31
 891 1170 891 1170 891 1108 c 0,32,33
 891 1035 891 1035 847.5 988.5 c 128,-1,34
 804 942 804 942 731 942 c 0,35,36
 661 942 661 942 625 975 c 1,37,38
 641 1021 641 1021 641 1077 c 0,39,40
 641 1257 641 1257 481 1257 c 0,41,42
 404 1257 404 1257 359.5 1219 c 128,-1,43
 315 1181 315 1181 315 1108 c 0,44,45
 315 1046 315 1046 347.5 990.5 c 128,-1,46
 380 935 380 935 432 891.5 c 128,-1,47
 484 848 484 848 547 805 c 128,-1,48
 610 762 610 762 673 715 c 128,-1,49
 736 668 736 668 788 616.5 c 128,-1,50
 840 565 840 565 872.5 493 c 128,-1,51
 905 421 905 421 905 338 c 0,52,53
 905 157 905 157 781.5 57 c 128,-1,54
 658 -43 658 -43 461 -45 c 1,55,-1
 428 -133 l 1,56,57
 446 -131 446 -131 485 -131 c 0,58,59
 589 -131 589 -131 651 -177 c 128,-1,60
 713 -223 713 -223 713 -315 c 0,61,62
 713 -405 713 -405 633 -461.5 c 128,-1,63
 553 -518 553 -518 444 -518 c 0,64,65
 397 -518 397 -518 355 -508 c 128,-1,66
 313 -498 313 -498 281.5 -470.5 c 128,-1,67
 250 -443 250 -443 250 -403 c 0,68,69
 250 -369 250 -369 270 -352 c 1,70,71
 322 -410 322 -410 414 -410 c 0,72,73
 472 -410 472 -410 509.5 -389 c 128,-1,74
 547 -368 547 -368 547 -322 c 0,75,76
 547 -227 547 -227 381 -227 c 0,77,78
 336 -227 336 -227 295 -233 c 1,79,-1
 367 -41 l 1,0,1
EndSplineSet
Validated: 1
Substitution2: "'locl' Localized Forms in Latin lookup 12 subtable" Scommaaccent
Substitution2: "'locl' Localized Forms in Latin lookup 11 subtable" Scommaaccent
Substitution2: "'aalt' Access All Alternates lookup 0 subtable" Scommaaccent
Position2: "'cpsp' Capital Spacing lookup 3 subtable" dx=10 dy=0 dh=20 dv=0
EndChar

StartChar: Scircumflex
Encoding: 348 348 112
Width: 966
Flags: MW
HStem: -45 135<412 534 412 584> 1257 135<431 537> 1399 41G<178 178 788 788>
VStem: 41 250<221 299 221 302> 90 225<953 1158 953 1159> 641 250<1063 1134> 680 225<218 431>
LayerCount: 2
Fore
SplineSet
178 1440 m 1,0,-1
 475 1710 l 1,1,-1
 483 1710 l 1,2,-1
 788 1440 l 1,3,-1
 727 1368 l 1,4,-1
 481 1518 l 1,5,-1
 238 1368 l 1,6,-1
 178 1440 l 1,0,-1
500 1393 m 0,7,8
 566 1393 566 1393 622.5 1384 c 128,-1,9
 679 1375 679 1375 729.5 1354 c 128,-1,10
 780 1333 780 1333 815 1300.5 c 128,-1,11
 850 1268 850 1268 870.5 1219 c 128,-1,12
 891 1170 891 1170 891 1108 c 0,13,14
 891 1035 891 1035 847.5 988.5 c 128,-1,15
 804 942 804 942 731 942 c 0,16,17
 661 942 661 942 625 975 c 1,18,19
 641 1021 641 1021 641 1077 c 0,20,21
 641 1257 641 1257 481 1257 c 0,22,23
 404 1257 404 1257 359.5 1219 c 128,-1,24
 315 1181 315 1181 315 1108 c 0,25,26
 315 1046 315 1046 347.5 990.5 c 128,-1,27
 380 935 380 935 432 891.5 c 128,-1,28
 484 848 484 848 547 805 c 128,-1,29
 610 762 610 762 673 715 c 128,-1,30
 736 668 736 668 788 616.5 c 128,-1,31
 840 565 840 565 872.5 493 c 128,-1,32
 905 421 905 421 905 338 c 0,33,34
 905 155 905 155 780 55 c 128,-1,35
 655 -45 655 -45 457 -45 c 0,36,37
 371 -45 371 -45 299 -28.5 c 128,-1,38
 227 -12 227 -12 167.5 22 c 128,-1,39
 108 56 108 56 74.5 115.5 c 128,-1,40
 41 175 41 175 41 254 c 0,41,42
 41 327 41 327 84.5 373.5 c 128,-1,43
 128 420 128 420 199 420 c 0,44,45
 269 420 269 420 305 387 c 1,46,47
 291 346 291 346 291 285 c 0,48,49
 291 90 291 90 475 90 c 0,50,51
 565 90 565 90 622.5 140 c 128,-1,52
 680 190 680 190 680 276 c 0,53,54
 680 338 680 338 647.5 393.5 c 128,-1,55
 615 449 615 449 563 492.5 c 128,-1,56
 511 536 511 536 448 579 c 128,-1,57
 385 622 385 622 322 669 c 128,-1,58
 259 716 259 716 207 768 c 128,-1,59
 155 820 155 820 122.5 892 c 128,-1,60
 90 964 90 964 90 1047 c 0,61,62
 90 1210 90 1210 206 1301.5 c 128,-1,63
 322 1393 322 1393 500 1393 c 0,7,8
EndSplineSet
Validated: 1
Position2: "'cpsp' Capital Spacing lookup 3 subtable" dx=10 dy=0 dh=20 dv=0
EndChar

StartChar: Scommaaccent
Encoding: 536 536 113
Width: 966
Flags: MW
HStem: -45 135<412 534 412 584> 1257 135<431 537>
VStem: 41 250<221 299 221 302> 90 225<953 1158 953 1159> 412 209<-298 -233> 641 250<1063 1134> 680 225<218 431>
LayerCount: 2
Fore
SplineSet
500 1393 m 0,0,1
 566 1393 566 1393 622.5 1384 c 128,-1,2
 679 1375 679 1375 729.5 1354 c 128,-1,3
 780 1333 780 1333 815 1300.5 c 128,-1,4
 850 1268 850 1268 870.5 1219 c 128,-1,5
 891 1170 891 1170 891 1108 c 0,6,7
 891 1035 891 1035 847.5 988.5 c 128,-1,8
 804 942 804 942 731 942 c 0,9,10
 661 942 661 942 625 975 c 1,11,12
 641 1021 641 1021 641 1077 c 0,13,14
 641 1257 641 1257 481 1257 c 0,15,16
 404 1257 404 1257 359.5 1219 c 128,-1,17
 315 1181 315 1181 315 1108 c 0,18,19
 315 1046 315 1046 347.5 990.5 c 128,-1,20
 380 935 380 935 432 891.5 c 128,-1,21
 484 848 484 848 547 805 c 128,-1,22
 610 762 610 762 673 715 c 128,-1,23
 736 668 736 668 788 616.5 c 128,-1,24
 840 565 840 565 872.5 493 c 128,-1,25
 905 421 905 421 905 338 c 0,26,27
 905 155 905 155 780 55 c 128,-1,28
 655 -45 655 -45 457 -45 c 0,29,30
 371 -45 371 -45 299 -28.5 c 128,-1,31
 227 -12 227 -12 167.5 22 c 128,-1,32
 108 56 108 56 74.5 115.5 c 128,-1,33
 41 175 41 175 41 254 c 0,34,35
 41 327 41 327 84.5 373.5 c 128,-1,36
 128 420 128 420 199 420 c 0,37,38
 269 420 269 420 305 387 c 1,39,40
 291 346 291 346 291 285 c 0,41,42
 291 90 291 90 475 90 c 0,43,44
 565 90 565 90 622.5 140 c 128,-1,45
 680 190 680 190 680 276 c 0,46,47
 680 338 680 338 647.5 393.5 c 128,-1,48
 615 449 615 449 563 492.5 c 128,-1,49
 511 536 511 536 448 579 c 128,-1,50
 385 622 385 622 322 669 c 128,-1,51
 259 716 259 716 207 768 c 128,-1,52
 155 820 155 820 122.5 892 c 128,-1,53
 90 964 90 964 90 1047 c 0,54,55
 90 1210 90 1210 206 1301.5 c 128,-1,56
 322 1393 322 1393 500 1393 c 0,0,1
477 -102 m 0,57,58
 548 -102 548 -102 584.5 -142 c 128,-1,59
 621 -182 621 -182 621 -254 c 0,60,61
 621 -340 621 -340 559.5 -412.5 c 128,-1,62
 498 -485 498 -485 414 -485 c 0,63,64
 382 -485 382 -485 344 -473 c 1,65,66
 412 -373 412 -373 412 -260 c 0,67,68
 412 -185 412 -185 373 -127 c 1,69,70
 421 -102 421 -102 477 -102 c 0,57,58
EndSplineSet
Validated: 1
Position2: "'cpsp' Capital Spacing lookup 3 subtable" dx=10 dy=0 dh=20 dv=0
EndChar

StartChar: Sdotbelow
Encoding: 7778 7778 114
Width: 966
Flags: MW
HStem: -369 258<434 515> -45 135<412 534 412 584> 1257 135<431 537>
VStem: 41 250<221 299 221 302> 90 225<953 1158 953 1159> 322 307<-282 -198> 641 250<1063 1134> 680 225<218 431>
LayerCount: 2
Fore
SplineSet
500 1393 m 0,0,1
 566 1393 566 1393 622.5 1384 c 128,-1,2
 679 1375 679 1375 729.5 1354 c 128,-1,3
 780 1333 780 1333 815 1300.5 c 128,-1,4
 850 1268 850 1268 870.5 1219 c 128,-1,5
 891 1170 891 1170 891 1108 c 0,6,7
 891 1035 891 1035 847.5 988.5 c 128,-1,8
 804 942 804 942 731 942 c 0,9,10
 661 942 661 942 625 975 c 1,11,12
 641 1021 641 1021 641 1077 c 0,13,14
 641 1257 641 1257 481 1257 c 0,15,16
 404 1257 404 1257 359.5 1219 c 128,-1,17
 315 1181 315 1181 315 1108 c 0,18,19
 315 1046 315 1046 347.5 990.5 c 128,-1,20
 380 935 380 935 432 891.5 c 128,-1,21
 484 848 484 848 547 805 c 128,-1,22
 610 762 610 762 673 715 c 128,-1,23
 736 668 736 668 788 616.5 c 128,-1,24
 840 565 840 565 872.5 493 c 128,-1,25
 905 421 905 421 905 338 c 0,26,27
 905 155 905 155 780 55 c 128,-1,28
 655 -45 655 -45 457 -45 c 0,29,30
 371 -45 371 -45 299 -28.5 c 128,-1,31
 227 -12 227 -12 167.5 22 c 128,-1,32
 108 56 108 56 74.5 115.5 c 128,-1,33
 41 175 41 175 41 254 c 0,34,35
 41 327 41 327 84.5 373.5 c 128,-1,36
 128 420 128 420 199 420 c 0,37,38
 269 420 269 420 305 387 c 1,39,40
 291 346 291 346 291 285 c 0,41,42
 291 90 291 90 475 90 c 0,43,44
 565 90 565 90 622.5 140 c 128,-1,45
 680 190 680 190 680 276 c 0,46,47
 680 338 680 338 647.5 393.5 c 128,-1,48
 615 449 615 449 563 492.5 c 128,-1,49
 511 536 511 536 448 579 c 128,-1,50
 385 622 385 622 322 669 c 128,-1,51
 259 716 259 716 207 768 c 128,-1,52
 155 820 155 820 122.5 892 c 128,-1,53
 90 964 90 964 90 1047 c 0,54,55
 90 1210 90 1210 206 1301.5 c 128,-1,56
 322 1393 322 1393 500 1393 c 0,0,1
477 -111 m 128,-1,58
 545 -111 545 -111 587 -144 c 128,-1,59
 629 -177 629 -177 629 -238 c 0,60,61
 629 -301 629 -301 584.5 -335 c 128,-1,62
 540 -369 540 -369 471 -369 c 0,63,64
 404 -369 404 -369 363 -336 c 128,-1,65
 322 -303 322 -303 322 -242 c 0,66,67
 322 -179 322 -179 365.5 -145 c 128,-1,57
 409 -111 409 -111 477 -111 c 128,-1,58
EndSplineSet
Validated: 1
Position2: "'cpsp' Capital Spacing lookup 3 subtable" dx=10 dy=0 dh=20 dv=0
EndChar

StartChar: uni1E9E
Encoding: 7838 7838 115
Width: 1323
Flags: MW
HStem: -45 135<854 973 854 1019> 1249 143<508 681>
VStem: 102 240<0 680 0 680> 500 248<225 299 225 302> 625 209<830 964> 1096 211<217 418>
LayerCount: 2
UndoRedoHistory
Layer: 1
Undoes
EndUndoes
Redoes
EndRedoes
EndUndoRedoHistory
Fore
SplineSet
102 680 m 1,0,1
 102 713 102 713 102 713 c 0,2,3
 102 738 102 738 102 739 c 0,4,5
 102 758 102 758 102 759 c 0,6,7
 102 767 102 767 102 775 c 0,8,9
 101.75 781 101.75 781 101.75 787.8125 c 0,10,11
 101.75 835.5 101.75 835.5 114 923 c 0,12,13
 129 1030 129 1030 167 1120 c 128,-1,14
 205 1210 205 1210 267.5 1268.5 c 128,-1,15
 330 1327 330 1327 426.5 1360 c 128,-1,16
 523 1393 523 1393 653 1393 c 0,17,18
 796 1393 796 1393 915 1326.5 c 128,-1,19
 1034 1260 1034 1260 1096 1137 c 1,20,21
 1047 1122 1047 1122 1019 1112 c 128,-1,22
 991 1102 991 1102 951 1082.5 c 128,-1,23
 911 1063 911 1063 889 1043 c 128,-1,24
 867 1023 867 1023 850.5 992 c 128,-1,25
 834 961 834 961 834 924 c 128,-1,26
 834 887 834 887 860 851 c 128,-1,27
 886 815 886 815 928 784 c 128,-1,28
 970 753 970 753 1020 720 c 128,-1,29
 1070 687 1070 687 1120.5 647.5 c 128,-1,30
 1171 608 1171 608 1213 563.5 c 128,-1,31
 1255 519 1255 519 1281 457.5 c 128,-1,32
 1307 396 1307 396 1307 326 c 0,33,34
 1307 144 1307 144 1196.5 49.5 c 128,-1,35
 1086 -45 1086 -45 895 -45 c 0,36,37
 785 -45 785 -45 698.5 -15.5 c 128,-1,38
 612 14 612 14 556 83.5 c 128,-1,39
 500 153 500 153 500 254 c 0,40,41
 500 327 500 327 543 373.5 c 128,-1,42
 586 420 586 420 657 420 c 128,-1,43
 728 420 728 420 764 387 c 1,44,45
 748 341 748 341 748 285 c 0,46,47
 748 90 748 90 913 90 c 0,48,49
 1002 90 1002 90 1049 138 c 128,-1,50
 1096 186 1096 186 1096 276 c 0,51,52
 1096 333 1096 333 1070 380.5 c 128,-1,53
 1044 428 1044 428 1002.5 462.5 c 128,-1,54
 961 497 961 497 910.5 529.5 c 128,-1,55
 860 562 860 562 810 597 c 128,-1,56
 760 632 760 632 718.5 671.5 c 128,-1,57
 677 711 677 711 651 769 c 128,-1,58
 625 827 625 827 625 897 c 0,59,60
 625 1074 625 1074 858 1137 c 1,61,62
 772 1249 772 1249 635 1249 c 0,63,64
 561 1249 561 1249 507 1220.5 c 128,-1,65
 453 1192 453 1192 422 1147.5 c 128,-1,66
 391 1103 391 1103 372.5 1034 c 128,-1,67
 354 965 354 965 348 899 c 128,-1,68
 342 833 342 833 342 748 c 2,69,-1
 342 680 l 1,70,-1
 342 0 l 1,71,-1
 102 0 l 1,72,-1
 102 680 l 1,0,1
EndSplineSet
Validated: 524289
Position2: "'cpsp' Capital Spacing lookup 3 subtable" dx=10 dy=0 dh=20 dv=0
EndChar

StartChar: Schwa
Encoding: 399 399 116
Width: 1140
Flags: MW
HStem: -45 147<476 645 476 711> 618 133<588 679 496 705> 1217 182<445 636>
VStem: 70 287<289 453 289 503> 801 270
LayerCount: 2
Fore
SplineSet
545 1399 m 0,0,1
 1071 1399 1071 1399 1071 709 c 0,2,3
 1071 578 1071 578 1052.5 467.5 c 128,-1,4
 1034 357 1034 357 991.5 261 c 128,-1,5
 949 165 949 165 884 98 c 128,-1,6
 819 31 819 31 721 -7 c 128,-1,7
 623 -45 623 -45 498 -45 c 0,8,9
 305 -45 305 -45 187.5 56 c 128,-1,10
 70 157 70 157 70 340 c 0,11,12
 70 435 70 435 100.5 507.5 c 128,-1,13
 131 580 131 580 183 626 c 128,-1,14
 235 672 235 672 311 700.5 c 128,-1,15
 387 729 387 729 471 740.5 c 128,-1,16
 555 752 555 752 657 752 c 0,17,18
 678 752 678 752 801 745 c 1,19,20
 799 822 799 822 792 884 c 128,-1,21
 785 946 785 946 766 1011 c 128,-1,22
 747 1076 747 1076 717 1119 c 128,-1,23
 687 1162 687 1162 637 1189.5 c 128,-1,24
 587 1217 587 1217 520 1217 c 0,25,26
 409 1217 409 1217 320.5 1149 c 128,-1,27
 232 1081 232 1081 178 969 c 1,28,29
 121 1001 121 1001 121 1085 c 0,30,31
 121 1179 121 1179 186.5 1252.5 c 128,-1,32
 252 1326 252 1326 347.5 1362.5 c 128,-1,33
 443 1399 443 1399 545 1399 c 0,0,1
539 102 m 0,34,35
 600 102 600 102 647.5 134.5 c 128,-1,36
 695 167 695 167 722.5 216.5 c 128,-1,37
 750 266 750 266 768 336.5 c 128,-1,38
 786 407 786 407 793 472.5 c 128,-1,39
 800 538 800 538 801 612 c 1,40,41
 743 618 743 618 686 618 c 0,42,43
 528 618 528 618 442 556.5 c 128,-1,44
 356 495 356 495 356 354 c 0,45,46
 356 248 356 248 403 175 c 128,-1,47
 450 102 450 102 539 102 c 0,34,35
EndSplineSet
Validated: 1
Position2: "'cpsp' Capital Spacing lookup 3 subtable" dx=10 dy=0 dh=20 dv=0
EndChar

StartChar: T
Encoding: 84 84 117
Width: 821
Flags: MW
HStem: 1200 152<-31 291 -31 860 530 846 530 530>
VStem: 291 240<0 1200 0 1200>
LayerCount: 2
Fore
SplineSet
846 1200 m 1,0,-1
 530 1200 l 1,1,-1
 530 0 l 1,2,-1
 291 0 l 1,3,-1
 291 1200 l 1,4,-1
 -31 1200 l 1,5,-1
 -31 1352 l 1,6,-1
 860 1352 l 1,7,-1
 846 1200 l 1,0,-1
EndSplineSet
Validated: 1
Position2: "'cpsp' Capital Spacing lookup 3 subtable" dx=10 dy=0 dh=20 dv=0
EndChar

StartChar: Tbar
Encoding: 358 358 118
Width: 821
Flags: MW
HStem: 629 147<102 291 102 291 20 291 530 733> 1200 152<-31 291 -31 860 530 846 530 530>
VStem: 291 240<0 629 0 629 776 1200>
LayerCount: 2
Fore
SplineSet
530 1200 m 1,0,-1
 530 776 l 1,1,-1
 827 776 l 1,2,3
 846 733 846 733 846 705 c 0,4,5
 846 629 846 629 733 629 c 2,6,-1
 530 629 l 1,7,-1
 530 0 l 1,8,-1
 291 0 l 1,9,-1
 291 629 l 1,10,-1
 20 629 l 1,11,12
 4 665 4 665 4 698 c 0,13,14
 4 776 4 776 102 776 c 2,15,-1
 291 776 l 1,16,-1
 291 1200 l 1,17,-1
 -31 1200 l 1,18,-1
 -31 1352 l 1,19,-1
 860 1352 l 1,20,-1
 846 1200 l 1,21,-1
 530 1200 l 1,0,-1
EndSplineSet
Validated: 1
Position2: "'cpsp' Capital Spacing lookup 3 subtable" dx=10 dy=0 dh=20 dv=0
EndChar

StartChar: Tcaron
Encoding: 356 356 119
Width: 821
Flags: MW
HStem: 1200 152<-31 291 -31 860 530 846 530 530>
VStem: 291 240<0 1200 0 1200>
LayerCount: 2
Fore
SplineSet
711 1636 m 1,0,-1
 414 1407 l 1,1,-1
 408 1407 l 1,2,-1
 102 1636 l 1,3,-1
 162 1708 l 1,4,-1
 408 1579 l 1,5,-1
 651 1708 l 1,6,-1
 711 1636 l 1,0,-1
530 1200 m 1,7,-1
 530 0 l 1,8,-1
 291 0 l 1,9,-1
 291 1200 l 1,10,-1
 -31 1200 l 1,11,-1
 -31 1352 l 1,12,-1
 860 1352 l 1,13,-1
 846 1200 l 1,14,-1
 530 1200 l 1,7,-1
EndSplineSet
Validated: 1
Position2: "'cpsp' Capital Spacing lookup 3 subtable" dx=10 dy=0 dh=20 dv=0
EndChar

StartChar: Tcedilla
Encoding: 354 354 120
Width: 821
Flags: MW
HStem: -518 109<336 383 322 449> -227 96<302 486> 1200 152<-31 291 -31 860 530 530 530 846>
VStem: 184 20 291 240<0 1200 0 1200> 481 166<-354 -284>
LayerCount: 2
Fore
SplineSet
414 0 m 1,0,-1
 362 -133 l 1,1,2
 380 -131 380 -131 420 -131 c 0,3,4
 524 -131 524 -131 585.5 -177 c 128,-1,5
 647 -223 647 -223 647 -315 c 0,6,7
 647 -405 647 -405 567.5 -461.5 c 128,-1,8
 488 -518 488 -518 379 -518 c 0,9,10
 332 -518 332 -518 290 -508 c 128,-1,11
 248 -498 248 -498 216 -470.5 c 128,-1,12
 184 -443 184 -443 184 -403 c 0,13,14
 184 -370 184 -370 205 -352 c 1,15,16
 257 -410 257 -410 348 -410 c 0,17,18
 406 -410 406 -410 443.5 -389 c 128,-1,19
 481 -368 481 -368 481 -322 c 0,20,21
 481 -227 481 -227 315 -227 c 0,22,23
 270 -227 270 -227 229 -233 c 1,24,-1
 317 0 l 1,25,-1
 291 0 l 1,26,-1
 291 1200 l 1,27,-1
 -31 1200 l 1,28,-1
 -31 1352 l 1,29,-1
 860 1352 l 1,30,-1
 846 1200 l 1,31,-1
 530 1200 l 1,32,-1
 530 0 l 1,33,-1
 414 0 l 1,0,-1
EndSplineSet
Validated: 1
Substitution2: "'locl' Localized Forms in Latin lookup 12 subtable" uni021A
Substitution2: "'locl' Localized Forms in Latin lookup 11 subtable" uni021A
Substitution2: "'aalt' Access All Alternates lookup 0 subtable" uni021A
Position2: "'cpsp' Capital Spacing lookup 3 subtable" dx=10 dy=0 dh=20 dv=0
EndChar

StartChar: uni021A
Encoding: 538 538 121
Width: 821
Flags: MW
HStem: 1200 152<-31 291 -31 860 530 846 530 530>
VStem: 291 240<0 1200 0 1200> 344 209<-298 -233>
LayerCount: 2
Fore
SplineSet
530 1200 m 1,0,-1
 530 0 l 1,1,-1
 291 0 l 1,2,-1
 291 1200 l 1,3,-1
 -31 1200 l 1,4,-1
 -31 1352 l 1,5,-1
 860 1352 l 1,6,-1
 846 1200 l 1,7,-1
 530 1200 l 1,0,-1
410 -102 m 0,8,9
 481 -102 481 -102 517 -142 c 128,-1,10
 553 -182 553 -182 553 -254 c 0,11,12
 553 -340 553 -340 491.5 -412.5 c 128,-1,13
 430 -485 430 -485 346 -485 c 0,14,15
 314 -485 314 -485 276 -473 c 1,16,17
 344 -373 344 -373 344 -260 c 0,18,19
 344 -185 344 -185 305 -127 c 1,20,21
 353 -102 353 -102 410 -102 c 0,8,9
EndSplineSet
Validated: 1
Position2: "'cpsp' Capital Spacing lookup 3 subtable" dx=10 dy=0 dh=20 dv=0
EndChar

StartChar: Tdotbelow
Encoding: 7788 7788 122
Width: 821
Flags: MW
HStem: -369 258<367 447> 1200 152<-31 291 -31 860 530 846 530 530>
VStem: 291 240<0 1200 0 1200>
LayerCount: 2
Fore
SplineSet
530 1200 m 1,0,-1
 530 0 l 1,1,-1
 291 0 l 1,2,-1
 291 1200 l 1,3,-1
 -31 1200 l 1,4,-1
 -31 1352 l 1,5,-1
 860 1352 l 1,6,-1
 846 1200 l 1,7,-1
 530 1200 l 1,0,-1
410 -111 m 128,-1,9
 478 -111 478 -111 519.5 -144 c 128,-1,10
 561 -177 561 -177 561 -238 c 0,11,12
 561 -301 561 -301 516.5 -335 c 128,-1,13
 472 -369 472 -369 403 -369 c 0,14,15
 336 -369 336 -369 295 -336 c 128,-1,16
 254 -303 254 -303 254 -242 c 0,17,18
 254 -179 254 -179 298 -145 c 128,-1,8
 342 -111 342 -111 410 -111 c 128,-1,9
EndSplineSet
Validated: 1
Position2: "'cpsp' Capital Spacing lookup 3 subtable" dx=10 dy=0 dh=20 dv=0
EndChar

StartChar: U
Encoding: 85 85 123
Width: 1120
Flags: MW
HStem: -45 143<470 685 470 749> 1311 41G<113 352 352 352 801 1008 1008 1008>
VStem: 113 240<494 516 516 1352> 801 207<539 561 561 1352>
LayerCount: 2
Fore
SplineSet
1008 561 m 2,0,1
 1008 439 1008 439 997.5 351 c 128,-1,2
 987 263 987 263 958.5 184 c 128,-1,3
 930 105 930 105 880.5 57.5 c 128,-1,4
 831 10 831 10 751.5 -17.5 c 128,-1,5
 672 -45 672 -45 561 -45 c 0,6,7
 428 -45 428 -45 340 -12 c 128,-1,8
 252 21 252 21 202.5 91.5 c 128,-1,9
 153 162 153 162 133 257.5 c 128,-1,10
 113 353 113 353 113 494 c 2,11,-1
 113 1352 l 1,12,-1
 352 1352 l 1,13,-1
 352 516 l 2,14,15
 352 461 352 461 353 424.5 c 128,-1,16
 354 388 354 388 359 340 c 128,-1,17
 364 292 364 292 373 260.5 c 128,-1,18
 382 229 382 229 399 195.5 c 128,-1,19
 416 162 416 162 439.5 142.5 c 128,-1,20
 463 123 463 123 498 110.5 c 128,-1,21
 533 98 533 98 578 98 c 128,-1,22
 623 98 623 98 658 112 c 128,-1,23
 693 126 693 126 716.5 147 c 128,-1,24
 740 168 740 168 756 204.5 c 128,-1,25
 772 241 772 241 781 273.5 c 128,-1,26
 790 306 790 306 794.5 357 c 128,-1,27
 799 408 799 408 800 445 c 128,-1,28
 801 482 801 482 801 539 c 2,29,-1
 801 1352 l 1,30,-1
 1008 1352 l 1,31,-1
 1008 561 l 2,0,1
EndSplineSet
Validated: 1
Position2: "'cpsp' Capital Spacing lookup 3 subtable" dx=10 dy=0 dh=20 dv=0
EndChar

StartChar: Uacute
Encoding: 218 218 124
Width: 1120
Flags: MW
HStem: -45 143<470 685 470 749> 1311 41G<113 352 352 352 801 1008 1008 1008>
VStem: 113 240<494 516 516 1352> 801 207<539 561 561 1352>
LayerCount: 2
Fore
SplineSet
854 1714 m 1,0,1
 913 1672 913 1672 913 1610 c 0,2,3
 913 1571 913 1571 894 1544.5 c 128,-1,4
 875 1518 875 1518 839 1504.5 c 128,-1,5
 803 1491 803 1491 769 1485 c 128,-1,6
 735 1479 735 1479 686 1475 c 2,7,-1
 442 1456 l 1,8,-1
 420 1542 l 1,9,-1
 854 1714 l 1,0,1
1008 561 m 2,10,11
 1008 439 1008 439 997.5 351 c 128,-1,12
 987 263 987 263 958.5 184 c 128,-1,13
 930 105 930 105 880.5 57.5 c 128,-1,14
 831 10 831 10 751.5 -17.5 c 128,-1,15
 672 -45 672 -45 561 -45 c 0,16,17
 428 -45 428 -45 340 -12 c 128,-1,18
 252 21 252 21 202.5 91.5 c 128,-1,19
 153 162 153 162 133 257.5 c 128,-1,20
 113 353 113 353 113 494 c 2,21,-1
 113 1352 l 1,22,-1
 352 1352 l 1,23,-1
 352 516 l 2,24,25
 352 461 352 461 353 424.5 c 128,-1,26
 354 388 354 388 359 340 c 128,-1,27
 364 292 364 292 373 260.5 c 128,-1,28
 382 229 382 229 399 195.5 c 128,-1,29
 416 162 416 162 439.5 142.5 c 128,-1,30
 463 123 463 123 498 110.5 c 128,-1,31
 533 98 533 98 578 98 c 128,-1,32
 623 98 623 98 658 112 c 128,-1,33
 693 126 693 126 716.5 147 c 128,-1,34
 740 168 740 168 756 204.5 c 128,-1,35
 772 241 772 241 781 273.5 c 128,-1,36
 790 306 790 306 794.5 357 c 128,-1,37
 799 408 799 408 800 445 c 128,-1,38
 801 482 801 482 801 539 c 2,39,-1
 801 1352 l 1,40,-1
 1008 1352 l 1,41,-1
 1008 561 l 2,10,11
EndSplineSet
Validated: 1
Position2: "'cpsp' Capital Spacing lookup 3 subtable" dx=10 dy=0 dh=20 dv=0
EndChar

StartChar: Ubreve
Encoding: 364 364 125
Width: 1120
Flags: MW
HStem: -45 143<470 685 470 749> 1311 41G<113 352 352 352 801 1008 1008 1008> 1403 106<529 626 529 669>
VStem: 113 240<494 516 516 1352> 270 186<1637 1686 1637 1686> 698 188<1637 1686> 801 207<539 561 561 1352>
LayerCount: 2
Fore
SplineSet
887 1686 m 1,0,1
 887 1553 887 1553 802 1478 c 128,-1,2
 717 1403 717 1403 578 1403 c 128,-1,3
 439 1403 439 1403 354.5 1478 c 128,-1,4
 270 1553 270 1553 270 1686 c 1,5,-1
 457 1686 l 1,6,7
 457 1509 457 1509 578 1509 c 0,8,9
 698 1509 698 1509 698 1686 c 1,10,-1
 887 1686 l 1,0,1
1008 561 m 2,11,12
 1008 439 1008 439 997.5 351 c 128,-1,13
 987 263 987 263 958.5 184 c 128,-1,14
 930 105 930 105 880.5 57.5 c 128,-1,15
 831 10 831 10 751.5 -17.5 c 128,-1,16
 672 -45 672 -45 561 -45 c 0,17,18
 428 -45 428 -45 340 -12 c 128,-1,19
 252 21 252 21 202.5 91.5 c 128,-1,20
 153 162 153 162 133 257.5 c 128,-1,21
 113 353 113 353 113 494 c 2,22,-1
 113 1352 l 1,23,-1
 352 1352 l 1,24,-1
 352 516 l 2,25,26
 352 461 352 461 353 424.5 c 128,-1,27
 354 388 354 388 359 340 c 128,-1,28
 364 292 364 292 373 260.5 c 128,-1,29
 382 229 382 229 399 195.5 c 128,-1,30
 416 162 416 162 439.5 142.5 c 128,-1,31
 463 123 463 123 498 110.5 c 128,-1,32
 533 98 533 98 578 98 c 128,-1,33
 623 98 623 98 658 112 c 128,-1,34
 693 126 693 126 716.5 147 c 128,-1,35
 740 168 740 168 756 204.5 c 128,-1,36
 772 241 772 241 781 273.5 c 128,-1,37
 790 306 790 306 794.5 357 c 128,-1,38
 799 408 799 408 800 445 c 128,-1,39
 801 482 801 482 801 539 c 2,40,-1
 801 1352 l 1,41,-1
 1008 1352 l 1,42,-1
 1008 561 l 2,11,12
EndSplineSet
Validated: 1
Position2: "'cpsp' Capital Spacing lookup 3 subtable" dx=10 dy=0 dh=20 dv=0
EndChar

StartChar: Ucircumflex
Encoding: 219 219 126
Width: 1120
Flags: MW
HStem: -45 143<470 685 470 749> 1311 41G<113 352 352 352 801 1008 1008 1008> 1401 41G<274 274 885 885>
VStem: 113 240<494 516 516 1352> 801 207<539 561 561 1352>
LayerCount: 2
Fore
SplineSet
274 1442 m 1,0,-1
 571 1712 l 1,1,-1
 580 1712 l 1,2,-1
 885 1442 l 1,3,-1
 823 1370 l 1,4,-1
 578 1520 l 1,5,-1
 334 1370 l 1,6,-1
 274 1442 l 1,0,-1
1008 561 m 2,7,8
 1008 439 1008 439 997.5 351 c 128,-1,9
 987 263 987 263 958.5 184 c 128,-1,10
 930 105 930 105 880.5 57.5 c 128,-1,11
 831 10 831 10 751.5 -17.5 c 128,-1,12
 672 -45 672 -45 561 -45 c 0,13,14
 428 -45 428 -45 340 -12 c 128,-1,15
 252 21 252 21 202.5 91.5 c 128,-1,16
 153 162 153 162 133 257.5 c 128,-1,17
 113 353 113 353 113 494 c 2,18,-1
 113 1352 l 1,19,-1
 352 1352 l 1,20,-1
 352 516 l 2,21,22
 352 461 352 461 353 424.5 c 128,-1,23
 354 388 354 388 359 340 c 128,-1,24
 364 292 364 292 373 260.5 c 128,-1,25
 382 229 382 229 399 195.5 c 128,-1,26
 416 162 416 162 439.5 142.5 c 128,-1,27
 463 123 463 123 498 110.5 c 128,-1,28
 533 98 533 98 578 98 c 128,-1,29
 623 98 623 98 658 112 c 128,-1,30
 693 126 693 126 716.5 147 c 128,-1,31
 740 168 740 168 756 204.5 c 128,-1,32
 772 241 772 241 781 273.5 c 128,-1,33
 790 306 790 306 794.5 357 c 128,-1,34
 799 408 799 408 800 445 c 128,-1,35
 801 482 801 482 801 539 c 2,36,-1
 801 1352 l 1,37,-1
 1008 1352 l 1,38,-1
 1008 561 l 2,7,8
EndSplineSet
Validated: 1
Position2: "'cpsp' Capital Spacing lookup 3 subtable" dx=10 dy=0 dh=20 dv=0
EndChar

StartChar: Udieresis
Encoding: 220 220 127
Width: 1120
Flags: MW
HStem: -45 143<470 685 470 749> 1311 41G<113 352 352 352 801 1008 1008 1008> 1454 258<332 413 741 822>
VStem: 113 240<494 516 516 1352> 219 307<1541 1625> 629 307<1541 1625> 801 207<539 561 561 1352>
LayerCount: 2
Fore
SplineSet
375 1712 m 128,-1,1
 443 1712 443 1712 484.5 1679 c 128,-1,2
 526 1646 526 1646 526 1585 c 0,3,4
 526 1522 526 1522 482 1488 c 128,-1,5
 438 1454 438 1454 369 1454 c 0,6,7
 302 1454 302 1454 260.5 1487 c 128,-1,8
 219 1520 219 1520 219 1581 c 0,9,10
 219 1644 219 1644 263 1678 c 128,-1,0
 307 1712 307 1712 375 1712 c 128,-1,1
784 1712 m 128,-1,12
 852 1712 852 1712 894 1679 c 128,-1,13
 936 1646 936 1646 936 1585 c 0,14,15
 936 1522 936 1522 891.5 1488 c 128,-1,16
 847 1454 847 1454 778 1454 c 0,17,18
 711 1454 711 1454 670 1487 c 128,-1,19
 629 1520 629 1520 629 1581 c 0,20,21
 629 1644 629 1644 672.5 1678 c 128,-1,11
 716 1712 716 1712 784 1712 c 128,-1,12
1008 561 m 2,22,23
 1008 439 1008 439 997.5 351 c 128,-1,24
 987 263 987 263 958.5 184 c 128,-1,25
 930 105 930 105 880.5 57.5 c 128,-1,26
 831 10 831 10 751.5 -17.5 c 128,-1,27
 672 -45 672 -45 561 -45 c 0,28,29
 428 -45 428 -45 340 -12 c 128,-1,30
 252 21 252 21 202.5 91.5 c 128,-1,31
 153 162 153 162 133 257.5 c 128,-1,32
 113 353 113 353 113 494 c 2,33,-1
 113 1352 l 1,34,-1
 352 1352 l 1,35,-1
 352 516 l 2,36,37
 352 461 352 461 353 424.5 c 128,-1,38
 354 388 354 388 359 340 c 128,-1,39
 364 292 364 292 373 260.5 c 128,-1,40
 382 229 382 229 399 195.5 c 128,-1,41
 416 162 416 162 439.5 142.5 c 128,-1,42
 463 123 463 123 498 110.5 c 128,-1,43
 533 98 533 98 578 98 c 128,-1,44
 623 98 623 98 658 112 c 128,-1,45
 693 126 693 126 716.5 147 c 128,-1,46
 740 168 740 168 756 204.5 c 128,-1,47
 772 241 772 241 781 273.5 c 128,-1,48
 790 306 790 306 794.5 357 c 128,-1,49
 799 408 799 408 800 445 c 128,-1,50
 801 482 801 482 801 539 c 2,51,-1
 801 1352 l 1,52,-1
 1008 1352 l 1,53,-1
 1008 561 l 2,22,23
EndSplineSet
Validated: 1
Position2: "'cpsp' Capital Spacing lookup 3 subtable" dx=10 dy=0 dh=20 dv=0
EndChar

StartChar: Udotbelow
Encoding: 7908 7908 128
Width: 1120
Flags: MW
HStem: -369 258<543 624> -45 143<470 685 470 749> 1311 41G<113 352 352 352 801 1008 1008 1008>
VStem: 113 240<494 516 516 1352> 430 307<-282 -198> 801 207<539 561 561 1352>
LayerCount: 2
Fore
SplineSet
1008 561 m 2,0,1
 1008 439 1008 439 997.5 351 c 128,-1,2
 987 263 987 263 958.5 184 c 128,-1,3
 930 105 930 105 880.5 57.5 c 128,-1,4
 831 10 831 10 751.5 -17.5 c 128,-1,5
 672 -45 672 -45 561 -45 c 0,6,7
 428 -45 428 -45 340 -12 c 128,-1,8
 252 21 252 21 202.5 91.5 c 128,-1,9
 153 162 153 162 133 257.5 c 128,-1,10
 113 353 113 353 113 494 c 2,11,-1
 113 1352 l 1,12,-1
 352 1352 l 1,13,-1
 352 516 l 2,14,15
 352 461 352 461 353 424.5 c 128,-1,16
 354 388 354 388 359 340 c 128,-1,17
 364 292 364 292 373 260.5 c 128,-1,18
 382 229 382 229 399 195.5 c 128,-1,19
 416 162 416 162 439.5 142.5 c 128,-1,20
 463 123 463 123 498 110.5 c 128,-1,21
 533 98 533 98 578 98 c 128,-1,22
 623 98 623 98 658 112 c 128,-1,23
 693 126 693 126 716.5 147 c 128,-1,24
 740 168 740 168 756 204.5 c 128,-1,25
 772 241 772 241 781 273.5 c 128,-1,26
 790 306 790 306 794.5 357 c 128,-1,27
 799 408 799 408 800 445 c 128,-1,28
 801 482 801 482 801 539 c 2,29,-1
 801 1352 l 1,30,-1
 1008 1352 l 1,31,-1
 1008 561 l 2,0,1
586 -111 m 128,-1,33
 654 -111 654 -111 695.5 -144 c 128,-1,34
 737 -177 737 -177 737 -238 c 0,35,36
 737 -301 737 -301 693 -335 c 128,-1,37
 649 -369 649 -369 580 -369 c 0,38,39
 513 -369 513 -369 471.5 -336 c 128,-1,40
 430 -303 430 -303 430 -242 c 0,41,42
 430 -179 430 -179 474 -145 c 128,-1,32
 518 -111 518 -111 586 -111 c 128,-1,33
EndSplineSet
Validated: 1
Position2: "'cpsp' Capital Spacing lookup 3 subtable" dx=10 dy=0 dh=20 dv=0
EndChar

StartChar: Ugrave
Encoding: 217 217 129
Width: 1120
Flags: MW
HStem: -45 143<470 685 470 749> 1311 41G<113 352 352 352 801 1008 1008 1008>
VStem: 113 240<494 516 516 1352> 801 207<539 561 561 1352>
LayerCount: 2
Fore
SplineSet
465 1475 m 2,0,1
 416 1479 416 1479 382.5 1485 c 128,-1,2
 349 1491 349 1491 313 1504.5 c 128,-1,3
 277 1518 277 1518 258.5 1544.5 c 128,-1,4
 240 1571 240 1571 240 1610 c 0,5,6
 240 1673 240 1673 297 1714 c 1,7,-1
 733 1542 l 1,8,-1
 711 1456 l 1,9,-1
 465 1475 l 2,0,1
1008 561 m 2,10,11
 1008 439 1008 439 997.5 351 c 128,-1,12
 987 263 987 263 958.5 184 c 128,-1,13
 930 105 930 105 880.5 57.5 c 128,-1,14
 831 10 831 10 751.5 -17.5 c 128,-1,15
 672 -45 672 -45 561 -45 c 0,16,17
 428 -45 428 -45 340 -12 c 128,-1,18
 252 21 252 21 202.5 91.5 c 128,-1,19
 153 162 153 162 133 257.5 c 128,-1,20
 113 353 113 353 113 494 c 2,21,-1
 113 1352 l 1,22,-1
 352 1352 l 1,23,-1
 352 516 l 2,24,25
 352 461 352 461 353 424.5 c 128,-1,26
 354 388 354 388 359 340 c 128,-1,27
 364 292 364 292 373 260.5 c 128,-1,28
 382 229 382 229 399 195.5 c 128,-1,29
 416 162 416 162 439.5 142.5 c 128,-1,30
 463 123 463 123 498 110.5 c 128,-1,31
 533 98 533 98 578 98 c 128,-1,32
 623 98 623 98 658 112 c 128,-1,33
 693 126 693 126 716.5 147 c 128,-1,34
 740 168 740 168 756 204.5 c 128,-1,35
 772 241 772 241 781 273.5 c 128,-1,36
 790 306 790 306 794.5 357 c 128,-1,37
 799 408 799 408 800 445 c 128,-1,38
 801 482 801 482 801 539 c 2,39,-1
 801 1352 l 1,40,-1
 1008 1352 l 1,41,-1
 1008 561 l 2,10,11
EndSplineSet
Validated: 1
Position2: "'cpsp' Capital Spacing lookup 3 subtable" dx=10 dy=0 dh=20 dv=0
EndChar

StartChar: Uhungarumlaut
Encoding: 368 368 130
Width: 1120
Flags: MW
HStem: -45 143<470 685 470 749> 1311 41G<113 352 352 352 801 1008 1008 1008>
VStem: 113 240<494 516 516 1352> 801 207<539 561 561 1352>
LayerCount: 2
UndoRedoHistory
Layer: 1
Undoes
EndUndoes
Redoes
EndRedoes
EndUndoRedoHistory
Fore
SplineSet
623 1739 m 1,0,1
 657 1725 657 1725 677.5 1700 c 128,-1,2
 698 1675 698 1675 698 1645 c 0,3,4
 698 1621 698 1621 684 1600 c 128,-1,5
 670 1579 670 1579 631.5 1557.5 c 128,-1,6
 593 1536 593 1536 578 1529 c 128,-1,7
 563 1522 563 1522 509 1500 c 0,8,9
 502 1496 502 1496 498 1495 c 2,10,-1
 344 1440 l 1,11,-1
 305 1520 l 1,12,-1
 623 1739 l 1,0,1
1006 1739 m 1,13,14
 1040 1725 1040 1725 1060.5 1700 c 128,-1,15
 1081 1675 1081 1675 1081 1645 c 0,16,17
 1081 1628 1081 1628 1073.5 1612 c 128,-1,18
 1066 1596 1066 1596 1047.5 1581 c 128,-1,19
 1029 1566 1029 1566 1015.5 1556.5 c 128,-1,20
 1002 1547 1002 1547 971 1533 c 128,-1,21
 940 1519 940 1519 928.5 1514 c 128,-1,22
 917 1509 917 1509 883 1495 c 1,23,-1
 727 1440 l 1,24,-1
 688 1520 l 1,25,-1
 1006 1739 l 1,13,14
1008 561 m 2,26,27
 1008 439 1008 439 997.5 351 c 128,-1,28
 987 263 987 263 958.5 184 c 128,-1,29
 930 105 930 105 880.5 57.5 c 128,-1,30
 831 10 831 10 751.5 -17.5 c 128,-1,31
 672 -45 672 -45 561 -45 c 0,32,33
 428 -45 428 -45 340 -12 c 128,-1,34
 252 21 252 21 202.5 91.5 c 128,-1,35
 153 162 153 162 133 257.5 c 128,-1,36
 113 353 113 353 113 494 c 2,37,-1
 113 1352 l 1,38,-1
 352 1352 l 1,39,-1
 352 516 l 2,40,41
 352 461 352 461 353 424.5 c 128,-1,42
 354 388 354 388 359 340 c 128,-1,43
 364 292 364 292 373 260.5 c 128,-1,44
 382 229 382 229 399 195.5 c 128,-1,45
 416 162 416 162 439.5 142.5 c 128,-1,46
 463 123 463 123 498 110.5 c 128,-1,47
 533 98 533 98 578 98 c 128,-1,48
 623 98 623 98 658 112 c 128,-1,49
 693 126 693 126 716.5 147 c 128,-1,50
 740 168 740 168 756 204.5 c 128,-1,51
 772 241 772 241 781 273.5 c 128,-1,52
 790 306 790 306 794.5 357 c 128,-1,53
 799 408 799 408 800 445 c 128,-1,54
 801 482 801 482 801 539 c 2,55,-1
 801 1352 l 1,56,-1
 1008 1352 l 1,57,-1
 1008 561 l 2,26,27
EndSplineSet
Validated: 1
Position2: "'cpsp' Capital Spacing lookup 3 subtable" dx=10 dy=0 dh=20 dv=0
EndChar

StartChar: Umacron
Encoding: 362 362 131
Width: 1120
Flags: MW
HStem: -45 143<470 685 470 749> 1311 41G<113 352 352 352 801 1008 1008 1008> 1520 168<401 741 311 844>
VStem: 113 240<494 516 516 1352> 801 207<539 561 561 1352>
LayerCount: 2
Fore
SplineSet
844 1688 m 1,0,1
 860 1648 860 1648 860 1610 c 0,2,3
 860 1520 860 1520 741 1520 c 2,4,-1
 311 1520 l 1,5,6
 297 1552 297 1552 297 1593 c 0,7,8
 297 1637 297 1637 324.5 1662.5 c 128,-1,9
 352 1688 352 1688 401 1688 c 2,10,-1
 844 1688 l 1,0,1
1008 561 m 2,11,12
 1008 439 1008 439 997.5 351 c 128,-1,13
 987 263 987 263 958.5 184 c 128,-1,14
 930 105 930 105 880.5 57.5 c 128,-1,15
 831 10 831 10 751.5 -17.5 c 128,-1,16
 672 -45 672 -45 561 -45 c 0,17,18
 428 -45 428 -45 340 -12 c 128,-1,19
 252 21 252 21 202.5 91.5 c 128,-1,20
 153 162 153 162 133 257.5 c 128,-1,21
 113 353 113 353 113 494 c 2,22,-1
 113 1352 l 1,23,-1
 352 1352 l 1,24,-1
 352 516 l 2,25,26
 352 461 352 461 353 424.5 c 128,-1,27
 354 388 354 388 359 340 c 128,-1,28
 364 292 364 292 373 260.5 c 128,-1,29
 382 229 382 229 399 195.5 c 128,-1,30
 416 162 416 162 439.5 142.5 c 128,-1,31
 463 123 463 123 498 110.5 c 128,-1,32
 533 98 533 98 578 98 c 128,-1,33
 623 98 623 98 658 112 c 128,-1,34
 693 126 693 126 716.5 147 c 128,-1,35
 740 168 740 168 756 204.5 c 128,-1,36
 772 241 772 241 781 273.5 c 128,-1,37
 790 306 790 306 794.5 357 c 128,-1,38
 799 408 799 408 800 445 c 128,-1,39
 801 482 801 482 801 539 c 2,40,-1
 801 1352 l 1,41,-1
 1008 1352 l 1,42,-1
 1008 561 l 2,11,12
EndSplineSet
Validated: 1
Position2: "'cpsp' Capital Spacing lookup 3 subtable" dx=10 dy=0 dh=20 dv=0
EndChar

StartChar: Uogonek
Encoding: 370 370 132
Width: 1120
Flags: MW
HStem: -504 119<740 776> -45 143<470 574> 1311 41G<113 352 352 352 801 1008 1008 1008>
VStem: 113 240<494 516 516 1352> 518 152<-305 -245> 801 207<539 561 561 1352> 881 23
LayerCount: 2
Fore
SplineSet
1008 561 m 2,0,1
 1008 348 1008 348 970.5 216.5 c 128,-1,2
 933 85 933 85 834 20 c 1,3,4
 759 -36 759 -36 714.5 -111.5 c 128,-1,5
 670 -187 670 -187 670 -266 c 0,6,7
 670 -327 670 -327 695 -356 c 128,-1,8
 720 -385 720 -385 784 -385 c 0,9,10
 844 -385 844 -385 881 -342 c 1,11,12
 903 -361 903 -361 903 -393 c 0,13,14
 903 -450 903 -450 854 -477 c 128,-1,15
 805 -504 805 -504 735 -504 c 0,16,17
 632 -504 632 -504 575 -449 c 128,-1,18
 518 -394 518 -394 518 -293 c 0,19,20
 518 -158 518 -158 635 -41 c 1,21,22
 585 -45 585 -45 561 -45 c 0,23,24
 428 -45 428 -45 340 -12 c 128,-1,25
 252 21 252 21 202.5 91.5 c 128,-1,26
 153 162 153 162 133 257.5 c 128,-1,27
 113 353 113 353 113 494 c 2,28,-1
 113 1352 l 1,29,-1
 352 1352 l 1,30,-1
 352 516 l 2,31,32
 352 461 352 461 353 424.5 c 128,-1,33
 354 388 354 388 359 340 c 128,-1,34
 364 292 364 292 373 260.5 c 128,-1,35
 382 229 382 229 399 195.5 c 128,-1,36
 416 162 416 162 439.5 142.5 c 128,-1,37
 463 123 463 123 498 110.5 c 128,-1,38
 533 98 533 98 578 98 c 128,-1,39
 623 98 623 98 658 112 c 128,-1,40
 693 126 693 126 716.5 147 c 128,-1,41
 740 168 740 168 756 204.5 c 128,-1,42
 772 241 772 241 781 273.5 c 128,-1,43
 790 306 790 306 794.5 357 c 128,-1,44
 799 408 799 408 800 445 c 128,-1,45
 801 482 801 482 801 539 c 2,46,-1
 801 1352 l 1,47,-1
 1008 1352 l 1,48,-1
 1008 561 l 2,0,1
EndSplineSet
Validated: 1
Position2: "'cpsp' Capital Spacing lookup 3 subtable" dx=10 dy=0 dh=20 dv=0
EndChar

StartChar: Uring
Encoding: 366 366 133
Width: 1120
Flags: MW
HStem: -45 143<470 685 470 749> 1311 41G<113 352 352 352 801 1008 1008 1008> 1438 70<546 606 546 633> 1706 70<547 605>
VStem: 113 240<494 516 516 1352> 371 119<1581 1636 1581 1663> 664 119<1581 1636> 801 207<539 561 561 1352>
LayerCount: 2
Fore
SplineSet
575 1438 m 0,0,1
 488 1438 488 1438 429.5 1485 c 128,-1,2
 371 1532 371 1532 371 1610 c 0,3,4
 371 1687 371 1687 428.5 1731.5 c 128,-1,5
 486 1776 486 1776 575 1776 c 0,6,7
 666 1776 666 1776 724 1731.5 c 128,-1,8
 782 1687 782 1687 782 1610 c 0,9,10
 782 1532 782 1532 723 1485 c 128,-1,11
 664 1438 664 1438 575 1438 c 0,0,1
575 1507 m 0,12,13
 619 1507 619 1507 641.5 1536 c 128,-1,14
 664 1565 664 1565 664 1610 c 0,15,16
 664 1652 664 1652 641 1679 c 128,-1,17
 618 1706 618 1706 575 1706 c 0,18,19
 534 1706 534 1706 511.5 1679 c 128,-1,20
 489 1652 489 1652 489 1610 c 0,21,22
 489 1565 489 1565 511 1536 c 128,-1,23
 533 1507 533 1507 575 1507 c 0,12,13
1008 561 m 2,24,25
 1008 439 1008 439 997.5 351 c 128,-1,26
 987 263 987 263 958.5 184 c 128,-1,27
 930 105 930 105 880.5 57.5 c 128,-1,28
 831 10 831 10 751.5 -17.5 c 128,-1,29
 672 -45 672 -45 561 -45 c 0,30,31
 428 -45 428 -45 340 -12 c 128,-1,32
 252 21 252 21 202.5 91.5 c 128,-1,33
 153 162 153 162 133 257.5 c 128,-1,34
 113 353 113 353 113 494 c 2,35,-1
 113 1352 l 1,36,-1
 352 1352 l 1,37,-1
 352 516 l 2,38,39
 352 461 352 461 353 424.5 c 128,-1,40
 354 388 354 388 359 340 c 128,-1,41
 364 292 364 292 373 260.5 c 128,-1,42
 382 229 382 229 399 195.5 c 128,-1,43
 416 162 416 162 439.5 142.5 c 128,-1,44
 463 123 463 123 498 110.5 c 128,-1,45
 533 98 533 98 578 98 c 128,-1,46
 623 98 623 98 658 112 c 128,-1,47
 693 126 693 126 716.5 147 c 128,-1,48
 740 168 740 168 756 204.5 c 128,-1,49
 772 241 772 241 781 273.5 c 128,-1,50
 790 306 790 306 794.5 357 c 128,-1,51
 799 408 799 408 800 445 c 128,-1,52
 801 482 801 482 801 539 c 2,53,-1
 801 1352 l 1,54,-1
 1008 1352 l 1,55,-1
 1008 561 l 2,24,25
EndSplineSet
Validated: 1
Position2: "'cpsp' Capital Spacing lookup 3 subtable" dx=10 dy=0 dh=20 dv=0
EndChar

StartChar: Utilde
Encoding: 360 360 134
Width: 1120
Flags: MW
HStem: -45 143<470 685 470 749> 1311 41G<113 352 352 352 801 1008 1008 1008> 1475 174<717 740 682 797> 1524 174<413 437 356 471>
VStem: 113 240<494 516 516 1352> 801 207<539 561 561 1352>
LayerCount: 2
Fore
SplineSet
831 1679 m 1,0,1
 887 1642 887 1642 887 1575 c 0,2,3
 887 1525 887 1525 852.5 1500 c 128,-1,4
 818 1475 818 1475 762 1475 c 0,5,6
 716 1475 716 1475 593 1499.5 c 128,-1,7
 470 1524 470 1524 430 1524 c 0,8,9
 355 1524 355 1524 322 1493 c 1,10,11
 266 1530 266 1530 266 1597 c 0,12,13
 266 1647 266 1647 300.5 1672.5 c 128,-1,14
 335 1698 335 1698 391 1698 c 0,15,16
 438 1698 438 1698 560.5 1673.5 c 128,-1,17
 683 1649 683 1649 723 1649 c 0,18,19
 799 1649 799 1649 831 1679 c 1,0,1
1008 561 m 2,20,21
 1008 439 1008 439 997.5 351 c 128,-1,22
 987 263 987 263 958.5 184 c 128,-1,23
 930 105 930 105 880.5 57.5 c 128,-1,24
 831 10 831 10 751.5 -17.5 c 128,-1,25
 672 -45 672 -45 561 -45 c 0,26,27
 428 -45 428 -45 340 -12 c 128,-1,28
 252 21 252 21 202.5 91.5 c 128,-1,29
 153 162 153 162 133 257.5 c 128,-1,30
 113 353 113 353 113 494 c 2,31,-1
 113 1352 l 1,32,-1
 352 1352 l 1,33,-1
 352 516 l 2,34,35
 352 461 352 461 353 424.5 c 128,-1,36
 354 388 354 388 359 340 c 128,-1,37
 364 292 364 292 373 260.5 c 128,-1,38
 382 229 382 229 399 195.5 c 128,-1,39
 416 162 416 162 439.5 142.5 c 128,-1,40
 463 123 463 123 498 110.5 c 128,-1,41
 533 98 533 98 578 98 c 128,-1,42
 623 98 623 98 658 112 c 128,-1,43
 693 126 693 126 716.5 147 c 128,-1,44
 740 168 740 168 756 204.5 c 128,-1,45
 772 241 772 241 781 273.5 c 128,-1,46
 790 306 790 306 794.5 357 c 128,-1,47
 799 408 799 408 800 445 c 128,-1,48
 801 482 801 482 801 539 c 2,49,-1
 801 1352 l 1,50,-1
 1008 1352 l 1,51,-1
 1008 561 l 2,20,21
EndSplineSet
Validated: 1
Position2: "'cpsp' Capital Spacing lookup 3 subtable" dx=10 dy=0 dh=20 dv=0
EndChar

StartChar: V
Encoding: 86 86 135
Width: 980
Flags: MW
HStem: 0 154<500 500 500 631> 1311 41G<-10 231 231 231 766 991 991 991>
VStem: -10 1001<1352 1352>
LayerCount: 2
Fore
SplineSet
631 0 m 1,0,-1
 324 0 l 1,1,-1
 -10 1352 l 1,2,-1
 231 1352 l 1,3,-1
 500 154 l 1,4,-1
 766 1352 l 1,5,-1
 991 1352 l 1,6,-1
 631 0 l 1,0,-1
EndSplineSet
Validated: 1
Position2: "'cpsp' Capital Spacing lookup 3 subtable" dx=10 dy=0 dh=20 dv=0
EndChar

StartChar: W
Encoding: 87 87 136
Width: 1628
Flags: MW
HStem: 0 154<471 471 471 602> 1311 41G<-10 231 231 231 709 936 936 936 1413 1638 1638 1638>
VStem: -10 1649<1352 1352>
LayerCount: 2
Fore
SplineSet
1307 0 m 1,0,-1
 999 0 l 1,1,-1
 801 971 l 1,2,-1
 602 0 l 1,3,-1
 295 0 l 1,4,-1
 -10 1352 l 1,5,-1
 231 1352 l 1,6,-1
 471 154 l 1,7,-1
 709 1352 l 1,8,-1
 936 1352 l 1,9,-1
 1176 154 l 1,10,-1
 1413 1352 l 1,11,-1
 1638 1352 l 1,12,-1
 1307 0 l 1,0,-1
EndSplineSet
Validated: 1
Position2: "'cpsp' Capital Spacing lookup 3 subtable" dx=10 dy=0 dh=20 dv=0
EndChar

StartChar: Wacute
Encoding: 7810 7810 137
Width: 1628
Flags: MW
HStem: 0 154<471 471 471 602> 1311 41G<-10 231 231 231 709 936 936 936 1413 1638 1638 1638>
VStem: -10 1649<1352 1352>
LayerCount: 2
Fore
SplineSet
1100 1714 m 1,0,1
 1159 1672 1159 1672 1159 1610 c 0,2,3
 1159 1571 1159 1571 1140 1544.5 c 128,-1,4
 1121 1518 1121 1518 1085 1504.5 c 128,-1,5
 1049 1491 1049 1491 1015 1485 c 128,-1,6
 981 1479 981 1479 932 1475 c 2,7,-1
 688 1456 l 1,8,-1
 666 1542 l 1,9,-1
 1100 1714 l 1,0,1
999 0 m 1,10,-1
 801 971 l 1,11,-1
 602 0 l 1,12,-1
 295 0 l 1,13,-1
 -10 1352 l 1,14,-1
 231 1352 l 1,15,-1
 471 154 l 1,16,-1
 709 1352 l 1,17,-1
 936 1352 l 1,18,-1
 1176 154 l 1,19,-1
 1413 1352 l 1,20,-1
 1638 1352 l 1,21,-1
 1307 0 l 1,22,-1
 999 0 l 1,10,-1
EndSplineSet
Validated: 1
Position2: "'cpsp' Capital Spacing lookup 3 subtable" dx=10 dy=0 dh=20 dv=0
EndChar

StartChar: Wcircumflex
Encoding: 372 372 138
Width: 1628
Flags: MW
HStem: 0 154<471 471 471 602> 1311 41G<-10 231 231 231 709 936 936 936 1413 1638 1638 1638> 1401 41G<520 520 1130 1130>
VStem: -10 1649<1352 1352>
LayerCount: 2
Fore
SplineSet
520 1442 m 1,0,-1
 817 1712 l 1,1,-1
 825 1712 l 1,2,-1
 1130 1442 l 1,3,-1
 1069 1370 l 1,4,-1
 823 1520 l 1,5,-1
 580 1370 l 1,6,-1
 520 1442 l 1,0,-1
999 0 m 1,7,-1
 801 971 l 1,8,-1
 602 0 l 1,9,-1
 295 0 l 1,10,-1
 -10 1352 l 1,11,-1
 231 1352 l 1,12,-1
 471 154 l 1,13,-1
 709 1352 l 1,14,-1
 936 1352 l 1,15,-1
 1176 154 l 1,16,-1
 1413 1352 l 1,17,-1
 1638 1352 l 1,18,-1
 1307 0 l 1,19,-1
 999 0 l 1,7,-1
EndSplineSet
Validated: 1
Position2: "'cpsp' Capital Spacing lookup 3 subtable" dx=10 dy=0 dh=20 dv=0
EndChar

StartChar: Wdieresis
Encoding: 7812 7812 139
Width: 1628
Flags: MW
HStem: 0 154<471 471 471 602> 1311 41G<-10 231 231 231 709 936 936 936 1413 1638 1638 1638> 1454 258<578 658 985 1066>
VStem: 465 307<1541 1625> 872 307<1541 1625>
LayerCount: 2
Fore
SplineSet
621 1712 m 128,-1,1
 689 1712 689 1712 730.5 1679 c 128,-1,2
 772 1646 772 1646 772 1585 c 0,3,4
 772 1522 772 1522 727.5 1488 c 128,-1,5
 683 1454 683 1454 614 1454 c 0,6,7
 547 1454 547 1454 506 1487 c 128,-1,8
 465 1520 465 1520 465 1581 c 0,9,10
 465 1644 465 1644 509 1678 c 128,-1,0
 553 1712 553 1712 621 1712 c 128,-1,1
1028 1712 m 128,-1,12
 1096 1712 1096 1712 1138 1679 c 128,-1,13
 1180 1646 1180 1646 1180 1585 c 0,14,15
 1180 1522 1180 1522 1135.5 1488 c 128,-1,16
 1091 1454 1091 1454 1022 1454 c 0,17,18
 955 1454 955 1454 913.5 1487 c 128,-1,19
 872 1520 872 1520 872 1581 c 0,20,21
 872 1644 872 1644 916 1678 c 128,-1,11
 960 1712 960 1712 1028 1712 c 128,-1,12
999 0 m 1,22,-1
 801 971 l 1,23,-1
 602 0 l 1,24,-1
 295 0 l 1,25,-1
 -10 1352 l 1,26,-1
 231 1352 l 1,27,-1
 471 154 l 1,28,-1
 709 1352 l 1,29,-1
 936 1352 l 1,30,-1
 1176 154 l 1,31,-1
 1413 1352 l 1,32,-1
 1638 1352 l 1,33,-1
 1307 0 l 1,34,-1
 999 0 l 1,22,-1
EndSplineSet
Validated: 1
Position2: "'cpsp' Capital Spacing lookup 3 subtable" dx=10 dy=0 dh=20 dv=0
EndChar

StartChar: Wgrave
Encoding: 7808 7808 140
Width: 1628
Flags: MW
HStem: 0 154<471 471 471 602> 1311 41G<-10 231 231 231 709 936 936 936 1413 1638 1638 1638>
VStem: -10 1649<1352 1352>
LayerCount: 2
Fore
SplineSet
711 1475 m 2,0,1
 673 1478 673 1478 645 1481.5 c 128,-1,2
 617 1485 617 1485 585 1494.5 c 128,-1,3
 553 1504 553 1504 532.5 1517.5 c 128,-1,4
 512 1531 512 1531 498.5 1555 c 128,-1,5
 485 1579 485 1579 485 1610 c 0,6,7
 485 1673 485 1673 543 1714 c 1,8,-1
 979 1542 l 1,9,-1
 956 1456 l 1,10,-1
 711 1475 l 2,0,1
999 0 m 1,11,-1
 801 971 l 1,12,-1
 602 0 l 1,13,-1
 295 0 l 1,14,-1
 -10 1352 l 1,15,-1
 231 1352 l 1,16,-1
 471 154 l 1,17,-1
 709 1352 l 1,18,-1
 936 1352 l 1,19,-1
 1176 154 l 1,20,-1
 1413 1352 l 1,21,-1
 1638 1352 l 1,22,-1
 1307 0 l 1,23,-1
 999 0 l 1,11,-1
EndSplineSet
Validated: 1
Position2: "'cpsp' Capital Spacing lookup 3 subtable" dx=10 dy=0 dh=20 dv=0
EndChar

StartChar: X
Encoding: 88 88 141
Width: 1056
Flags: MW
HStem: 1311 41G<31 293 293 293 795 1040 1040 1040>
VStem: 2 1053<0 0>
LayerCount: 2
Fore
SplineSet
655 696 m 1,0,-1
 1055 0 l 1,1,-1
 793 0 l 1,2,-1
 510 508 l 1,3,-1
 248 0 l 1,4,-1
 2 0 l 1,5,-1
 408 690 l 1,6,-1
 31 1352 l 1,7,-1
 293 1352 l 1,8,-1
 553 881 l 1,9,-1
 795 1352 l 1,10,-1
 1040 1352 l 1,11,-1
 655 696 l 1,0,-1
EndSplineSet
Validated: 1
Position2: "'cpsp' Capital Spacing lookup 3 subtable" dx=10 dy=0 dh=20 dv=0
EndChar

StartChar: Y
Encoding: 89 89 142
Width: 1032
Flags: MW
HStem: 1311 41G<2 264 264 264 782 1028 1028 1028>
VStem: 395 240<0 600 600 600>
LayerCount: 2
Fore
SplineSet
635 0 m 1,0,-1
 395 0 l 1,1,-1
 395 600 l 1,2,-1
 2 1352 l 1,3,-1
 264 1352 l 1,4,-1
 530 797 l 1,5,-1
 782 1352 l 1,6,-1
 1028 1352 l 1,7,-1
 635 625 l 1,8,-1
 635 0 l 1,0,-1
EndSplineSet
Validated: 1
Position2: "'cpsp' Capital Spacing lookup 3 subtable" dx=10 dy=0 dh=20 dv=0
EndChar

StartChar: Yacute
Encoding: 221 221 143
Width: 1032
Flags: MW
HStem: 1311 41G<2 264 264 264 782 1028 1028 1028>
VStem: 395 240<0 600 600 600>
LayerCount: 2
Fore
SplineSet
807 1714 m 1,0,1
 866 1672 866 1672 866 1610 c 0,2,3
 866 1571 866 1571 847 1544.5 c 128,-1,4
 828 1518 828 1518 792 1504.5 c 128,-1,5
 756 1491 756 1491 722 1485 c 128,-1,6
 688 1479 688 1479 639 1475 c 2,7,-1
 395 1456 l 1,8,-1
 373 1542 l 1,9,-1
 807 1714 l 1,0,1
395 0 m 1,10,-1
 395 600 l 1,11,-1
 2 1352 l 1,12,-1
 264 1352 l 1,13,-1
 530 797 l 1,14,-1
 782 1352 l 1,15,-1
 1028 1352 l 1,16,-1
 635 625 l 1,17,-1
 635 0 l 1,18,-1
 395 0 l 1,10,-1
EndSplineSet
Validated: 1
Position2: "'cpsp' Capital Spacing lookup 3 subtable" dx=10 dy=0 dh=20 dv=0
EndChar

StartChar: Ycircumflex
Encoding: 374 374 144
Width: 1032
Flags: MW
HStem: 1311 41G<2 264 264 264 782 1028 1028 1028> 1401 41G<227 227 838 838>
VStem: 395 240<0 600 600 600>
LayerCount: 2
Fore
SplineSet
227 1442 m 1,0,-1
 524 1712 l 1,1,-1
 532 1712 l 1,2,-1
 838 1442 l 1,3,-1
 776 1370 l 1,4,-1
 530 1520 l 1,5,-1
 287 1370 l 1,6,-1
 227 1442 l 1,0,-1
395 0 m 1,7,-1
 395 600 l 1,8,-1
 2 1352 l 1,9,-1
 264 1352 l 1,10,-1
 530 797 l 1,11,-1
 782 1352 l 1,12,-1
 1028 1352 l 1,13,-1
 635 625 l 1,14,-1
 635 0 l 1,15,-1
 395 0 l 1,7,-1
EndSplineSet
Validated: 1
Position2: "'cpsp' Capital Spacing lookup 3 subtable" dx=10 dy=0 dh=20 dv=0
EndChar

StartChar: Ydieresis
Encoding: 376 376 145
Width: 1032
Flags: MW
HStem: 1311 41G<2 264 264 264 782 1028 1028 1028> 1454 258<285 366 692 773>
VStem: 172 307<1541 1625> 395 240<0 600 600 600> 580 307<1541 1625>
LayerCount: 2
Fore
SplineSet
328 1712 m 128,-1,1
 396 1712 396 1712 437.5 1679 c 128,-1,2
 479 1646 479 1646 479 1585 c 0,3,4
 479 1522 479 1522 435 1488 c 128,-1,5
 391 1454 391 1454 322 1454 c 0,6,7
 255 1454 255 1454 213.5 1487 c 128,-1,8
 172 1520 172 1520 172 1581 c 0,9,10
 172 1644 172 1644 216 1678 c 128,-1,0
 260 1712 260 1712 328 1712 c 128,-1,1
735 1712 m 128,-1,12
 803 1712 803 1712 845 1679 c 128,-1,13
 887 1646 887 1646 887 1585 c 0,14,15
 887 1522 887 1522 842.5 1488 c 128,-1,16
 798 1454 798 1454 729 1454 c 0,17,18
 662 1454 662 1454 621 1487 c 128,-1,19
 580 1520 580 1520 580 1581 c 0,20,21
 580 1644 580 1644 623.5 1678 c 128,-1,11
 667 1712 667 1712 735 1712 c 128,-1,12
395 0 m 1,22,-1
 395 600 l 1,23,-1
 2 1352 l 1,24,-1
 264 1352 l 1,25,-1
 530 797 l 1,26,-1
 782 1352 l 1,27,-1
 1028 1352 l 1,28,-1
 635 625 l 1,29,-1
 635 0 l 1,30,-1
 395 0 l 1,22,-1
EndSplineSet
Validated: 1
Position2: "'cpsp' Capital Spacing lookup 3 subtable" dx=10 dy=0 dh=20 dv=0
EndChar

StartChar: Ygrave
Encoding: 7922 7922 146
Width: 1032
Flags: MW
HStem: 1311 41G<2 264 264 264 782 1028 1028 1028>
VStem: 395 240<0 600 600 600>
LayerCount: 2
Fore
SplineSet
418 1475 m 2,0,1
 369 1479 369 1479 335.5 1485 c 128,-1,2
 302 1491 302 1491 266 1504.5 c 128,-1,3
 230 1518 230 1518 211.5 1544.5 c 128,-1,4
 193 1571 193 1571 193 1610 c 0,5,6
 193 1673 193 1673 250 1714 c 1,7,-1
 686 1542 l 1,8,-1
 664 1456 l 1,9,-1
 418 1475 l 2,0,1
395 0 m 1,10,-1
 395 600 l 1,11,-1
 2 1352 l 1,12,-1
 264 1352 l 1,13,-1
 530 797 l 1,14,-1
 782 1352 l 1,15,-1
 1028 1352 l 1,16,-1
 635 625 l 1,17,-1
 635 0 l 1,18,-1
 395 0 l 1,10,-1
EndSplineSet
Validated: 1
Position2: "'cpsp' Capital Spacing lookup 3 subtable" dx=10 dy=0 dh=20 dv=0
EndChar

StartChar: Ytilde
Encoding: 7928 7928 147
Width: 1032
Flags: MW
HStem: 1311 41G<2 264 264 264 782 1028 1028 1028> 1475 174<670 693 635 750> 1524 174<366 390 309 424>
VStem: 395 240<0 600 600 600>
LayerCount: 2
Fore
SplineSet
784 1679 m 1,0,1
 840 1642 840 1642 840 1575 c 0,2,3
 840 1525 840 1525 805.5 1500 c 128,-1,4
 771 1475 771 1475 715 1475 c 0,5,6
 669 1475 669 1475 546 1499.5 c 128,-1,7
 423 1524 423 1524 383 1524 c 0,8,9
 307 1524 307 1524 274 1493 c 1,10,11
 219 1529 219 1529 219 1597 c 0,12,13
 219 1647 219 1647 253.5 1672.5 c 128,-1,14
 288 1698 288 1698 344 1698 c 0,15,16
 391 1698 391 1698 513.5 1673.5 c 128,-1,17
 636 1649 636 1649 676 1649 c 0,18,19
 752 1649 752 1649 784 1679 c 1,0,1
395 0 m 1,20,-1
 395 600 l 1,21,-1
 2 1352 l 1,22,-1
 264 1352 l 1,23,-1
 530 797 l 1,24,-1
 782 1352 l 1,25,-1
 1028 1352 l 1,26,-1
 635 625 l 1,27,-1
 635 0 l 1,28,-1
 395 0 l 1,20,-1
EndSplineSet
Validated: 1
Position2: "'cpsp' Capital Spacing lookup 3 subtable" dx=10 dy=0 dh=20 dv=0
EndChar

StartChar: Z
Encoding: 90 90 148
Width: 860
Flags: MW
HStem: 0 152<264 838> 1200 152<59 578 45 819>
VStem: 8 844<150 152>
LayerCount: 2
Fore
SplineSet
834 1202 m 1,0,-1
 264 152 l 1,1,-1
 852 152 l 1,2,-1
 838 0 l 1,3,-1
 23 0 l 1,4,-1
 8 150 l 1,5,-1
 578 1200 l 1,6,-1
 45 1200 l 1,7,-1
 59 1352 l 1,8,-1
 819 1352 l 1,9,-1
 834 1202 l 1,0,-1
EndSplineSet
Validated: 1
Position2: "'cpsp' Capital Spacing lookup 3 subtable" dx=10 dy=0 dh=20 dv=0
EndChar

StartChar: Zacute
Encoding: 377 377 149
Width: 860
Flags: MW
HStem: 0 152<264 838> 1200 152<59 578 45 819>
VStem: 8 844<150 152>
LayerCount: 2
Fore
SplineSet
713 1716 m 1,0,1
 772 1674 772 1674 772 1612 c 0,2,3
 772 1573 772 1573 753 1546.5 c 128,-1,4
 734 1520 734 1520 698 1506.5 c 128,-1,5
 662 1493 662 1493 628 1487 c 128,-1,6
 594 1481 594 1481 545 1477 c 2,7,-1
 301 1458 l 1,8,-1
 279 1544 l 1,9,-1
 713 1716 l 1,0,1
264 152 m 1,10,-1
 852 152 l 1,11,-1
 838 0 l 1,12,-1
 23 0 l 1,13,-1
 8 150 l 1,14,-1
 578 1200 l 1,15,-1
 45 1200 l 1,16,-1
 59 1352 l 1,17,-1
 819 1352 l 1,18,-1
 834 1202 l 1,19,-1
 264 152 l 1,10,-1
EndSplineSet
Validated: 1
Substitution2: "'locl' Localized Forms in Latin lookup 13 subtable" Zacute.loclPLK
Substitution2: "'aalt' Access All Alternates lookup 0 subtable" Zacute.loclPLK
Position2: "'cpsp' Capital Spacing lookup 3 subtable" dx=10 dy=0 dh=20 dv=0
EndChar

StartChar: Zcaron
Encoding: 381 381 150
Width: 860
Flags: MW
HStem: 0 152<264 838> 1200 152<59 578 45 819>
VStem: 8 844<150 152>
LayerCount: 2
Fore
SplineSet
735 1638 m 1,0,-1
 438 1409 l 1,1,-1
 432 1409 l 1,2,-1
 127 1638 l 1,3,-1
 186 1710 l 1,4,-1
 432 1581 l 1,5,-1
 676 1710 l 1,6,-1
 735 1638 l 1,0,-1
264 152 m 1,7,-1
 852 152 l 1,8,-1
 838 0 l 1,9,-1
 23 0 l 1,10,-1
 8 150 l 1,11,-1
 578 1200 l 1,12,-1
 45 1200 l 1,13,-1
 59 1352 l 1,14,-1
 819 1352 l 1,15,-1
 834 1202 l 1,16,-1
 264 152 l 1,7,-1
EndSplineSet
Validated: 1
Position2: "'cpsp' Capital Spacing lookup 3 subtable" dx=10 dy=0 dh=20 dv=0
EndChar

StartChar: Zdotaccent
Encoding: 379 379 151
Width: 860
Flags: MW
HStem: 0 152<264 838> 1200 152<59 578 45 819> 1483 258<391 472>
VStem: 279 307<1570 1654>
LayerCount: 2
Fore
SplineSet
434 1741 m 128,-1,1
 502 1741 502 1741 544 1708 c 128,-1,2
 586 1675 586 1675 586 1614 c 0,3,4
 586 1551 586 1551 541.5 1517 c 128,-1,5
 497 1483 497 1483 428 1483 c 0,6,7
 361 1483 361 1483 320 1516 c 128,-1,8
 279 1549 279 1549 279 1610 c 0,9,10
 279 1673 279 1673 322.5 1707 c 128,-1,0
 366 1741 366 1741 434 1741 c 128,-1,1
264 152 m 1,11,-1
 852 152 l 1,12,-1
 838 0 l 1,13,-1
 23 0 l 1,14,-1
 8 150 l 1,15,-1
 578 1200 l 1,16,-1
 45 1200 l 1,17,-1
 59 1352 l 1,18,-1
 819 1352 l 1,19,-1
 834 1202 l 1,20,-1
 264 152 l 1,11,-1
EndSplineSet
Validated: 1
Position2: "'cpsp' Capital Spacing lookup 3 subtable" dx=10 dy=0 dh=20 dv=0
EndChar

StartChar: Zdotbelow
Encoding: 7826 7826 152
Width: 860
Flags: MW
HStem: -369 258<360 441> 0 152<264 838> 1200 152<59 578 45 819>
VStem: 248 307<-282 -198>
LayerCount: 2
Fore
SplineSet
264 152 m 1,0,-1
 852 152 l 1,1,-1
 838 0 l 1,2,-1
 23 0 l 1,3,-1
 8 150 l 1,4,-1
 578 1200 l 1,5,-1
 45 1200 l 1,6,-1
 59 1352 l 1,7,-1
 819 1352 l 1,8,-1
 834 1202 l 1,9,-1
 264 152 l 1,0,-1
403 -111 m 128,-1,11
 471 -111 471 -111 513 -144 c 128,-1,12
 555 -177 555 -177 555 -238 c 0,13,14
 555 -301 555 -301 510.5 -335 c 128,-1,15
 466 -369 466 -369 397 -369 c 0,16,17
 330 -369 330 -369 289 -336 c 128,-1,18
 248 -303 248 -303 248 -242 c 0,19,20
 248 -179 248 -179 291.5 -145 c 128,-1,10
 335 -111 335 -111 403 -111 c 128,-1,11
EndSplineSet
Validated: 1
Position2: "'cpsp' Capital Spacing lookup 3 subtable" dx=10 dy=0 dh=20 dv=0
EndChar

StartChar: a
Encoding: 97 97 153
Width: 1024
GlyphClass: 2
Flags: MW
HStem: -45 137<434 465> 494 102<579 668> 977 109<474 582>
VStem: 76 246<219 361 219 403> 129 225<818 880 818 927> 668 225<332 494 494 494 596 700>
AnchorPoint: "Anchor-1" 635 0 basechar 0
AnchorPoint: "Anchor-0" 635 1024 basechar 0
LayerCount: 2
Fore
SplineSet
893 168 m 2,0,1
 893 68 893 68 956 33 c 1,2,3
 922 -31 922 -31 836 -31 c 0,4,5
 777 -31 777 -31 737 2.5 c 128,-1,6
 697 36 697 36 690 94 c 1,7,8
 615 -45 615 -45 408 -45 c 0,9,10
 266 -45 266 -45 171 41 c 128,-1,11
 76 127 76 127 76 264 c 0,12,13
 76 596 76 596 668 596 c 1,14,-1
 668 774 l 2,15,16
 668 876 668 876 637 926.5 c 128,-1,17
 606 977 606 977 520 977 c 0,18,19
 448 977 448 977 401 939 c 128,-1,20
 354 901 354 901 354 834 c 0,21,22
 354 794 354 794 371 741 c 1,23,24
 344 719 344 719 289 719 c 0,25,26
 215 719 215 719 172 755.5 c 128,-1,27
 129 792 129 792 129 862 c 0,28,29
 129 960 129 960 239.5 1022.5 c 128,-1,30
 350 1085 350 1085 535 1085 c 0,31,32
 734 1085 734 1085 813.5 996 c 128,-1,33
 893 907 893 907 893 700 c 2,34,-1
 893 168 l 2,0,1
668 494 m 1,35,36
 322 494 322 494 322 272 c 0,37,38
 322 191 322 191 365.5 141.5 c 128,-1,39
 409 92 409 92 487 92 c 0,40,41
 577 92 577 92 622.5 160.5 c 128,-1,42
 668 229 668 229 668 332 c 2,43,-1
 668 494 l 1,35,36
EndSplineSet
Validated: 1
Substitution2: "Single Substitution lookup 21 subtable" ordfeminine
Substitution2: "'aalt' Access All Alternates lookup 0 subtable" ordfeminine
EndChar

StartChar: aacute
Encoding: 225 225 154
Width: 1024
Flags: MW
HStem: -45 137<434 465> 494 102<579 668> 977 109<474 582>
VStem: 76 246<219 361 219 403> 129 225<818 880 818 927> 668 225<332 494 494 494 596 700>
LayerCount: 2
Fore
SplineSet
705 1554 m 1,0,1
 747 1543 747 1543 774 1511 c 128,-1,2
 801 1479 801 1479 801 1438 c 0,3,4
 801 1409 801 1409 785.5 1383 c 128,-1,5
 770 1357 770 1357 741.5 1336 c 128,-1,6
 713 1315 713 1315 687 1301 c 128,-1,7
 661 1287 661 1287 627 1272 c 2,8,-1
 403 1171 l 1,9,-1
 352 1243 l 1,10,-1
 705 1554 l 1,0,1
893 168 m 2,11,12
 893 68 893 68 956 33 c 1,13,14
 922 -31 922 -31 836 -31 c 0,15,16
 777 -31 777 -31 737 2.5 c 128,-1,17
 697 36 697 36 690 94 c 1,18,19
 615 -45 615 -45 408 -45 c 0,20,21
 266 -45 266 -45 171 41 c 128,-1,22
 76 127 76 127 76 264 c 0,23,24
 76 596 76 596 668 596 c 1,25,-1
 668 774 l 2,26,27
 668 876 668 876 637 926.5 c 128,-1,28
 606 977 606 977 520 977 c 0,29,30
 448 977 448 977 401 939 c 128,-1,31
 354 901 354 901 354 834 c 0,32,33
 354 794 354 794 371 741 c 1,34,35
 344 719 344 719 289 719 c 0,36,37
 215 719 215 719 172 755.5 c 128,-1,38
 129 792 129 792 129 862 c 0,39,40
 129 960 129 960 239.5 1022.5 c 128,-1,41
 350 1085 350 1085 535 1085 c 0,42,43
 734 1085 734 1085 813.5 996 c 128,-1,44
 893 907 893 907 893 700 c 2,45,-1
 893 168 l 2,11,12
668 494 m 1,46,47
 322 494 322 494 322 272 c 0,48,49
 322 191 322 191 365.5 141.5 c 128,-1,50
 409 92 409 92 487 92 c 0,51,52
 577 92 577 92 622.5 160.5 c 128,-1,53
 668 229 668 229 668 332 c 2,54,-1
 668 494 l 1,46,47
EndSplineSet
Validated: 1
EndChar

StartChar: abreve
Encoding: 259 259 155
Width: 1024
Flags: MW
HStem: -45 137<434 465> 494 102<579 668> 977 109<474 582> 1212 106<472 568 472 611>
VStem: 76 246<219 361 219 403> 129 225<818 880 818 927> 213 186<1447 1495 1447 1495> 641 188<1447 1495> 668 225<332 494 494 494 596 700>
LayerCount: 2
Fore
SplineSet
829 1495 m 1,0,1
 829 1362 829 1362 744 1287 c 128,-1,2
 659 1212 659 1212 520 1212 c 0,3,4
 382 1212 382 1212 297.5 1287 c 128,-1,5
 213 1362 213 1362 213 1495 c 1,6,-1
 399 1495 l 1,7,8
 399 1319 399 1319 520 1319 c 128,-1,9
 641 1319 641 1319 641 1495 c 1,10,-1
 829 1495 l 1,0,1
893 168 m 2,11,12
 893 68 893 68 956 33 c 1,13,14
 922 -31 922 -31 836 -31 c 0,15,16
 777 -31 777 -31 737 2.5 c 128,-1,17
 697 36 697 36 690 94 c 1,18,19
 615 -45 615 -45 408 -45 c 0,20,21
 266 -45 266 -45 171 41 c 128,-1,22
 76 127 76 127 76 264 c 0,23,24
 76 596 76 596 668 596 c 1,25,-1
 668 774 l 2,26,27
 668 876 668 876 637 926.5 c 128,-1,28
 606 977 606 977 520 977 c 0,29,30
 448 977 448 977 401 939 c 128,-1,31
 354 901 354 901 354 834 c 0,32,33
 354 794 354 794 371 741 c 1,34,35
 344 719 344 719 289 719 c 0,36,37
 215 719 215 719 172 755.5 c 128,-1,38
 129 792 129 792 129 862 c 0,39,40
 129 960 129 960 239.5 1022.5 c 128,-1,41
 350 1085 350 1085 535 1085 c 0,42,43
 734 1085 734 1085 813.5 996 c 128,-1,44
 893 907 893 907 893 700 c 2,45,-1
 893 168 l 2,11,12
668 494 m 1,46,47
 322 494 322 494 322 272 c 0,48,49
 322 191 322 191 365.5 141.5 c 128,-1,50
 409 92 409 92 487 92 c 0,51,52
 577 92 577 92 622.5 160.5 c 128,-1,53
 668 229 668 229 668 332 c 2,54,-1
 668 494 l 1,46,47
EndSplineSet
Validated: 1
EndChar

StartChar: acircumflex
Encoding: 226 226 156
Width: 1024
Flags: MW
HStem: -45 137<434 465> 494 102<579 668> 977 109<474 582>
VStem: 76 246<219 361 219 403> 129 225<818 880 818 927> 668 225<332 494 494 494 596 700>
LayerCount: 2
Fore
SplineSet
217 1249 m 1,0,-1
 514 1520 l 1,1,-1
 522 1520 l 1,2,-1
 827 1249 l 1,3,-1
 766 1178 l 1,4,-1
 520 1327 l 1,5,-1
 276 1178 l 1,6,-1
 217 1249 l 1,0,-1
893 168 m 2,7,8
 893 68 893 68 956 33 c 1,9,10
 922 -31 922 -31 836 -31 c 0,11,12
 777 -31 777 -31 737 2.5 c 128,-1,13
 697 36 697 36 690 94 c 1,14,15
 615 -45 615 -45 408 -45 c 0,16,17
 266 -45 266 -45 171 41 c 128,-1,18
 76 127 76 127 76 264 c 0,19,20
 76 596 76 596 668 596 c 1,21,-1
 668 774 l 2,22,23
 668 876 668 876 637 926.5 c 128,-1,24
 606 977 606 977 520 977 c 0,25,26
 448 977 448 977 401 939 c 128,-1,27
 354 901 354 901 354 834 c 0,28,29
 354 794 354 794 371 741 c 1,30,31
 344 719 344 719 289 719 c 0,32,33
 215 719 215 719 172 755.5 c 128,-1,34
 129 792 129 792 129 862 c 0,35,36
 129 960 129 960 239.5 1022.5 c 128,-1,37
 350 1085 350 1085 535 1085 c 0,38,39
 734 1085 734 1085 813.5 996 c 128,-1,40
 893 907 893 907 893 700 c 2,41,-1
 893 168 l 2,7,8
668 494 m 1,42,43
 322 494 322 494 322 272 c 0,44,45
 322 191 322 191 365.5 141.5 c 128,-1,46
 409 92 409 92 487 92 c 0,47,48
 577 92 577 92 622.5 160.5 c 128,-1,49
 668 229 668 229 668 332 c 2,50,-1
 668 494 l 1,42,43
EndSplineSet
Validated: 1
EndChar

StartChar: adieresis
Encoding: 228 228 157
Width: 1024
Flags: MW
HStem: -45 137<434 465> 494 102<579 668> 977 109<474 582> 1217 258<276 357 684 765>
VStem: 76 246<219 361 219 403> 129 225<818 880 818 927> 164 307<1304 1388> 571 307<1304 1388> 668 225<332 494 494 494 596 700>
LayerCount: 2
Fore
SplineSet
319 1475 m 128,-1,1
 387 1475 387 1475 429 1442 c 128,-1,2
 471 1409 471 1409 471 1348 c 0,3,4
 471 1285 471 1285 426.5 1251 c 128,-1,5
 382 1217 382 1217 313 1217 c 0,6,7
 246 1217 246 1217 205 1249.5 c 128,-1,8
 164 1282 164 1282 164 1343 c 0,9,10
 164 1406 164 1406 207.5 1440.5 c 128,-1,0
 251 1475 251 1475 319 1475 c 128,-1,1
727 1475 m 128,-1,12
 795 1475 795 1475 837 1442 c 128,-1,13
 879 1409 879 1409 879 1348 c 0,14,15
 879 1285 879 1285 834.5 1251 c 128,-1,16
 790 1217 790 1217 721 1217 c 0,17,18
 654 1217 654 1217 612.5 1249.5 c 128,-1,19
 571 1282 571 1282 571 1343 c 0,20,21
 571 1406 571 1406 615 1440.5 c 128,-1,11
 659 1475 659 1475 727 1475 c 128,-1,12
893 168 m 2,22,23
 893 68 893 68 956 33 c 1,24,25
 922 -31 922 -31 836 -31 c 0,26,27
 777 -31 777 -31 737 2.5 c 128,-1,28
 697 36 697 36 690 94 c 1,29,30
 615 -45 615 -45 408 -45 c 0,31,32
 266 -45 266 -45 171 41 c 128,-1,33
 76 127 76 127 76 264 c 0,34,35
 76 596 76 596 668 596 c 1,36,-1
 668 774 l 2,37,38
 668 876 668 876 637 926.5 c 128,-1,39
 606 977 606 977 520 977 c 0,40,41
 448 977 448 977 401 939 c 128,-1,42
 354 901 354 901 354 834 c 0,43,44
 354 794 354 794 371 741 c 1,45,46
 344 719 344 719 289 719 c 0,47,48
 215 719 215 719 172 755.5 c 128,-1,49
 129 792 129 792 129 862 c 0,50,51
 129 960 129 960 239.5 1022.5 c 128,-1,52
 350 1085 350 1085 535 1085 c 0,53,54
 734 1085 734 1085 813.5 996 c 128,-1,55
 893 907 893 907 893 700 c 2,56,-1
 893 168 l 2,22,23
668 494 m 1,57,58
 322 494 322 494 322 272 c 0,59,60
 322 191 322 191 365.5 141.5 c 128,-1,61
 409 92 409 92 487 92 c 0,62,63
 577 92 577 92 622.5 160.5 c 128,-1,64
 668 229 668 229 668 332 c 2,65,-1
 668 494 l 1,57,58
EndSplineSet
Validated: 1
EndChar

